<ttFont>
    <TTGlyph name="A" xMin="26" yMin="-50" xMax="833" yMax="733">
      <contour>
        <pt x="651" y="730" on="1"/>
        <pt x="668" y="733" on="0"/>
        <pt x="675" y="730" on="1"/>
        <pt x="680" y="728" on="0"/>
        <pt x="684" y="721" on="1"/>
        <pt x="684" y="679" on="1"/>
        <pt x="679" y="493" on="0"/>
        <pt x="692" y="307" on="1"/>
        <pt x="700" y="167" on="0"/>
        <pt x="719" y="91" on="1"/>
        <pt x="727" y="60" on="0"/>
        <pt x="732" y="55" on="1"/>
        <pt x="736" y="52" on="0"/>
        <pt x="740" y="50" on="1"/>
        <pt x="744" y="49" on="0"/>
        <pt x="759" y="57" on="1"/>
        <pt x="793" y="74" on="0"/>
        <pt x="813" y="74" on="1"/>
        <pt x="828" y="74" on="0"/>
        <pt x="831" y="64" on="1"/>
        <pt x="833" y="58" on="0"/>
        <pt x="831" y="50" on="1"/>
        <pt x="825" y="33" on="0"/>
        <pt x="799" y="15" on="1"/>
        <pt x="770" y="-4" on="0"/>
        <pt x="725" y="-22" on="1"/>
        <pt x="705" y="-29" on="0"/>
        <pt x="682" y="-30" on="1"/>
        <pt x="660" y="-30" on="0"/>
        <pt x="647" y="-23" on="1"/>
        <pt x="631" y="-16" on="0"/>
        <pt x="622" y="0" on="1"/>
        <pt x="607" y="29" on="0"/>
        <pt x="593" y="130" on="1"/>
        <pt x="592" y="138" on="0"/>
        <pt x="591" y="145" on="1"/>
        <pt x="590" y="161" on="1"/>
        <pt x="461" y="161" on="1"/>
        <pt x="332" y="162" on="1"/>
        <pt x="321" y="146" on="1"/>
        <pt x="225" y="5" on="0"/>
        <pt x="170" y="-31" on="1"/>
        <pt x="142" y="-50" on="0"/>
        <pt x="119" y="-50" on="1"/>
        <pt x="74" y="-50" on="0"/>
        <pt x="46" y="-9" on="1"/>
        <pt x="42" y="-3" on="0"/>
        <pt x="39" y="4" on="1"/>
        <pt x="26" y="32" on="0"/>
        <pt x="31" y="64" on="1"/>
        <pt x="39" y="109" on="0"/>
        <pt x="65" y="129" on="1"/>
        <pt x="71" y="134" on="0"/>
        <pt x="77" y="135" on="1"/>
        <pt x="85" y="135" on="0"/>
        <pt x="89" y="130" on="1"/>
        <pt x="96" y="125" on="0"/>
        <pt x="97" y="110" on="1"/>
        <pt x="98" y="97" on="0"/>
        <pt x="110" y="85" on="1"/>
        <pt x="115" y="79" on="0"/>
        <pt x="125" y="74" on="1"/>
        <pt x="146" y="63" on="0"/>
        <pt x="157" y="67" on="1"/>
        <pt x="193" y="73" on="0"/>
        <pt x="272" y="185" on="1"/>
        <pt x="421" y="392" on="0"/>
        <pt x="531" y="613" on="1"/>
        <pt x="551" y="654" on="1"/>
        <pt x="563" y="654" on="1"/>
        <pt x="575" y="654" on="1"/>
        <pt x="575" y="665" on="1"/>
        <pt x="576" y="679" on="0"/>
        <pt x="583" y="688" on="1"/>
        <pt x="602" y="716" on="0"/>
        <pt x="641" y="728" on="1"/>
        <pt x="646" y="729" on="0"/>
      </contour>
      <contour>
        <pt x="576" y="399" on="1"/>
        <pt x="574" y="502" on="1"/>
        <pt x="574" y="570" on="1"/>
        <pt x="566" y="555" on="1"/>
        <pt x="492" y="408" on="0"/>
        <pt x="393" y="253" on="1"/>
        <pt x="380" y="233" on="1"/>
        <pt x="384" y="235" on="1"/>
        <pt x="396" y="239" on="0"/>
        <pt x="493" y="239" on="1"/>
        <pt x="584" y="239" on="1"/>
        <pt x="583" y="250" on="1"/>
        <pt x="580" y="293" on="0"/>
      </contour>
    </TTGlyph>
    <TTGlyph name="B" xMin="32" yMin="-29" xMax="665" yMax="707">
      <contour>
        <pt x="270" y="704" on="1"/>
        <pt x="282" y="705" on="1"/>
        <pt x="283" y="705" on="1"/>
        <pt x="291" y="705" on="0"/>
        <pt x="296" y="702" on="1"/>
        <pt x="300" y="700" on="0"/>
        <pt x="302" y="695" on="1"/>
        <pt x="304" y="691" on="0"/>
        <pt x="300" y="664" on="1"/>
        <pt x="299" y="656" on="0"/>
        <pt x="293" y="614" on="1"/>
        <pt x="290" y="591" on="0"/>
        <pt x="290" y="590" on="1"/>
        <pt x="290" y="587" on="0"/>
        <pt x="302" y="601" on="1"/>
        <pt x="349" y="645" on="0"/>
        <pt x="397" y="669" on="1"/>
        <pt x="448" y="694" on="0"/>
        <pt x="502" y="703" on="1"/>
        <pt x="533" y="707" on="0"/>
        <pt x="569" y="703" on="1"/>
        <pt x="617" y="693" on="0"/>
        <pt x="643" y="659" on="1"/>
        <pt x="653" y="647" on="0"/>
        <pt x="660" y="625" on="1"/>
        <pt x="665" y="606" on="0"/>
        <pt x="661" y="574" on="1"/>
        <pt x="647" y="515" on="0"/>
        <pt x="589" y="464" on="1"/>
        <pt x="553" y="434" on="0"/>
        <pt x="512" y="413" on="1"/>
        <pt x="505" y="408" on="1"/>
        <pt x="513" y="405" on="1"/>
        <pt x="532" y="397" on="0"/>
        <pt x="553" y="384" on="1"/>
        <pt x="610" y="346" on="0"/>
        <pt x="624" y="280" on="1"/>
        <pt x="626" y="270" on="0"/>
        <pt x="626" y="247" on="1"/>
        <pt x="626" y="223" on="0"/>
        <pt x="624" y="211" on="1"/>
        <pt x="614" y="163" on="0"/>
        <pt x="584" y="121" on="1"/>
        <pt x="525" y="42" on="0"/>
        <pt x="421" y="3" on="1"/>
        <pt x="394" y="-7" on="0"/>
        <pt x="368" y="-13" on="1"/>
        <pt x="299" y="-29" on="0"/>
        <pt x="251" y="-18" on="1"/>
        <pt x="210" y="-10" on="0"/>
        <pt x="177" y="17" on="1"/>
        <pt x="161" y="28" on="0"/>
        <pt x="155" y="39" on="1"/>
        <pt x="148" y="60" on="0"/>
        <pt x="184" y="86" on="1"/>
        <pt x="214" y="107" on="0"/>
        <pt x="242" y="107" on="1"/>
        <pt x="253" y="107" on="0"/>
        <pt x="260" y="99" on="1"/>
        <pt x="262" y="98" on="0"/>
        <pt x="266" y="94" on="1"/>
        <pt x="271" y="89" on="0"/>
        <pt x="283" y="80" on="1"/>
        <pt x="323" y="52" on="0"/>
        <pt x="378" y="57" on="1"/>
        <pt x="458" y="65" on="0"/>
        <pt x="494" y="119" on="1"/>
        <pt x="509" y="141" on="0"/>
        <pt x="515" y="172" on="1"/>
        <pt x="520" y="198" on="0"/>
        <pt x="516" y="226" on="1"/>
        <pt x="505" y="277" on="0"/>
        <pt x="463" y="309" on="1"/>
        <pt x="433" y="331" on="0"/>
        <pt x="383" y="339" on="1"/>
        <pt x="354" y="343" on="0"/>
        <pt x="325" y="339" on="1"/>
        <pt x="313" y="337" on="0"/>
        <pt x="307" y="337" on="1"/>
        <pt x="298" y="337" on="0"/>
        <pt x="295" y="340" on="1"/>
        <pt x="282" y="347" on="0"/>
        <pt x="291" y="365" on="1"/>
        <pt x="303" y="389" on="0"/>
        <pt x="338" y="405" on="1"/>
        <pt x="350" y="411" on="0"/>
        <pt x="365" y="415" on="1"/>
        <pt x="506" y="462" on="0"/>
        <pt x="538" y="502" on="1"/>
        <pt x="547" y="516" on="0"/>
        <pt x="551" y="531" on="1"/>
        <pt x="557" y="550" on="0"/>
        <pt x="551" y="574" on="1"/>
        <pt x="545" y="590" on="0"/>
        <pt x="532" y="603" on="1"/>
        <pt x="512" y="622" on="0"/>
        <pt x="472" y="627" on="1"/>
        <pt x="434" y="630" on="0"/>
        <pt x="397" y="604" on="1"/>
        <pt x="373" y="585" on="0"/>
        <pt x="354" y="560" on="1"/>
        <pt x="277" y="463" on="0"/>
        <pt x="220" y="242" on="1"/>
        <pt x="194" y="139" on="0"/>
        <pt x="153" y="58" on="1"/>
        <pt x="135" y="21" on="0"/>
        <pt x="124" y="10" on="1"/>
        <pt x="90" y="-22" on="0"/>
        <pt x="52" y="-22" on="1"/>
        <pt x="44" y="-22" on="0"/>
        <pt x="40" y="-19" on="1"/>
        <pt x="32" y="-14" on="0"/>
        <pt x="32" y="-4" on="1"/>
        <pt x="47" y="29" on="1"/>
        <pt x="88" y="110" on="0"/>
        <pt x="114" y="214" on="1"/>
        <pt x="157" y="389" on="0"/>
        <pt x="180" y="543" on="1"/>
        <pt x="189" y="594" on="0"/>
        <pt x="189" y="604" on="1"/>
        <pt x="172" y="595" on="1"/>
        <pt x="144" y="582" on="0"/>
        <pt x="127" y="581" on="1"/>
        <pt x="117" y="581" on="0"/>
        <pt x="113" y="584" on="1"/>
        <pt x="104" y="588" on="0"/>
        <pt x="104" y="598" on="1"/>
        <pt x="104" y="618" on="0"/>
        <pt x="139" y="641" on="1"/>
        <pt x="160" y="656" on="0"/>
        <pt x="248" y="696" on="1"/>
        <pt x="257" y="701" on="0"/>
        <pt x="259" y="701" on="1"/>
        <pt x="269" y="704" on="0"/>
      </contour>
    </TTGlyph>
    <TTGlyph name="C" xMin="10" yMin="-28" xMax="534" yMax="705">
      <contour>
        <pt x="430" y="704" on="1"/>
        <pt x="432" y="705" on="0"/>
        <pt x="457" y="705" on="1"/>
        <pt x="480" y="704" on="0"/>
        <pt x="486" y="702" on="1"/>
        <pt x="516" y="694" on="0"/>
        <pt x="525" y="672" on="1"/>
        <pt x="532" y="660" on="0"/>
        <pt x="533" y="642" on="1"/>
        <pt x="534" y="616" on="0"/>
        <pt x="519" y="577" on="1"/>
        <pt x="500" y="523" on="0"/>
        <pt x="476" y="485" on="1"/>
        <pt x="456" y="454" on="0"/>
        <pt x="413" y="442" on="1"/>
        <pt x="402" y="439" on="0"/>
        <pt x="392" y="439" on="1"/>
        <pt x="385" y="439" on="0"/>
        <pt x="381" y="442" on="1"/>
        <pt x="373" y="447" on="0"/>
        <pt x="373" y="455" on="1"/>
        <pt x="373" y="460" on="0"/>
        <pt x="384" y="483" on="1"/>
        <pt x="403" y="520" on="0"/>
        <pt x="414" y="547" on="1"/>
        <pt x="423" y="574" on="0"/>
        <pt x="423" y="590" on="1"/>
        <pt x="423" y="609" on="0"/>
        <pt x="417" y="616" on="1"/>
        <pt x="414" y="620" on="0"/>
        <pt x="407" y="623" on="1"/>
        <pt x="394" y="627" on="0"/>
        <pt x="369" y="626" on="1"/>
        <pt x="314" y="621" on="0"/>
        <pt x="278" y="598" on="1"/>
        <pt x="247" y="576" on="0"/>
        <pt x="222" y="545" on="1"/>
        <pt x="163" y="471" on="0"/>
        <pt x="136" y="359" on="1"/>
        <pt x="98" y="205" on="0"/>
        <pt x="154" y="117" on="1"/>
        <pt x="169" y="93" on="0"/>
        <pt x="191" y="78" on="1"/>
        <pt x="223" y="53" on="0"/>
        <pt x="273" y="53" on="1"/>
        <pt x="279" y="53" on="0"/>
        <pt x="284" y="54" on="1"/>
        <pt x="347" y="61" on="0"/>
        <pt x="390" y="124" on="1"/>
        <pt x="404" y="144" on="0"/>
        <pt x="421" y="156" on="1"/>
        <pt x="450" y="176" on="0"/>
        <pt x="479" y="176" on="1"/>
        <pt x="490" y="176" on="0"/>
        <pt x="495" y="167" on="1"/>
        <pt x="499" y="161" on="0"/>
        <pt x="495" y="149" on="1"/>
        <pt x="491" y="141" on="0"/>
        <pt x="470" y="112" on="1"/>
        <pt x="397" y="22" on="0"/>
        <pt x="286" y="-12" on="1"/>
        <pt x="264" y="-19" on="0"/>
        <pt x="242" y="-22" on="1"/>
        <pt x="208" y="-28" on="0"/>
        <pt x="178" y="-24" on="1"/>
        <pt x="148" y="-21" on="0"/>
        <pt x="117" y="-6" on="1"/>
        <pt x="73" y="16" on="0"/>
        <pt x="48" y="56" on="1"/>
        <pt x="10" y="115" on="0"/>
        <pt x="12" y="212" on="1"/>
        <pt x="13" y="264" on="0"/>
        <pt x="28" y="324" on="1"/>
        <pt x="70" y="492" on="0"/>
        <pt x="177" y="590" on="1"/>
        <pt x="246" y="657" on="0"/>
        <pt x="338" y="686" on="1"/>
        <pt x="378" y="700" on="0"/>
      </contour>
    </TTGlyph>
    <TTGlyph name="D" xMin="16" yMin="0" xMax="769" yMax="682">
      <contour>
        <pt x="327" y="682" on="1"/>
        <pt x="494" y="682" on="1"/>
        <pt x="602" y="675" on="0"/>
        <pt x="673" y="629" on="1"/>
        <pt x="769" y="565" on="0"/>
        <pt x="766" y="442" on="1"/>
        <pt x="763" y="360" on="0"/>
        <pt x="724" y="287" on="1"/>
        <pt x="680" y="203" on="0"/>
        <pt x="594" y="137" on="1"/>
        <pt x="453" y="28" on="0"/>
        <pt x="274" y="5" on="1"/>
        <pt x="269" y="5" on="0"/>
        <pt x="264" y="4" on="1"/>
        <pt x="227" y="0" on="0"/>
        <pt x="150" y="0" on="1"/>
        <pt x="80" y="0" on="1"/>
        <pt x="76" y="3" on="1"/>
        <pt x="64" y="11" on="0"/>
        <pt x="72" y="28" on="1"/>
        <pt x="78" y="42" on="0"/>
        <pt x="100" y="58" on="1"/>
        <pt x="122" y="72" on="0"/>
        <pt x="138" y="75" on="1"/>
        <pt x="147" y="78" on="1"/>
        <pt x="149" y="85" on="1"/>
        <pt x="247" y="331" on="0"/>
        <pt x="270" y="578" on="1"/>
        <pt x="274" y="604" on="0"/>
        <pt x="272" y="604" on="1"/>
        <pt x="232" y="599" on="1"/>
        <pt x="176" y="590" on="0"/>
        <pt x="151" y="568" on="1"/>
        <pt x="135" y="552" on="0"/>
        <pt x="127" y="527" on="1"/>
        <pt x="122" y="514" on="0"/>
        <pt x="112" y="501" on="1"/>
        <pt x="76" y="470" on="0"/>
        <pt x="36" y="466" on="1"/>
        <pt x="23" y="466" on="0"/>
        <pt x="19" y="475" on="1"/>
        <pt x="16" y="481" on="0"/>
        <pt x="21" y="498" on="1"/>
        <pt x="41" y="556" on="0"/>
        <pt x="97" y="599" on="1"/>
        <pt x="189" y="671" on="0"/>
      </contour>
      <contour>
        <pt x="411" y="604" on="1"/>
        <pt x="402" y="605" on="0"/>
        <pt x="386" y="605" on="1"/>
        <pt x="378" y="605" on="1"/>
        <pt x="378" y="600" on="1"/>
        <pt x="374" y="571" on="1"/>
        <pt x="345" y="340" on="0"/>
        <pt x="252" y="106" on="1"/>
        <pt x="241" y="81" on="0"/>
        <pt x="241" y="80" on="1"/>
        <pt x="241" y="78" on="0"/>
        <pt x="261" y="78" on="1"/>
        <pt x="313" y="78" on="0"/>
        <pt x="360" y="88" on="1"/>
        <pt x="468" y="110" on="0"/>
        <pt x="543" y="171" on="1"/>
        <pt x="573" y="195" on="0"/>
        <pt x="594" y="223" on="1"/>
        <pt x="644" y="288" on="0"/>
        <pt x="655" y="370" on="1"/>
        <pt x="659" y="403" on="0"/>
        <pt x="655" y="436" on="1"/>
        <pt x="645" y="503" on="0"/>
        <pt x="595" y="545" on="1"/>
        <pt x="533" y="596" on="0"/>
      </contour>
    </TTGlyph>
    <TTGlyph name="E" xMin="17" yMin="-32" xMax="565" yMax="705">
      <contour>
        <pt x="417" y="703" on="1"/>
        <pt x="435" y="705" on="0"/>
        <pt x="455" y="705" on="1"/>
        <pt x="489" y="704" on="0"/>
        <pt x="512" y="698" on="1"/>
        <pt x="561" y="686" on="0"/>
        <pt x="564" y="642" on="1"/>
        <pt x="565" y="624" on="0"/>
        <pt x="558" y="605" on="1"/>
        <pt x="548" y="579" on="0"/>
        <pt x="534" y="565" on="1"/>
        <pt x="502" y="532" on="0"/>
        <pt x="457" y="529" on="1"/>
        <pt x="445" y="529" on="0"/>
        <pt x="441" y="539" on="1"/>
        <pt x="439" y="543" on="0"/>
        <pt x="440" y="549" on="1"/>
        <pt x="440" y="555" on="0"/>
        <pt x="447" y="564" on="1"/>
        <pt x="455" y="580" on="0"/>
        <pt x="455" y="592" on="1"/>
        <pt x="452" y="614" on="0"/>
        <pt x="436" y="618" on="1"/>
        <pt x="402" y="629" on="0"/>
        <pt x="370" y="627" on="1"/>
        <pt x="331" y="624" on="0"/>
        <pt x="302" y="606" on="1"/>
        <pt x="261" y="579" on="0"/>
        <pt x="254" y="528" on="1"/>
        <pt x="251" y="509" on="0"/>
        <pt x="256" y="493" on="1"/>
        <pt x="268" y="450" on="0"/>
        <pt x="320" y="430" on="1"/>
        <pt x="355" y="415" on="0"/>
        <pt x="398" y="415" on="1"/>
        <pt x="408" y="415" on="0"/>
        <pt x="414" y="408" on="1"/>
        <pt x="426" y="394" on="0"/>
        <pt x="401" y="369" on="1"/>
        <pt x="399" y="368" on="0"/>
        <pt x="397" y="366" on="1"/>
        <pt x="363" y="337" on="0"/>
        <pt x="328" y="337" on="1"/>
        <pt x="280" y="337" on="0"/>
        <pt x="237" y="310" on="1"/>
        <pt x="173" y="270" on="0"/>
        <pt x="147" y="194" on="1"/>
        <pt x="145" y="187" on="0"/>
        <pt x="143" y="180" on="1"/>
        <pt x="140" y="170" on="0"/>
        <pt x="140" y="154" on="1"/>
        <pt x="140" y="139" on="0"/>
        <pt x="142" y="131" on="1"/>
        <pt x="157" y="85" on="0"/>
        <pt x="209" y="67" on="1"/>
        <pt x="246" y="54" on="0"/>
        <pt x="281" y="57" on="1"/>
        <pt x="346" y="63" on="0"/>
        <pt x="394" y="127" on="1"/>
        <pt x="409" y="147" on="0"/>
        <pt x="425" y="157" on="1"/>
        <pt x="454" y="176" on="0"/>
        <pt x="481" y="176" on="1"/>
        <pt x="492" y="176" on="0"/>
        <pt x="497" y="167" on="1"/>
        <pt x="504" y="156" on="0"/>
        <pt x="484" y="131" on="1"/>
        <pt x="414" y="37" on="0"/>
        <pt x="302" y="-4" on="1"/>
        <pt x="299" y="-5" on="0"/>
        <pt x="296" y="-6" on="1"/>
        <pt x="214" y="-32" on="0"/>
        <pt x="148" y="-17" on="1"/>
        <pt x="88" y="-6" on="0"/>
        <pt x="53" y="39" on="1"/>
        <pt x="17" y="85" on="0"/>
        <pt x="37" y="150" on="1"/>
        <pt x="65" y="249" on="0"/>
        <pt x="157" y="323" on="1"/>
        <pt x="189" y="348" on="0"/>
        <pt x="209" y="359" on="1"/>
        <pt x="212" y="361" on="0"/>
        <pt x="213" y="362" on="1"/>
        <pt x="209" y="365" on="1"/>
        <pt x="201" y="369" on="0"/>
        <pt x="179" y="386" on="1"/>
        <pt x="157" y="406" on="0"/>
        <pt x="147" y="440" on="1"/>
        <pt x="145" y="449" on="0"/>
        <pt x="145" y="468" on="1"/>
        <pt x="145" y="488" on="0"/>
        <pt x="147" y="497" on="1"/>
        <pt x="156" y="542" on="0"/>
        <pt x="190" y="583" on="1"/>
        <pt x="212" y="610" on="0"/>
        <pt x="233" y="625" on="1"/>
        <pt x="316" y="692" on="0"/>
      </contour>
    </TTGlyph>
    <TTGlyph name="F" xMin="15" yMin="-32" xMax="827" yMax="682">
      <contour>
        <pt x="413" y="682" on="1"/>
        <pt x="768" y="682" on="1"/>
        <pt x="794" y="679" on="0"/>
        <pt x="805" y="674" on="1"/>
        <pt x="819" y="665" on="0"/>
        <pt x="825" y="657" on="1"/>
        <pt x="827" y="652" on="0"/>
        <pt x="827" y="632" on="0"/>
        <pt x="824" y="626" on="1"/>
        <pt x="818" y="612" on="0"/>
        <pt x="800" y="599" on="1"/>
        <pt x="769" y="576" on="0"/>
        <pt x="740" y="576" on="1"/>
        <pt x="730" y="576" on="0"/>
        <pt x="726" y="579" on="1"/>
        <pt x="720" y="582" on="0"/>
        <pt x="719" y="592" on="1"/>
        <pt x="719" y="598" on="1"/>
        <pt x="713" y="599" on="1"/>
        <pt x="699" y="604" on="0"/>
        <pt x="616" y="605" on="1"/>
        <pt x="597" y="605" on="1"/>
        <pt x="504" y="605" on="1"/>
        <pt x="503" y="598" on="1"/>
        <pt x="498" y="568" on="0"/>
        <pt x="485" y="519" on="1"/>
        <pt x="469" y="457" on="0"/>
        <pt x="448" y="392" on="1"/>
        <pt x="440" y="373" on="0"/>
        <pt x="440" y="369" on="1"/>
        <pt x="561" y="369" on="1"/>
        <pt x="682" y="369" on="1"/>
        <pt x="687" y="366" on="1"/>
        <pt x="695" y="361" on="0"/>
        <pt x="695" y="353" on="1"/>
        <pt x="695" y="343" on="0"/>
        <pt x="688" y="329" on="1"/>
        <pt x="673" y="300" on="0"/>
        <pt x="630" y="284" on="1"/>
        <pt x="614" y="279" on="0"/>
        <pt x="601" y="279" on="1"/>
        <pt x="589" y="279" on="0"/>
        <pt x="585" y="288" on="1"/>
        <pt x="583" y="291" on="1"/>
        <pt x="496" y="291" on="1"/>
        <pt x="410" y="291" on="0"/>
        <pt x="409" y="289" on="1"/>
        <pt x="404" y="272" on="0"/>
        <pt x="378" y="217" on="1"/>
        <pt x="337" y="122" on="0"/>
        <pt x="300" y="63" on="1"/>
        <pt x="253" y="-5" on="0"/>
        <pt x="178" y="-27" on="1"/>
        <pt x="171" y="-29" on="0"/>
        <pt x="165" y="-30" on="1"/>
        <pt x="156" y="-32" on="0"/>
        <pt x="135" y="-32" on="1"/>
        <pt x="100" y="-32" on="0"/>
        <pt x="77" y="-21" on="1"/>
        <pt x="40" y="-2" on="0"/>
        <pt x="22" y="32" on="1"/>
        <pt x="15" y="44" on="0"/>
        <pt x="19" y="54" on="1"/>
        <pt x="29" y="80" on="0"/>
        <pt x="70" y="99" on="1"/>
        <pt x="80" y="104" on="0"/>
        <pt x="90" y="106" on="1"/>
        <pt x="106" y="109" on="0"/>
        <pt x="117" y="105" on="1"/>
        <pt x="122" y="103" on="0"/>
        <pt x="128" y="92" on="1"/>
        <pt x="139" y="71" on="0"/>
        <pt x="157" y="59" on="1"/>
        <pt x="170" y="50" on="0"/>
        <pt x="195" y="46" on="1"/>
        <pt x="200" y="46" on="1"/>
        <pt x="204" y="52" on="1"/>
        <pt x="232" y="96" on="0"/>
        <pt x="270" y="184" on="1"/>
        <pt x="271" y="186" on="0"/>
        <pt x="272" y="188" on="1"/>
        <pt x="366" y="394" on="0"/>
        <pt x="402" y="601" on="1"/>
        <pt x="403" y="605" on="1"/>
        <pt x="378" y="605" on="1"/>
        <pt x="346" y="604" on="0"/>
        <pt x="327" y="598" on="1"/>
        <pt x="277" y="581" on="0"/>
        <pt x="259" y="530" on="1"/>
        <pt x="254" y="512" on="0"/>
        <pt x="244" y="502" on="1"/>
        <pt x="209" y="470" on="0"/>
        <pt x="168" y="466" on="1"/>
        <pt x="155" y="466" on="0"/>
        <pt x="151" y="475" on="1"/>
        <pt x="148" y="481" on="0"/>
        <pt x="153" y="499" on="1"/>
        <pt x="168" y="544" on="0"/>
        <pt x="209" y="585" on="1"/>
        <pt x="285" y="661" on="0"/>
        <pt x="394" y="679" on="1"/>
        <pt x="404" y="681" on="0"/>
      </contour>
    </TTGlyph>
    <TTGlyph name="G" xMin="23" yMin="-120" xMax="599" yMax="704">
      <contour>
        <pt x="446" y="704" on="1"/>
        <pt x="515" y="703" on="1"/>
        <pt x="562" y="694" on="0"/>
        <pt x="581" y="677" on="1"/>
        <pt x="599" y="657" on="0"/>
        <pt x="598" y="628" on="1"/>
        <pt x="597" y="609" on="0"/>
        <pt x="587" y="588" on="1"/>
        <pt x="560" y="533" on="0"/>
        <pt x="525" y="494" on="1"/>
        <pt x="490" y="461" on="0"/>
        <pt x="451" y="461" on="1"/>
        <pt x="444" y="461" on="0"/>
        <pt x="440" y="464" on="1"/>
        <pt x="432" y="469" on="0"/>
        <pt x="432" y="477" on="1"/>
        <pt x="432" y="487" on="0"/>
        <pt x="446" y="505" on="1"/>
        <pt x="477" y="544" on="0"/>
        <pt x="486" y="571" on="1"/>
        <pt x="488" y="575" on="0"/>
        <pt x="488" y="586" on="1"/>
        <pt x="488" y="595" on="0"/>
        <pt x="485" y="601" on="1"/>
        <pt x="480" y="612" on="0"/>
        <pt x="466" y="617" on="1"/>
        <pt x="439" y="626" on="0"/>
        <pt x="400" y="626" on="1"/>
        <pt x="334" y="626" on="0"/>
        <pt x="284" y="595" on="1"/>
        <pt x="213" y="548" on="0"/>
        <pt x="176" y="444" on="1"/>
        <pt x="170" y="426" on="0"/>
        <pt x="165" y="407" on="1"/>
        <pt x="133" y="279" on="0"/>
        <pt x="183" y="201" on="1"/>
        <pt x="187" y="196" on="0"/>
        <pt x="190" y="192" on="1"/>
        <pt x="222" y="150" on="0"/>
        <pt x="284" y="146" on="1"/>
        <pt x="324" y="144" on="0"/>
        <pt x="361" y="172" on="1"/>
        <pt x="382" y="188" on="0"/>
        <pt x="402" y="213" on="1"/>
        <pt x="438" y="258" on="0"/>
        <pt x="455" y="317" on="1"/>
        <pt x="462" y="338" on="0"/>
        <pt x="477" y="351" on="1"/>
        <pt x="506" y="377" on="0"/>
        <pt x="540" y="380" on="1"/>
        <pt x="550" y="381" on="1"/>
        <pt x="556" y="379" on="1"/>
        <pt x="565" y="374" on="0"/>
        <pt x="565" y="365" on="1"/>
        <pt x="565" y="346" on="0"/>
        <pt x="527" y="216" on="1"/>
        <pt x="527" y="214" on="0"/>
        <pt x="526" y="212" on="1"/>
        <pt x="477" y="52" on="0"/>
        <pt x="412" y="-23" on="1"/>
        <pt x="360" y="-84" on="0"/>
        <pt x="288" y="-107" on="1"/>
        <pt x="283" y="-109" on="0"/>
        <pt x="279" y="-110" on="1"/>
        <pt x="242" y="-120" on="0"/>
        <pt x="202" y="-119" on="1"/>
        <pt x="145" y="-118" on="0"/>
        <pt x="95" y="-100" on="1"/>
        <pt x="66" y="-90" on="0"/>
        <pt x="57" y="-83" on="1"/>
        <pt x="43" y="-72" on="0"/>
        <pt x="60" y="-51" on="1"/>
        <pt x="85" y="-18" on="0"/>
        <pt x="129" y="-11" on="1"/>
        <pt x="132" y="-10" on="0"/>
        <pt x="135" y="-10" on="1"/>
        <pt x="145" y="-9" on="1"/>
        <pt x="158" y="-14" on="1"/>
        <pt x="216" y="-40" on="0"/>
        <pt x="282" y="-40" on="1"/>
        <pt x="305" y="-40" on="0"/>
        <pt x="315" y="-32" on="1"/>
        <pt x="316" y="-31" on="0"/>
        <pt x="318" y="-29" on="1"/>
        <pt x="354" y="4" on="0"/>
        <pt x="388" y="89" on="1"/>
        <pt x="403" y="125" on="0"/>
        <pt x="403" y="131" on="1"/>
        <pt x="394" y="126" on="1"/>
        <pt x="327" y="81" on="0"/>
        <pt x="254" y="70" on="1"/>
        <pt x="222" y="66" on="0"/>
        <pt x="186" y="70" on="1"/>
        <pt x="184" y="70" on="0"/>
        <pt x="182" y="70" on="1"/>
        <pt x="147" y="78" on="0"/>
        <pt x="121" y="96" on="1"/>
        <pt x="82" y="121" on="0"/>
        <pt x="61" y="173" on="1"/>
        <pt x="23" y="267" on="0"/>
        <pt x="65" y="399" on="1"/>
        <pt x="112" y="542" on="0"/>
        <pt x="229" y="626" on="1"/>
        <pt x="326" y="695" on="0"/>
      </contour>
    </TTGlyph>
    <TTGlyph name="H" xMin="12" yMin="-49" xMax="808" yMax="683">
      <contour>
        <pt x="304" y="682" on="1"/>
        <pt x="355" y="682" on="1"/>
        <pt x="377" y="676" on="0"/>
        <pt x="392" y="660" on="1"/>
        <pt x="408" y="642" on="0"/>
        <pt x="408" y="618" on="1"/>
        <pt x="408" y="581" on="0"/>
        <pt x="395" y="507" on="1"/>
        <pt x="386" y="451" on="0"/>
        <pt x="367" y="378" on="1"/>
        <pt x="359" y="349" on="0"/>
        <pt x="359" y="348" on="1"/>
        <pt x="359" y="346" on="1"/>
        <pt x="469" y="346" on="1"/>
        <pt x="579" y="346" on="1"/>
        <pt x="585" y="369" on="1"/>
        <pt x="632" y="528" on="0"/>
        <pt x="673" y="622" on="1"/>
        <pt x="678" y="635" on="0"/>
        <pt x="681" y="639" on="1"/>
        <pt x="693" y="659" on="0"/>
        <pt x="723" y="673" on="1"/>
        <pt x="742" y="682" on="0"/>
        <pt x="759" y="683" on="1"/>
        <pt x="769" y="683" on="0"/>
        <pt x="773" y="681" on="1"/>
        <pt x="778" y="679" on="0"/>
        <pt x="779" y="676" on="1"/>
        <pt x="784" y="670" on="0"/>
        <pt x="776" y="646" on="1"/>
        <pt x="774" y="642" on="0"/>
        <pt x="772" y="636" on="1"/>
        <pt x="673" y="375" on="0"/>
        <pt x="639" y="188" on="1"/>
        <pt x="623" y="108" on="0"/>
        <pt x="623" y="64" on="1"/>
        <pt x="623" y="52" on="0"/>
        <pt x="626" y="46" on="1"/>
        <pt x="635" y="29" on="0"/>
        <pt x="657" y="30" on="1"/>
        <pt x="684" y="30" on="0"/>
        <pt x="692" y="34" on="1"/>
        <pt x="695" y="35" on="0"/>
        <pt x="696" y="40" on="1"/>
        <pt x="705" y="67" on="0"/>
        <pt x="746" y="86" on="1"/>
        <pt x="763" y="94" on="0"/>
        <pt x="779" y="96" on="1"/>
        <pt x="789" y="97" on="1"/>
        <pt x="795" y="95" on="1"/>
        <pt x="808" y="87" on="0"/>
        <pt x="801" y="66" on="1"/>
        <pt x="780" y="12" on="0"/>
        <pt x="714" y="-21" on="1"/>
        <pt x="659" y="-46" on="0"/>
        <pt x="590" y="-49" on="1"/>
        <pt x="563" y="-49" on="0"/>
        <pt x="551" y="-43" on="1"/>
        <pt x="529" y="-33" on="0"/>
        <pt x="511" y="3" on="0"/>
        <pt x="515" y="38" on="1"/>
        <pt x="524" y="140" on="0"/>
        <pt x="551" y="243" on="1"/>
        <pt x="558" y="271" on="0"/>
        <pt x="558" y="274" on="1"/>
        <pt x="553" y="272" on="1"/>
        <pt x="536" y="268" on="0"/>
        <pt x="435" y="268" on="1"/>
        <pt x="336" y="268" on="1"/>
        <pt x="336" y="261" on="0"/>
        <pt x="297" y="147" on="1"/>
        <pt x="255" y="24" on="0"/>
        <pt x="244" y="6" on="1"/>
        <pt x="230" y="-19" on="0"/>
        <pt x="194" y="-34" on="1"/>
        <pt x="176" y="-40" on="0"/>
        <pt x="163" y="-41" on="1"/>
        <pt x="153" y="-41" on="0"/>
        <pt x="148" y="-38" on="1"/>
        <pt x="140" y="-33" on="0"/>
        <pt x="140" y="-25" on="1"/>
        <pt x="140" y="-19" on="0"/>
        <pt x="152" y="8" on="1"/>
        <pt x="202" y="142" on="0"/>
        <pt x="234" y="253" on="1"/>
        <pt x="239" y="268" on="1"/>
        <pt x="193" y="268" on="1"/>
        <pt x="147" y="268" on="1"/>
        <pt x="142" y="271" on="1"/>
        <pt x="134" y="276" on="0"/>
        <pt x="134" y="286" on="1"/>
        <pt x="137" y="310" on="0"/>
        <pt x="176" y="332" on="1"/>
        <pt x="180" y="334" on="0"/>
        <pt x="184" y="336" on="1"/>
        <pt x="202" y="345" on="0"/>
        <pt x="230" y="346" on="1"/>
        <pt x="235" y="346" on="1"/>
        <pt x="260" y="346" on="1"/>
        <pt x="261" y="350" on="1"/>
        <pt x="286" y="443" on="0"/>
        <pt x="294" y="525" on="1"/>
        <pt x="301" y="575" on="0"/>
        <pt x="295" y="587" on="1"/>
        <pt x="284" y="609" on="0"/>
        <pt x="240" y="603" on="1"/>
        <pt x="236" y="603" on="0"/>
        <pt x="231" y="602" on="1"/>
        <pt x="184" y="596" on="0"/>
        <pt x="159" y="570" on="1"/>
        <pt x="142" y="553" on="0"/>
        <pt x="126" y="524" on="1"/>
        <pt x="118" y="508" on="0"/>
        <pt x="112" y="502" on="1"/>
        <pt x="77" y="470" on="0"/>
        <pt x="36" y="466" on="1"/>
        <pt x="31" y="466" on="0"/>
        <pt x="25" y="469" on="1"/>
        <pt x="12" y="477" on="0"/>
        <pt x="22" y="497" on="1"/>
        <pt x="23" y="500" on="0"/>
        <pt x="25" y="504" on="1"/>
        <pt x="49" y="551" on="0"/>
        <pt x="87" y="587" on="1"/>
        <pt x="177" y="671" on="0"/>
      </contour>
    </TTGlyph>
    <TTGlyph name="I" xMin="-37" yMin="0" xMax="657" yMax="683">
      <contour>
        <pt x="316" y="682" on="1"/>
        <pt x="467" y="683" on="1"/>
        <pt x="473" y="683" on="0"/>
        <pt x="479" y="683" on="1"/>
        <pt x="634" y="683" on="1"/>
        <pt x="639" y="680" on="1"/>
        <pt x="657" y="669" on="0"/>
        <pt x="636" y="645" on="1"/>
        <pt x="617" y="619" on="0"/>
        <pt x="578" y="608" on="1"/>
        <pt x="572" y="606" on="0"/>
        <pt x="509" y="605" on="1"/>
        <pt x="446" y="605" on="1"/>
        <pt x="440" y="596" on="1"/>
        <pt x="426" y="577" on="0"/>
        <pt x="411" y="537" on="1"/>
        <pt x="391" y="489" on="0"/>
        <pt x="353" y="335" on="1"/>
        <pt x="320" y="209" on="0"/>
        <pt x="291" y="150" on="1"/>
        <pt x="273" y="113" on="0"/>
        <pt x="250" y="86" on="1"/>
        <pt x="245" y="80" on="0"/>
        <pt x="244" y="79" on="1"/>
        <pt x="244" y="78" on="0"/>
        <pt x="333" y="78" on="1"/>
        <pt x="435" y="78" on="0"/>
        <pt x="438" y="84" on="1"/>
        <pt x="438" y="92" on="0"/>
        <pt x="451" y="105" on="1"/>
        <pt x="485" y="138" on="0"/>
        <pt x="525" y="141" on="1"/>
        <pt x="535" y="141" on="0"/>
        <pt x="540" y="138" on="1"/>
        <pt x="552" y="129" on="0"/>
        <pt x="539" y="103" on="1"/>
        <pt x="522" y="68" on="0"/>
        <pt x="482" y="42" on="1"/>
        <pt x="440" y="14" on="0"/>
        <pt x="395" y="5" on="1"/>
        <pt x="370" y="0" on="0"/>
        <pt x="244" y="0" on="1"/>
        <pt x="169" y="0" on="1"/>
        <pt x="-21" y="0" on="1"/>
        <pt x="-25" y="3" on="1"/>
        <pt x="-37" y="11" on="0"/>
        <pt x="-29" y="28" on="1"/>
        <pt x="-17" y="52" on="0"/>
        <pt x="17" y="68" on="1"/>
        <pt x="35" y="77" on="0"/>
        <pt x="60" y="77" on="1"/>
        <pt x="62" y="77" on="0"/>
        <pt x="99" y="78" on="1"/>
        <pt x="155" y="79" on="1"/>
        <pt x="161" y="85" on="1"/>
        <pt x="188" y="115" on="0"/>
        <pt x="215" y="192" on="1"/>
        <pt x="228" y="233" on="0"/>
        <pt x="245" y="299" on="1"/>
        <pt x="277" y="425" on="1"/>
        <pt x="310" y="539" on="0"/>
        <pt x="351" y="595" on="1"/>
        <pt x="358" y="605" on="1"/>
        <pt x="318" y="605" on="1"/>
        <pt x="235" y="605" on="0"/>
        <pt x="192" y="599" on="1"/>
        <pt x="158" y="594" on="0"/>
        <pt x="151" y="589" on="1"/>
        <pt x="144" y="586" on="0"/>
        <pt x="138" y="567" on="1"/>
        <pt x="131" y="545" on="0"/>
        <pt x="106" y="528" on="1"/>
        <pt x="79" y="510" on="0"/>
        <pt x="52" y="507" on="1"/>
        <pt x="42" y="507" on="0"/>
        <pt x="38" y="510" on="1"/>
        <pt x="25" y="517" on="0"/>
        <pt x="32" y="537" on="1"/>
        <pt x="55" y="607" on="0"/>
        <pt x="143" y="648" on="1"/>
        <pt x="150" y="652" on="0"/>
        <pt x="158" y="655" on="1"/>
        <pt x="219" y="679" on="0"/>
      </contour>
    </TTGlyph>
    <TTGlyph name="J" xMin="41" yMin="-120" xMax="838" yMax="683">
      <contour>
        <pt x="580" y="681" on="1"/>
        <pt x="600" y="683" on="0"/>
        <pt x="710" y="683" on="1"/>
        <pt x="826" y="683" on="1"/>
        <pt x="830" y="680" on="1"/>
        <pt x="838" y="675" on="0"/>
        <pt x="838" y="665" on="1"/>
        <pt x="836" y="653" on="0"/>
        <pt x="824" y="641" on="1"/>
        <pt x="792" y="607" on="0"/>
        <pt x="749" y="605" on="1"/>
        <pt x="739" y="605" on="0"/>
        <pt x="729" y="601" on="1"/>
        <pt x="717" y="594" on="0"/>
        <pt x="701" y="574" on="1"/>
        <pt x="662" y="524" on="0"/>
        <pt x="628" y="432" on="1"/>
        <pt x="596" y="345" on="0"/>
        <pt x="557" y="190" on="1"/>
        <pt x="545" y="141" on="0"/>
        <pt x="535" y="114" on="1"/>
        <pt x="491" y="5" on="0"/>
        <pt x="388" y="-63" on="1"/>
        <pt x="370" y="-75" on="0"/>
        <pt x="351" y="-84" on="1"/>
        <pt x="288" y="-116" on="0"/>
        <pt x="223" y="-119" on="1"/>
        <pt x="168" y="-120" on="0"/>
        <pt x="131" y="-101" on="1"/>
        <pt x="74" y="-71" on="0"/>
        <pt x="55" y="-18" on="1"/>
        <pt x="41" y="21" on="0"/>
        <pt x="51" y="71" on="1"/>
        <pt x="55" y="89" on="0"/>
        <pt x="68" y="102" on="1"/>
        <pt x="82" y="116" on="0"/>
        <pt x="102" y="126" on="1"/>
        <pt x="123" y="135" on="0"/>
        <pt x="138" y="136" on="1"/>
        <pt x="148" y="136" on="0"/>
        <pt x="152" y="134" on="1"/>
        <pt x="164" y="128" on="0"/>
        <pt x="159" y="107" on="1"/>
        <pt x="152" y="74" on="0"/>
        <pt x="163" y="40" on="1"/>
        <pt x="177" y="-5" on="0"/>
        <pt x="221" y="-26" on="1"/>
        <pt x="261" y="-45" on="0"/>
        <pt x="298" y="-40" on="1"/>
        <pt x="337" y="-36" on="0"/>
        <pt x="373" y="0" on="1"/>
        <pt x="410" y="37" on="0"/>
        <pt x="431" y="88" on="1"/>
        <pt x="436" y="102" on="0"/>
        <pt x="453" y="171" on="1"/>
        <pt x="482" y="282" on="0"/>
        <pt x="500" y="339" on="1"/>
        <pt x="557" y="517" on="0"/>
        <pt x="632" y="595" on="1"/>
        <pt x="641" y="605" on="1"/>
        <pt x="582" y="605" on="1"/>
        <pt x="516" y="604" on="0"/>
        <pt x="492" y="598" on="1"/>
        <pt x="436" y="583" on="0"/>
        <pt x="398" y="538" on="1"/>
        <pt x="374" y="510" on="0"/>
        <pt x="362" y="468" on="1"/>
        <pt x="356" y="448" on="0"/>
        <pt x="330" y="430" on="1"/>
        <pt x="301" y="410" on="0"/>
        <pt x="273" y="410" on="1"/>
        <pt x="265" y="410" on="0"/>
        <pt x="261" y="413" on="1"/>
        <pt x="251" y="419" on="0"/>
        <pt x="255" y="437" on="1"/>
        <pt x="256" y="441" on="0"/>
        <pt x="259" y="449" on="1"/>
        <pt x="282" y="519" on="0"/>
        <pt x="346" y="575" on="1"/>
        <pt x="445" y="664" on="0"/>
        <pt x="569" y="680" on="1"/>
        <pt x="575" y="680" on="0"/>
      </contour>
    </TTGlyph>
    <TTGlyph name="K" xMin="32" yMin="-22" xMax="732" yMax="705">
      <contour>
        <pt x="270" y="704" on="1"/>
        <pt x="282" y="705" on="1"/>
        <pt x="283" y="705" on="1"/>
        <pt x="291" y="705" on="0"/>
        <pt x="296" y="702" on="1"/>
        <pt x="304" y="698" on="0"/>
        <pt x="303" y="681" on="1"/>
        <pt x="303" y="678" on="0"/>
        <pt x="303" y="673" on="1"/>
        <pt x="295" y="504" on="0"/>
        <pt x="224" y="272" on="1"/>
        <pt x="223" y="270" on="0"/>
        <pt x="222" y="267" on="1"/>
        <pt x="180" y="128" on="0"/>
        <pt x="141" y="36" on="1"/>
        <pt x="138" y="27" on="0"/>
        <pt x="136" y="24" on="1"/>
        <pt x="123" y="3" on="0"/>
        <pt x="94" y="-11" on="1"/>
        <pt x="72" y="-22" on="0"/>
        <pt x="52" y="-22" on="1"/>
        <pt x="44" y="-22" on="0"/>
        <pt x="40" y="-19" on="1"/>
        <pt x="32" y="-14" on="0"/>
        <pt x="32" y="-6" on="1"/>
        <pt x="32" y="-2" on="0"/>
        <pt x="43" y="25" on="1"/>
        <pt x="114" y="212" on="0"/>
        <pt x="158" y="389" on="1"/>
        <pt x="176" y="465" on="0"/>
        <pt x="187" y="543" on="1"/>
        <pt x="194" y="604" on="0"/>
        <pt x="192" y="604" on="1"/>
        <pt x="192" y="606" on="0"/>
        <pt x="173" y="596" on="1"/>
        <pt x="144" y="582" on="0"/>
        <pt x="127" y="581" on="1"/>
        <pt x="117" y="581" on="0"/>
        <pt x="113" y="584" on="1"/>
        <pt x="104" y="588" on="0"/>
        <pt x="104" y="598" on="1"/>
        <pt x="104" y="618" on="0"/>
        <pt x="139" y="641" on="1"/>
        <pt x="160" y="656" on="0"/>
        <pt x="248" y="696" on="1"/>
        <pt x="257" y="701" on="0"/>
        <pt x="259" y="701" on="1"/>
        <pt x="269" y="704" on="0"/>
      </contour>
      <contour>
        <pt x="644" y="704" on="1"/>
        <pt x="682" y="704" on="1"/>
        <pt x="693" y="701" on="0"/>
        <pt x="705" y="693" on="1"/>
        <pt x="732" y="674" on="0"/>
        <pt x="732" y="641" on="1"/>
        <pt x="732" y="616" on="0"/>
        <pt x="717" y="601" on="1"/>
        <pt x="709" y="594" on="0"/>
        <pt x="699" y="589" on="1"/>
        <pt x="683" y="581" on="0"/>
        <pt x="668" y="581" on="1"/>
        <pt x="661" y="581" on="0"/>
        <pt x="656" y="585" on="1"/>
        <pt x="647" y="591" on="0"/>
        <pt x="647" y="608" on="1"/>
        <pt x="647" y="621" on="0"/>
        <pt x="645" y="626" on="1"/>
        <pt x="641" y="633" on="0"/>
        <pt x="627" y="636" on="1"/>
        <pt x="621" y="638" on="0"/>
        <pt x="612" y="635" on="1"/>
        <pt x="573" y="623" on="0"/>
        <pt x="508" y="578" on="1"/>
        <pt x="405" y="511" on="0"/>
        <pt x="362" y="455" on="1"/>
        <pt x="348" y="436" on="0"/>
        <pt x="349" y="418" on="1"/>
        <pt x="349" y="414" on="0"/>
        <pt x="350" y="408" on="1"/>
        <pt x="363" y="309" on="0"/>
        <pt x="429" y="178" on="1"/>
        <pt x="455" y="127" on="0"/>
        <pt x="479" y="94" on="1"/>
        <pt x="519" y="42" on="0"/>
        <pt x="549" y="45" on="1"/>
        <pt x="625" y="53" on="0"/>
        <pt x="644" y="105" on="1"/>
        <pt x="647" y="118" on="0"/>
        <pt x="659" y="129" on="1"/>
        <pt x="680" y="148" on="0"/>
        <pt x="706" y="148" on="1"/>
        <pt x="714" y="148" on="0"/>
        <pt x="719" y="144" on="1"/>
        <pt x="728" y="138" on="0"/>
        <pt x="728" y="128" on="1"/>
        <pt x="728" y="110" on="0"/>
        <pt x="708" y="79" on="1"/>
        <pt x="668" y="19" on="0"/>
        <pt x="587" y="-8" on="1"/>
        <pt x="548" y="-21" on="0"/>
        <pt x="507" y="-22" on="1"/>
        <pt x="477" y="-22" on="0"/>
        <pt x="461" y="-12" on="1"/>
        <pt x="457" y="-9" on="0"/>
        <pt x="452" y="-6" on="1"/>
        <pt x="398" y="31" on="0"/>
        <pt x="345" y="142" on="1"/>
        <pt x="300" y="232" on="0"/>
        <pt x="276" y="323" on="1"/>
        <pt x="257" y="400" on="0"/>
        <pt x="271" y="431" on="1"/>
        <pt x="295" y="491" on="0"/>
        <pt x="422" y="587" on="1"/>
        <pt x="558" y="688" on="0"/>
        <pt x="637" y="703" on="1"/>
        <pt x="641" y="704" on="0"/>
      </contour>
    </TTGlyph>
    <TTGlyph name="L" xMin="26" yMin="-22" xMax="658" yMax="705">
      <contour>
        <pt x="504" y="703" on="1"/>
        <pt x="518" y="705" on="0"/>
        <pt x="535" y="705" on="1"/>
        <pt x="560" y="704" on="0"/>
        <pt x="575" y="697" on="1"/>
        <pt x="607" y="680" on="0"/>
        <pt x="616" y="640" on="1"/>
        <pt x="618" y="632" on="0"/>
        <pt x="618" y="613" on="1"/>
        <pt x="618" y="573" on="0"/>
        <pt x="608" y="557" on="1"/>
        <pt x="601" y="545" on="0"/>
        <pt x="577" y="528" on="1"/>
        <pt x="542" y="505" on="0"/>
        <pt x="513" y="505" on="1"/>
        <pt x="499" y="505" on="0"/>
        <pt x="495" y="512" on="1"/>
        <pt x="491" y="517" on="0"/>
        <pt x="495" y="531" on="1"/>
        <pt x="500" y="553" on="0"/>
        <pt x="496" y="580" on="1"/>
        <pt x="489" y="609" on="0"/>
        <pt x="455" y="625" on="0"/>
        <pt x="431" y="619" on="1"/>
        <pt x="422" y="618" on="0"/>
        <pt x="412" y="609" on="1"/>
        <pt x="381" y="582" on="0"/>
        <pt x="351" y="518" on="1"/>
        <pt x="310" y="433" on="0"/>
        <pt x="269" y="268" on="1"/>
        <pt x="243" y="163" on="0"/>
        <pt x="214" y="114" on="1"/>
        <pt x="210" y="107" on="1"/>
        <pt x="226" y="107" on="1"/>
        <pt x="280" y="107" on="0"/>
        <pt x="373" y="85" on="1"/>
        <pt x="462" y="63" on="0"/>
        <pt x="507" y="61" on="1"/>
        <pt x="520" y="61" on="1"/>
        <pt x="524" y="68" on="1"/>
        <pt x="531" y="77" on="0"/>
        <pt x="535" y="91" on="1"/>
        <pt x="540" y="105" on="0"/>
        <pt x="554" y="118" on="1"/>
        <pt x="590" y="154" on="0"/>
        <pt x="632" y="156" on="1"/>
        <pt x="643" y="156" on="0"/>
        <pt x="648" y="154" on="1"/>
        <pt x="658" y="148" on="0"/>
        <pt x="655" y="139" on="1"/>
        <pt x="651" y="118" on="0"/>
        <pt x="633" y="89" on="1"/>
        <pt x="614" y="60" on="0"/>
        <pt x="584" y="37" on="1"/>
        <pt x="539" y="0" on="0"/>
        <pt x="491" y="-13" on="1"/>
        <pt x="461" y="-22" on="0"/>
        <pt x="422" y="-22" on="1"/>
        <pt x="369" y="-21" on="0"/>
        <pt x="277" y="2" on="1"/>
        <pt x="195" y="21" on="0"/>
        <pt x="160" y="23" on="1"/>
        <pt x="145" y="24" on="1"/>
        <pt x="135" y="15" on="1"/>
        <pt x="118" y="1" on="0"/>
        <pt x="97" y="-10" on="1"/>
        <pt x="75" y="-21" on="0"/>
        <pt x="56" y="-22" on="1"/>
        <pt x="45" y="-22" on="0"/>
        <pt x="41" y="-20" on="1"/>
        <pt x="39" y="-19" on="0"/>
        <pt x="35" y="-15" on="1"/>
        <pt x="26" y="1" on="0"/>
        <pt x="64" y="37" on="1"/>
        <pt x="82" y="54" on="0"/>
        <pt x="95" y="76" on="1"/>
        <pt x="126" y="125" on="0"/>
        <pt x="149" y="222" on="1"/>
        <pt x="206" y="452" on="0"/>
        <pt x="272" y="549" on="1"/>
        <pt x="282" y="565" on="0"/>
        <pt x="294" y="579" on="1"/>
        <pt x="312" y="603" on="0"/>
        <pt x="349" y="635" on="1"/>
        <pt x="422" y="692" on="0"/>
      </contour>
    </TTGlyph>
    <TTGlyph name="M" xMin="30" yMin="-50" xMax="1156" yMax="705">
      <contour>
        <pt x="414" y="704" on="1"/>
        <pt x="427" y="705" on="1"/>
        <pt x="428" y="705" on="1"/>
        <pt x="436" y="705" on="0"/>
        <pt x="441" y="702" on="1"/>
        <pt x="446" y="697" on="0"/>
        <pt x="447" y="694" on="1"/>
        <pt x="450" y="689" on="0"/>
        <pt x="453" y="668" on="1"/>
        <pt x="487" y="484" on="0"/>
        <pt x="542" y="302" on="1"/>
        <pt x="568" y="217" on="0"/>
        <pt x="591" y="173" on="1"/>
        <pt x="596" y="163" on="1"/>
        <pt x="623" y="189" on="1"/>
        <pt x="686" y="250" on="0"/>
        <pt x="757" y="329" on="1"/>
        <pt x="1063" y="677" on="1"/>
        <pt x="1081" y="697" on="0"/>
        <pt x="1082" y="698" on="1"/>
        <pt x="1092" y="705" on="0"/>
        <pt x="1099" y="705" on="1"/>
        <pt x="1104" y="705" on="0"/>
        <pt x="1107" y="701" on="1"/>
        <pt x="1112" y="696" on="0"/>
        <pt x="1113" y="690" on="1"/>
        <pt x="1119" y="675" on="0"/>
        <pt x="1113" y="655" on="1"/>
        <pt x="1099" y="587" on="1"/>
        <pt x="1066" y="408" on="0"/>
        <pt x="1050" y="224" on="1"/>
        <pt x="1043" y="146" on="0"/>
        <pt x="1050" y="81" on="1"/>
        <pt x="1051" y="59" on="0"/>
        <pt x="1061" y="49" on="0"/>
        <pt x="1071" y="54" on="1"/>
        <pt x="1079" y="58" on="1"/>
        <pt x="1101" y="68" on="0"/>
        <pt x="1102" y="68" on="1"/>
        <pt x="1130" y="78" on="0"/>
        <pt x="1141" y="72" on="1"/>
        <pt x="1156" y="64" on="0"/>
        <pt x="1146" y="45" on="1"/>
        <pt x="1139" y="30" on="0"/>
        <pt x="1118" y="16" on="1"/>
        <pt x="1085" y="-6" on="0"/>
        <pt x="1043" y="-21" on="1"/>
        <pt x="1021" y="-28" on="0"/>
        <pt x="998" y="-28" on="1"/>
        <pt x="981" y="-28" on="1"/>
        <pt x="972" y="-24" on="1"/>
        <pt x="948" y="-12" on="0"/>
        <pt x="944" y="9" on="1"/>
        <pt x="934" y="43" on="0"/>
        <pt x="938" y="142" on="1"/>
        <pt x="945" y="264" on="0"/>
        <pt x="975" y="459" on="1"/>
        <pt x="978" y="472" on="0"/>
        <pt x="978" y="473" on="1"/>
        <pt x="949" y="440" on="1"/>
        <pt x="718" y="183" on="1"/>
        <pt x="638" y="97" on="0"/>
        <pt x="577" y="43" on="1"/>
        <pt x="571" y="38" on="0"/>
        <pt x="569" y="37" on="1"/>
        <pt x="566" y="36" on="0"/>
        <pt x="558" y="34" on="1"/>
        <pt x="552" y="34" on="0"/>
        <pt x="548" y="36" on="1"/>
        <pt x="541" y="41" on="0"/>
        <pt x="532" y="56" on="1"/>
        <pt x="497" y="111" on="0"/>
        <pt x="471" y="179" on="1"/>
        <pt x="434" y="275" on="0"/>
        <pt x="389" y="467" on="1"/>
        <pt x="383" y="490" on="1"/>
        <pt x="382" y="487" on="1"/>
        <pt x="381" y="483" on="0"/>
        <pt x="379" y="477" on="1"/>
        <pt x="367" y="422" on="0"/>
        <pt x="334" y="320" on="1"/>
        <pt x="283" y="169" on="0"/>
        <pt x="236" y="75" on="1"/>
        <pt x="180" y="-35" on="0"/>
        <pt x="131" y="-48" on="1"/>
        <pt x="124" y="-50" on="0"/>
        <pt x="112" y="-50" on="1"/>
        <pt x="92" y="-48" on="0"/>
        <pt x="76" y="-41" on="1"/>
        <pt x="47" y="-30" on="0"/>
        <pt x="34" y="-6" on="1"/>
        <pt x="31" y="-1" on="0"/>
        <pt x="30" y="12" on="1"/>
        <pt x="30" y="30" on="0"/>
        <pt x="35" y="47" on="1"/>
        <pt x="49" y="88" on="0"/>
        <pt x="71" y="98" on="1"/>
        <pt x="75" y="100" on="0"/>
        <pt x="85" y="100" on="0"/>
        <pt x="89" y="96" on="1"/>
        <pt x="100" y="82" on="0"/>
        <pt x="111" y="77" on="1"/>
        <pt x="128" y="69" on="0"/>
        <pt x="142" y="67" on="1"/>
        <pt x="152" y="66" on="1"/>
        <pt x="157" y="68" on="1"/>
        <pt x="180" y="79" on="0"/>
        <pt x="228" y="196" on="1"/>
        <pt x="288" y="345" on="0"/>
        <pt x="320" y="477" on="1"/>
        <pt x="343" y="575" on="0"/>
        <pt x="350" y="641" on="1"/>
        <pt x="353" y="657" on="1"/>
        <pt x="361" y="682" on="0"/>
        <pt x="397" y="698" on="1"/>
        <pt x="405" y="702" on="0"/>
      </contour>
    </TTGlyph>
    <TTGlyph name="N" xMin="-34" yMin="-52" xMax="984" yMax="799">
      <contour>
        <pt x="944" y="798" on="1"/>
        <pt x="946" y="799" on="0"/>
        <pt x="958" y="799" on="1"/>
        <pt x="969" y="799" on="0"/>
        <pt x="972" y="797" on="1"/>
        <pt x="984" y="789" on="0"/>
        <pt x="982" y="763" on="1"/>
        <pt x="978" y="721" on="0"/>
        <pt x="952" y="694" on="1"/>
        <pt x="947" y="688" on="0"/>
        <pt x="941" y="686" on="1"/>
        <pt x="935" y="683" on="0"/>
        <pt x="923" y="683" on="1"/>
        <pt x="883" y="680" on="0"/>
        <pt x="849" y="666" on="1"/>
        <pt x="818" y="652" on="0"/>
        <pt x="808" y="638" on="1"/>
        <pt x="801" y="625" on="0"/>
        <pt x="773" y="538" on="1"/>
        <pt x="705" y="319" on="0"/>
        <pt x="644" y="72" on="1"/>
        <pt x="631" y="19" on="1"/>
        <pt x="629" y="13" on="1"/>
        <pt x="624" y="-9" on="0"/>
        <pt x="591" y="-27" on="1"/>
        <pt x="589" y="-28" on="0"/>
        <pt x="587" y="-29" on="1"/>
        <pt x="570" y="-36" on="0"/>
        <pt x="554" y="-36" on="1"/>
        <pt x="541" y="-36" on="0"/>
        <pt x="533" y="-25" on="1"/>
        <pt x="530" y="-21" on="0"/>
        <pt x="524" y="-12" on="1"/>
        <pt x="467" y="74" on="0"/>
        <pt x="425" y="177" on="1"/>
        <pt x="371" y="310" on="0"/>
        <pt x="313" y="490" on="1"/>
        <pt x="307" y="509" on="1"/>
        <pt x="300" y="476" on="1"/>
        <pt x="269" y="327" on="0"/>
        <pt x="222" y="185" on="1"/>
        <pt x="191" y="95" on="0"/>
        <pt x="168" y="49" on="1"/>
        <pt x="160" y="32" on="0"/>
        <pt x="151" y="18" on="1"/>
        <pt x="116" y="-40" on="0"/>
        <pt x="77" y="-49" on="1"/>
        <pt x="62" y="-52" on="0"/>
        <pt x="38" y="-47" on="1"/>
        <pt x="-1" y="-36" on="0"/>
        <pt x="-19" y="-10" on="1"/>
        <pt x="-20" y="-8" on="0"/>
        <pt x="-21" y="-6" on="1"/>
        <pt x="-34" y="20" on="0"/>
        <pt x="-12" y="64" on="1"/>
        <pt x="-4" y="81" on="0"/>
        <pt x="6" y="91" on="1"/>
        <pt x="15" y="100" on="0"/>
        <pt x="25" y="100" on="1"/>
        <pt x="31" y="100" on="0"/>
        <pt x="34" y="96" on="1"/>
        <pt x="48" y="82" on="0"/>
        <pt x="58" y="77" on="1"/>
        <pt x="78" y="67" on="0"/>
        <pt x="96" y="67" on="1"/>
        <pt x="104" y="67" on="0"/>
        <pt x="108" y="69" on="1"/>
        <pt x="116" y="74" on="0"/>
        <pt x="128" y="97" on="1"/>
        <pt x="148" y="136" on="0"/>
        <pt x="171" y="209" on="1"/>
        <pt x="239" y="417" on="0"/>
        <pt x="263" y="626" on="1"/>
        <pt x="267" y="655" on="0"/>
        <pt x="267" y="656" on="1"/>
        <pt x="272" y="677" on="0"/>
        <pt x="304" y="695" on="1"/>
        <pt x="313" y="700" on="0"/>
        <pt x="322" y="702" on="1"/>
        <pt x="340" y="705" on="1"/>
        <pt x="350" y="705" on="0"/>
        <pt x="354" y="702" on="1"/>
        <pt x="360" y="698" on="0"/>
        <pt x="360" y="697" on="1"/>
        <pt x="365" y="688" on="0"/>
        <pt x="370" y="666" on="1"/>
        <pt x="427" y="467" on="0"/>
        <pt x="501" y="276" on="1"/>
        <pt x="533" y="194" on="0"/>
        <pt x="557" y="146" on="1"/>
        <pt x="586" y="88" on="0"/>
        <pt x="589" y="88" on="1"/>
        <pt x="593" y="102" on="1"/>
        <pt x="608" y="166" on="0"/>
        <pt x="669" y="385" on="1"/>
        <pt x="745" y="646" on="0"/>
        <pt x="776" y="701" on="1"/>
        <pt x="786" y="719" on="0"/>
        <pt x="798" y="732" on="1"/>
        <pt x="858" y="792" on="0"/>
      </contour>
    </TTGlyph>
    <TTGlyph name="O" xMin="43" yMin="-22" xMax="779" yMax="707">
      <contour>
        <pt x="373" y="703" on="1"/>
        <pt x="381" y="705" on="0"/>
        <pt x="387" y="705" on="1"/>
        <pt x="395" y="705" on="0"/>
        <pt x="400" y="702" on="1"/>
        <pt x="408" y="697" on="0"/>
        <pt x="408" y="683" on="0"/>
        <pt x="402" y="673" on="1"/>
        <pt x="392" y="657" on="0"/>
        <pt x="361" y="638" on="1"/>
        <pt x="337" y="624" on="0"/>
        <pt x="313" y="605" on="1"/>
        <pt x="277" y="572" on="0"/>
        <pt x="260" y="552" on="1"/>
        <pt x="200" y="478" on="0"/>
        <pt x="179" y="393" on="1"/>
        <pt x="147" y="266" on="0"/>
        <pt x="192" y="166" on="1"/>
        <pt x="218" y="110" on="0"/>
        <pt x="266" y="82" on="1"/>
        <pt x="270" y="80" on="0"/>
        <pt x="273" y="78" on="1"/>
        <pt x="334" y="48" on="0"/>
        <pt x="398" y="59" on="1"/>
        <pt x="490" y="73" on="0"/>
        <pt x="564" y="157" on="1"/>
        <pt x="632" y="232" on="0"/>
        <pt x="656" y="334" on="1"/>
        <pt x="688" y="474" on="0"/>
        <pt x="640" y="561" on="1"/>
        <pt x="631" y="579" on="0"/>
        <pt x="618" y="592" on="1"/>
        <pt x="598" y="610" on="0"/>
        <pt x="571" y="620" on="1"/>
        <pt x="534" y="630" on="0"/>
        <pt x="509" y="625" on="1"/>
        <pt x="491" y="620" on="0"/>
        <pt x="467" y="596" on="1"/>
        <pt x="431" y="557" on="0"/>
        <pt x="400" y="488" on="1"/>
        <pt x="388" y="462" on="0"/>
        <pt x="375" y="450" on="1"/>
        <pt x="342" y="422" on="0"/>
        <pt x="308" y="422" on="1"/>
        <pt x="299" y="422" on="0"/>
        <pt x="295" y="425" on="1"/>
        <pt x="287" y="430" on="0"/>
        <pt x="287" y="440" on="1"/>
        <pt x="292" y="462" on="0"/>
        <pt x="324" y="519" on="1"/>
        <pt x="325" y="521" on="0"/>
        <pt x="326" y="523" on="1"/>
        <pt x="362" y="582" on="0"/>
        <pt x="399" y="616" on="1"/>
        <pt x="475" y="689" on="0"/>
        <pt x="564" y="703" on="1"/>
        <pt x="594" y="707" on="0"/>
        <pt x="631" y="703" on="1"/>
        <pt x="633" y="703" on="0"/>
        <pt x="635" y="703" on="1"/>
        <pt x="701" y="690" on="0"/>
        <pt x="738" y="636" on="1"/>
        <pt x="766" y="592" on="0"/>
        <pt x="775" y="524" on="1"/>
        <pt x="779" y="495" on="0"/>
        <pt x="776" y="444" on="1"/>
        <pt x="775" y="439" on="0"/>
        <pt x="775" y="436" on="1"/>
        <pt x="769" y="380" on="0"/>
        <pt x="755" y="338" on="1"/>
        <pt x="714" y="204" on="0"/>
        <pt x="601" y="105" on="1"/>
        <pt x="595" y="99" on="0"/>
        <pt x="588" y="94" on="1"/>
        <pt x="448" y="-22" on="0"/>
        <pt x="295" y="-22" on="1"/>
        <pt x="222" y="-22" on="0"/>
        <pt x="166" y="14" on="1"/>
        <pt x="84" y="66" on="0"/>
        <pt x="63" y="179" on="1"/>
        <pt x="43" y="282" on="0"/>
        <pt x="80" y="388" on="1"/>
        <pt x="98" y="443" on="0"/>
        <pt x="137" y="505" on="1"/>
        <pt x="205" y="605" on="0"/>
        <pt x="312" y="674" on="1"/>
        <pt x="353" y="699" on="0"/>
      </contour>
    </TTGlyph>
    <TTGlyph name="P" xMin="16" yMin="-61" xMax="742" yMax="682">
      <contour>
        <pt x="327" y="682" on="1"/>
        <pt x="518" y="682" on="1"/>
        <pt x="595" y="676" on="0"/>
        <pt x="646" y="649" on="1"/>
        <pt x="701" y="620" on="0"/>
        <pt x="721" y="577" on="1"/>
        <pt x="742" y="535" on="0"/>
        <pt x="727" y="479" on="1"/>
        <pt x="699" y="371" on="0"/>
        <pt x="580" y="290" on="1"/>
        <pt x="551" y="271" on="0"/>
        <pt x="519" y="255" on="1"/>
        <pt x="424" y="208" on="0"/>
        <pt x="324" y="205" on="1"/>
        <pt x="304" y="205" on="1"/>
        <pt x="299" y="208" on="1"/>
        <pt x="294" y="211" on="1"/>
        <pt x="283" y="177" on="1"/>
        <pt x="254" y="88" on="0"/>
        <pt x="220" y="5" on="1"/>
        <pt x="212" y="-16" on="0"/>
        <pt x="200" y="-29" on="1"/>
        <pt x="169" y="-58" on="0"/>
        <pt x="128" y="-61" on="1"/>
        <pt x="120" y="-61" on="0"/>
        <pt x="115" y="-58" on="1"/>
        <pt x="112" y="-56" on="0"/>
        <pt x="108" y="-51" on="1"/>
        <pt x="106" y="-45" on="0"/>
        <pt x="116" y="-20" on="1"/>
        <pt x="218" y="226" on="0"/>
        <pt x="258" y="486" on="1"/>
        <pt x="274" y="600" on="0"/>
        <pt x="272" y="604" on="1"/>
        <pt x="269" y="606" on="0"/>
        <pt x="232" y="599" on="1"/>
        <pt x="176" y="590" on="0"/>
        <pt x="151" y="568" on="1"/>
        <pt x="135" y="552" on="0"/>
        <pt x="127" y="527" on="1"/>
        <pt x="122" y="514" on="0"/>
        <pt x="112" y="501" on="1"/>
        <pt x="76" y="470" on="0"/>
        <pt x="36" y="466" on="1"/>
        <pt x="23" y="466" on="0"/>
        <pt x="19" y="475" on="1"/>
        <pt x="16" y="481" on="0"/>
        <pt x="21" y="498" on="1"/>
        <pt x="41" y="556" on="0"/>
        <pt x="97" y="599" on="1"/>
        <pt x="189" y="671" on="0"/>
      </contour>
      <contour>
        <pt x="435" y="604" on="1"/>
        <pt x="395" y="608" on="0"/>
        <pt x="377" y="604" on="1"/>
        <pt x="377" y="588" on="0"/>
        <pt x="367" y="528" on="1"/>
        <pt x="345" y="383" on="0"/>
        <pt x="307" y="255" on="1"/>
        <pt x="305" y="248" on="1"/>
        <pt x="310" y="253" on="1"/>
        <pt x="336" y="277" on="0"/>
        <pt x="367" y="282" on="1"/>
        <pt x="371" y="283" on="0"/>
        <pt x="382" y="283" on="1"/>
        <pt x="397" y="283" on="0"/>
        <pt x="427" y="287" on="1"/>
        <pt x="543" y="306" on="0"/>
        <pt x="596" y="391" on="1"/>
        <pt x="611" y="415" on="0"/>
        <pt x="618" y="442" on="1"/>
        <pt x="633" y="492" on="0"/>
        <pt x="607" y="531" on="1"/>
        <pt x="597" y="548" on="0"/>
        <pt x="575" y="564" on="1"/>
        <pt x="522" y="598" on="0"/>
      </contour>
    </TTGlyph>
    <TTGlyph name="Q" xMin="90" yMin="-137" xMax="792" yMax="704">
      <contour>
        <pt x="521" y="704" on="1"/>
        <pt x="592" y="703" on="1"/>
        <pt x="593" y="703" on="0"/>
        <pt x="594" y="703" on="1"/>
        <pt x="628" y="697" on="0"/>
        <pt x="655" y="683" on="1"/>
        <pt x="714" y="653" on="0"/>
        <pt x="747" y="589" on="1"/>
        <pt x="775" y="528" on="0"/>
        <pt x="774" y="449" on="1"/>
        <pt x="771" y="368" on="0"/>
        <pt x="742" y="303" on="1"/>
        <pt x="684" y="162" on="0"/>
        <pt x="535" y="64" on="1"/>
        <pt x="502" y="43" on="0"/>
        <pt x="467" y="25" on="1"/>
        <pt x="436" y="11" on="0"/>
        <pt x="408" y="0" on="1"/>
        <pt x="405" y="-1" on="0"/>
        <pt x="410" y="-3" on="1"/>
        <pt x="411" y="-3" on="0"/>
        <pt x="416" y="-5" on="1"/>
        <pt x="425" y="-8" on="0"/>
        <pt x="453" y="-18" on="1"/>
        <pt x="561" y="-57" on="0"/>
        <pt x="627" y="-57" on="1"/>
        <pt x="653" y="-58" on="0"/>
        <pt x="665" y="-45" on="1"/>
        <pt x="672" y="-38" on="0"/>
        <pt x="679" y="-20" on="1"/>
        <pt x="683" y="-6" on="0"/>
        <pt x="695" y="6" on="1"/>
        <pt x="730" y="39" on="0"/>
        <pt x="768" y="39" on="1"/>
        <pt x="776" y="39" on="0"/>
        <pt x="780" y="36" on="1"/>
        <pt x="792" y="30" on="0"/>
        <pt x="785" y="10" on="1"/>
        <pt x="764" y="-54" on="0"/>
        <pt x="689" y="-99" on="1"/>
        <pt x="669" y="-111" on="0"/>
        <pt x="648" y="-119" on="1"/>
        <pt x="600" y="-137" on="0"/>
        <pt x="550" y="-136" on="1"/>
        <pt x="479" y="-134" on="0"/>
        <pt x="376" y="-98" on="1"/>
        <pt x="362" y="-93" on="0"/>
        <pt x="344" y="-87" on="1"/>
        <pt x="224" y="-43" on="0"/>
        <pt x="151" y="-39" on="1"/>
        <pt x="135" y="-39" on="0"/>
        <pt x="131" y="-36" on="1"/>
        <pt x="123" y="-32" on="0"/>
        <pt x="123" y="-22" on="1"/>
        <pt x="123" y="0" on="0"/>
        <pt x="162" y="24" on="1"/>
        <pt x="178" y="33" on="0"/>
        <pt x="193" y="37" on="1"/>
        <pt x="195" y="38" on="0"/>
        <pt x="230" y="39" on="1"/>
        <pt x="318" y="42" on="0"/>
        <pt x="371" y="54" on="1"/>
        <pt x="459" y="73" on="0"/>
        <pt x="529" y="131" on="1"/>
        <pt x="551" y="149" on="0"/>
        <pt x="579" y="180" on="1"/>
        <pt x="633" y="246" on="0"/>
        <pt x="652" y="320" on="1"/>
        <pt x="687" y="449" on="0"/>
        <pt x="634" y="541" on="1"/>
        <pt x="626" y="556" on="0"/>
        <pt x="615" y="569" on="1"/>
        <pt x="577" y="615" on="0"/>
        <pt x="511" y="625" on="1"/>
        <pt x="482" y="629" on="0"/>
        <pt x="454" y="625" on="1"/>
        <pt x="379" y="612" on="0"/>
        <pt x="318" y="551" on="1"/>
        <pt x="278" y="508" on="0"/>
        <pt x="253" y="457" on="1"/>
        <pt x="202" y="350" on="0"/>
        <pt x="236" y="263" on="1"/>
        <pt x="238" y="259" on="0"/>
        <pt x="240" y="254" on="1"/>
        <pt x="261" y="212" on="0"/>
        <pt x="294" y="196" on="1"/>
        <pt x="316" y="184" on="0"/>
        <pt x="348" y="181" on="1"/>
        <pt x="392" y="176" on="0"/>
        <pt x="447" y="197" on="1"/>
        <pt x="481" y="210" on="0"/>
        <pt x="496" y="210" on="1"/>
        <pt x="502" y="210" on="0"/>
        <pt x="507" y="207" on="1"/>
        <pt x="519" y="199" on="0"/>
        <pt x="511" y="181" on="1"/>
        <pt x="509" y="176" on="0"/>
        <pt x="499" y="166" on="1"/>
        <pt x="484" y="150" on="0"/>
        <pt x="454" y="137" on="1"/>
        <pt x="376" y="105" on="0"/>
        <pt x="297" y="102" on="1"/>
        <pt x="243" y="101" on="0"/>
        <pt x="205" y="121" on="1"/>
        <pt x="158" y="145" on="0"/>
        <pt x="134" y="195" on="1"/>
        <pt x="90" y="287" on="0"/>
        <pt x="140" y="411" on="1"/>
        <pt x="161" y="463" on="0"/>
        <pt x="196" y="510" on="1"/>
        <pt x="286" y="630" on="0"/>
        <pt x="424" y="681" on="1"/>
        <pt x="473" y="699" on="0"/>
      </contour>
    </TTGlyph>
    <TTGlyph name="R" xMin="16" yMin="-22" xMax="853" yMax="682">
      <contour>
        <pt x="327" y="682" on="1"/>
        <pt x="519" y="682" on="1"/>
        <pt x="575" y="679" on="0"/>
        <pt x="612" y="672" on="1"/>
        <pt x="682" y="658" on="0"/>
        <pt x="711" y="619" on="1"/>
        <pt x="722" y="605" on="0"/>
        <pt x="734" y="563" on="0"/>
        <pt x="730" y="539" on="1"/>
        <pt x="716" y="430" on="0"/>
        <pt x="602" y="351" on="1"/>
        <pt x="570" y="328" on="0"/>
        <pt x="525" y="308" on="1"/>
        <pt x="512" y="302" on="1"/>
        <pt x="517" y="294" on="1"/>
        <pt x="533" y="269" on="0"/>
        <pt x="564" y="192" on="1"/>
        <pt x="597" y="107" on="0"/>
        <pt x="618" y="81" on="1"/>
        <pt x="632" y="61" on="0"/>
        <pt x="651" y="57" on="1"/>
        <pt x="679" y="52" on="0"/>
        <pt x="708" y="72" on="1"/>
        <pt x="722" y="82" on="0"/>
        <pt x="735" y="98" on="1"/>
        <pt x="752" y="117" on="0"/>
        <pt x="767" y="126" on="1"/>
        <pt x="794" y="141" on="0"/>
        <pt x="816" y="141" on="1"/>
        <pt x="826" y="141" on="0"/>
        <pt x="829" y="139" on="1"/>
        <pt x="853" y="125" on="0"/>
        <pt x="801" y="74" on="1"/>
        <pt x="721" y="-6" on="0"/>
        <pt x="619" y="-20" on="1"/>
        <pt x="603" y="-22" on="0"/>
        <pt x="588" y="-22" on="1"/>
        <pt x="567" y="-22" on="0"/>
        <pt x="553" y="-15" on="1"/>
        <pt x="523" y="-1" on="0"/>
        <pt x="500" y="38" on="1"/>
        <pt x="481" y="69" on="0"/>
        <pt x="456" y="136" on="1"/>
        <pt x="427" y="211" on="0"/>
        <pt x="408" y="238" on="1"/>
        <pt x="392" y="262" on="0"/>
        <pt x="380" y="268" on="1"/>
        <pt x="365" y="273" on="0"/>
        <pt x="359" y="273" on="1"/>
        <pt x="349" y="273" on="0"/>
        <pt x="344" y="283" on="1"/>
        <pt x="339" y="297" on="0"/>
        <pt x="359" y="317" on="1"/>
        <pt x="373" y="331" on="0"/>
        <pt x="393" y="341" on="1"/>
        <pt x="413" y="350" on="0"/>
        <pt x="437" y="351" on="1"/>
        <pt x="489" y="354" on="0"/>
        <pt x="532" y="373" on="1"/>
        <pt x="592" y="402" on="0"/>
        <pt x="613" y="464" on="1"/>
        <pt x="621" y="488" on="0"/>
        <pt x="621" y="530" on="0"/>
        <pt x="614" y="544" on="1"/>
        <pt x="601" y="572" on="0"/>
        <pt x="556" y="587" on="1"/>
        <pt x="501" y="605" on="0"/>
        <pt x="396" y="605" on="1"/>
        <pt x="378" y="605" on="0"/>
        <pt x="378" y="603" on="1"/>
        <pt x="374" y="575" on="1"/>
        <pt x="345" y="333" on="0"/>
        <pt x="248" y="90" on="1"/>
        <pt x="222" y="23" on="0"/>
        <pt x="211" y="13" on="1"/>
        <pt x="209" y="11" on="0"/>
        <pt x="206" y="8" on="1"/>
        <pt x="173" y="-22" on="0"/>
        <pt x="137" y="-22" on="1"/>
        <pt x="129" y="-22" on="0"/>
        <pt x="125" y="-19" on="1"/>
        <pt x="117" y="-14" on="0"/>
        <pt x="117" y="-6" on="1"/>
        <pt x="117" y="-3" on="0"/>
        <pt x="122" y="9" on="1"/>
        <pt x="145" y="64" on="0"/>
        <pt x="160" y="105" on="1"/>
        <pt x="233" y="304" on="0"/>
        <pt x="260" y="499" on="1"/>
        <pt x="275" y="598" on="0"/>
        <pt x="272" y="604" on="1"/>
        <pt x="269" y="606" on="0"/>
        <pt x="232" y="599" on="1"/>
        <pt x="176" y="590" on="0"/>
        <pt x="151" y="568" on="1"/>
        <pt x="135" y="552" on="0"/>
        <pt x="127" y="527" on="1"/>
        <pt x="122" y="514" on="0"/>
        <pt x="112" y="501" on="1"/>
        <pt x="76" y="470" on="0"/>
        <pt x="36" y="466" on="1"/>
        <pt x="23" y="466" on="0"/>
        <pt x="19" y="475" on="1"/>
        <pt x="16" y="481" on="0"/>
        <pt x="21" y="498" on="1"/>
        <pt x="41" y="556" on="0"/>
        <pt x="97" y="599" on="1"/>
        <pt x="189" y="671" on="0"/>
      </contour>
    </TTGlyph>
    <TTGlyph name="S" xMin="5" yMin="-22" xMax="650" yMax="709">
      <contour>
        <pt x="449" y="703" on="1"/>
        <pt x="485" y="709" on="0"/>
        <pt x="527" y="702" on="1"/>
        <pt x="565" y="696" on="0"/>
        <pt x="594" y="682" on="1"/>
        <pt x="620" y="669" on="0"/>
        <pt x="628" y="656" on="1"/>
        <pt x="650" y="623" on="0"/>
        <pt x="637" y="571" on="1"/>
        <pt x="632" y="554" on="0"/>
        <pt x="620" y="541" on="1"/>
        <pt x="607" y="529" on="0"/>
        <pt x="588" y="519" on="1"/>
        <pt x="566" y="507" on="0"/>
        <pt x="544" y="507" on="1"/>
        <pt x="533" y="507" on="0"/>
        <pt x="528" y="516" on="1"/>
        <pt x="525" y="521" on="0"/>
        <pt x="529" y="538" on="1"/>
        <pt x="540" y="575" on="0"/>
        <pt x="521" y="596" on="1"/>
        <pt x="504" y="616" on="0"/>
        <pt x="437" y="625" on="1"/>
        <pt x="428" y="626" on="0"/>
        <pt x="419" y="627" on="1"/>
        <pt x="374" y="629" on="0"/>
        <pt x="340" y="609" on="1"/>
        <pt x="312" y="592" on="0"/>
        <pt x="301" y="553" on="1"/>
        <pt x="296" y="530" on="0"/>
        <pt x="301" y="508" on="1"/>
        <pt x="309" y="480" on="0"/>
        <pt x="331" y="458" on="1"/>
        <pt x="356" y="435" on="0"/>
        <pt x="415" y="405" on="1"/>
        <pt x="463" y="381" on="0"/>
        <pt x="488" y="365" on="1"/>
        <pt x="560" y="318" on="0"/>
        <pt x="573" y="259" on="1"/>
        <pt x="577" y="231" on="0"/>
        <pt x="572" y="204" on="1"/>
        <pt x="565" y="169" on="0"/>
        <pt x="542" y="133" on="1"/>
        <pt x="482" y="43" on="0"/>
        <pt x="357" y="1" on="1"/>
        <pt x="326" y="-9" on="0"/>
        <pt x="294" y="-15" on="1"/>
        <pt x="263" y="-21" on="0"/>
        <pt x="221" y="-21" on="1"/>
        <pt x="188" y="-22" on="0"/>
        <pt x="164" y="-17" on="1"/>
        <pt x="85" y="0" on="0"/>
        <pt x="38" y="61" on="1"/>
        <pt x="5" y="107" on="0"/>
        <pt x="26" y="168" on="1"/>
        <pt x="43" y="221" on="0"/>
        <pt x="87" y="251" on="1"/>
        <pt x="123" y="275" on="0"/>
        <pt x="162" y="278" on="1"/>
        <pt x="174" y="278" on="0"/>
        <pt x="178" y="276" on="1"/>
        <pt x="192" y="268" on="0"/>
        <pt x="183" y="250" on="1"/>
        <pt x="173" y="228" on="0"/>
        <pt x="141" y="212" on="1"/>
        <pt x="135" y="209" on="1"/>
        <pt x="132" y="199" on="1"/>
        <pt x="125" y="177" on="0"/>
        <pt x="128" y="161" on="1"/>
        <pt x="129" y="145" on="0"/>
        <pt x="138" y="130" on="1"/>
        <pt x="162" y="95" on="0"/>
        <pt x="199" y="77" on="1"/>
        <pt x="262" y="48" on="0"/>
        <pt x="336" y="60" on="1"/>
        <pt x="441" y="79" on="0"/>
        <pt x="462" y="160" on="1"/>
        <pt x="477" y="217" on="0"/>
        <pt x="431" y="264" on="1"/>
        <pt x="399" y="295" on="0"/>
        <pt x="329" y="329" on="1"/>
        <pt x="286" y="351" on="0"/>
        <pt x="285" y="351" on="1"/>
        <pt x="186" y="409" on="0"/>
        <pt x="189" y="488" on="1"/>
        <pt x="190" y="518" on="0"/>
        <pt x="206" y="551" on="1"/>
        <pt x="242" y="623" on="0"/>
        <pt x="334" y="669" on="1"/>
        <pt x="392" y="697" on="0"/>
      </contour>
    </TTGlyph>
    <TTGlyph name="T" xMin="32" yMin="-71" xMax="837" yMax="720">
      <contour>
        <pt x="793" y="715" on="1"/>
        <pt x="814" y="720" on="0"/>
        <pt x="824" y="715" on="1"/>
        <pt x="837" y="709" on="0"/>
        <pt x="828" y="689" on="1"/>
        <pt x="811" y="649" on="0"/>
        <pt x="753" y="621" on="1"/>
        <pt x="734" y="612" on="0"/>
        <pt x="716" y="607" on="1"/>
        <pt x="690" y="601" on="0"/>
        <pt x="615" y="600" on="1"/>
        <pt x="587" y="600" on="1"/>
        <pt x="492" y="600" on="1"/>
        <pt x="438" y="387" on="1"/>
        <pt x="381" y="158" on="1"/>
        <pt x="364" y="99" on="0"/>
        <pt x="342" y="47" on="1"/>
        <pt x="322" y="-2" on="0"/>
        <pt x="316" y="-14" on="1"/>
        <pt x="297" y="-44" on="0"/>
        <pt x="251" y="-62" on="1"/>
        <pt x="244" y="-64" on="0"/>
        <pt x="238" y="-66" on="1"/>
        <pt x="216" y="-71" on="0"/>
        <pt x="207" y="-66" on="1"/>
        <pt x="199" y="-62" on="0"/>
        <pt x="199" y="-53" on="1"/>
        <pt x="200" y="-50" on="0"/>
        <pt x="210" y="-26" on="1"/>
        <pt x="245" y="52" on="0"/>
        <pt x="264" y="125" on="1"/>
        <pt x="271" y="146" on="0"/>
        <pt x="323" y="361" on="1"/>
        <pt x="377" y="576" on="0"/>
        <pt x="381" y="585" on="1"/>
        <pt x="382" y="590" on="0"/>
        <pt x="388" y="595" on="1"/>
        <pt x="392" y="600" on="1"/>
        <pt x="293" y="600" on="1"/>
        <pt x="193" y="599" on="0"/>
        <pt x="188" y="598" on="1"/>
        <pt x="177" y="594" on="0"/>
        <pt x="169" y="585" on="1"/>
        <pt x="155" y="565" on="0"/>
        <pt x="155" y="542" on="1"/>
        <pt x="155" y="536" on="0"/>
        <pt x="151" y="528" on="1"/>
        <pt x="149" y="523" on="0"/>
        <pt x="138" y="510" on="1"/>
        <pt x="114" y="487" on="0"/>
        <pt x="80" y="475" on="1"/>
        <pt x="72" y="472" on="0"/>
        <pt x="58" y="471" on="1"/>
        <pt x="45" y="471" on="0"/>
        <pt x="42" y="473" on="1"/>
        <pt x="32" y="478" on="0"/>
        <pt x="35" y="503" on="1"/>
        <pt x="45" y="568" on="0"/>
        <pt x="121" y="623" on="1"/>
        <pt x="143" y="639" on="0"/>
        <pt x="169" y="652" on="1"/>
        <pt x="214" y="675" on="0"/>
        <pt x="260" y="681" on="1"/>
        <pt x="271" y="683" on="0"/>
        <pt x="503" y="683" on="1"/>
        <pt x="733" y="683" on="1"/>
        <pt x="742" y="689" on="1"/>
        <pt x="764" y="706" on="0"/>
      </contour>
    </TTGlyph>
    <TTGlyph name="U" xMin="-17" yMin="-27" xMax="687" yMax="685">
      <contour>
        <pt x="171" y="681" on="1"/>
        <pt x="201" y="685" on="0"/>
        <pt x="217" y="681" on="1"/>
        <pt x="227" y="680" on="0"/>
        <pt x="240" y="669" on="1"/>
        <pt x="263" y="646" on="0"/>
        <pt x="248" y="584" on="1"/>
        <pt x="236" y="534" on="0"/>
        <pt x="181" y="410" on="1"/>
        <pt x="134" y="304" on="0"/>
        <pt x="116" y="250" on="1"/>
        <pt x="91" y="178" on="0"/>
        <pt x="95" y="132" on="1"/>
        <pt x="99" y="94" on="0"/>
        <pt x="118" y="72" on="1"/>
        <pt x="131" y="59" on="0"/>
        <pt x="156" y="56" on="1"/>
        <pt x="186" y="55" on="0"/>
        <pt x="248" y="106" on="1"/>
        <pt x="293" y="147" on="0"/>
        <pt x="338" y="200" on="1"/>
        <pt x="448" y="331" on="0"/>
        <pt x="523" y="486" on="1"/>
        <pt x="540" y="520" on="0"/>
        <pt x="552" y="554" on="1"/>
        <pt x="577" y="623" on="0"/>
        <pt x="582" y="635" on="1"/>
        <pt x="590" y="649" on="0"/>
        <pt x="610" y="663" on="1"/>
        <pt x="625" y="674" on="0"/>
        <pt x="646" y="680" on="1"/>
        <pt x="664" y="683" on="1"/>
        <pt x="674" y="683" on="0"/>
        <pt x="678" y="681" on="1"/>
        <pt x="687" y="675" on="0"/>
        <pt x="687" y="667" on="1"/>
        <pt x="687" y="648" on="0"/>
        <pt x="651" y="561" on="1"/>
        <pt x="632" y="514" on="0"/>
        <pt x="601" y="410" on="1"/>
        <pt x="553" y="251" on="0"/>
        <pt x="538" y="177" on="1"/>
        <pt x="521" y="99" on="0"/>
        <pt x="524" y="61" on="1"/>
        <pt x="524" y="54" on="0"/>
        <pt x="529" y="52" on="1"/>
        <pt x="528" y="52" on="0"/>
        <pt x="548" y="60" on="1"/>
        <pt x="572" y="73" on="0"/>
        <pt x="591" y="74" on="1"/>
        <pt x="601" y="74" on="0"/>
        <pt x="606" y="72" on="1"/>
        <pt x="618" y="64" on="0"/>
        <pt x="611" y="46" on="1"/>
        <pt x="603" y="32" on="0"/>
        <pt x="583" y="17" on="1"/>
        <pt x="559" y="0" on="0"/>
        <pt x="513" y="-19" on="1"/>
        <pt x="510" y="-20" on="0"/>
        <pt x="508" y="-21" on="1"/>
        <pt x="486" y="-27" on="0"/>
        <pt x="466" y="-27" on="1"/>
        <pt x="449" y="-27" on="1"/>
        <pt x="441" y="-23" on="1"/>
        <pt x="418" y="-13" on="0"/>
        <pt x="415" y="9" on="1"/>
        <pt x="409" y="39" on="0"/>
        <pt x="427" y="127" on="1"/>
        <pt x="427" y="131" on="0"/>
        <pt x="428" y="134" on="1"/>
        <pt x="442" y="194" on="0"/>
        <pt x="449" y="220" on="1"/>
        <pt x="453" y="232" on="0"/>
        <pt x="453" y="233" on="1"/>
        <pt x="438" y="216" on="1"/>
        <pt x="317" y="66" on="0"/>
        <pt x="204" y="10" on="1"/>
        <pt x="147" y="-19" on="0"/>
        <pt x="94" y="-22" on="1"/>
        <pt x="63" y="-23" on="0"/>
        <pt x="39" y="-11" on="1"/>
        <pt x="12" y="5" on="0"/>
        <pt x="-1" y="32" on="1"/>
        <pt x="-9" y="48" on="0"/>
        <pt x="-13" y="72" on="1"/>
        <pt x="-17" y="90" on="0"/>
        <pt x="-14" y="126" on="1"/>
        <pt x="-13" y="131" on="0"/>
        <pt x="-13" y="133" on="1"/>
        <pt x="-8" y="165" on="0"/>
        <pt x="8" y="216" on="1"/>
        <pt x="31" y="280" on="0"/>
        <pt x="77" y="385" on="1"/>
        <pt x="118" y="478" on="0"/>
        <pt x="132" y="522" on="1"/>
        <pt x="155" y="594" on="0"/>
        <pt x="136" y="603" on="1"/>
        <pt x="125" y="607" on="0"/>
        <pt x="108" y="602" on="1"/>
        <pt x="99" y="600" on="0"/>
        <pt x="84" y="591" on="1"/>
        <pt x="54" y="571" on="0"/>
        <pt x="28" y="571" on="1"/>
        <pt x="13" y="571" on="0"/>
        <pt x="9" y="581" on="1"/>
        <pt x="5" y="587" on="0"/>
        <pt x="11" y="598" on="1"/>
        <pt x="18" y="614" on="0"/>
        <pt x="50" y="635" on="1"/>
        <pt x="109" y="675" on="0"/>
      </contour>
    </TTGlyph>
    <TTGlyph name="V" xMin="14" yMin="-58" xMax="667" yMax="686">
      <contour>
        <pt x="83" y="682" on="1"/>
        <pt x="100" y="686" on="0"/>
        <pt x="132" y="680" on="1"/>
        <pt x="160" y="675" on="0"/>
        <pt x="193" y="651" on="1"/>
        <pt x="278" y="587" on="0"/>
        <pt x="292" y="373" on="1"/>
        <pt x="297" y="298" on="0"/>
        <pt x="290" y="198" on="1"/>
        <pt x="288" y="145" on="0"/>
        <pt x="283" y="116" on="1"/>
        <pt x="283" y="112" on="1"/>
        <pt x="289" y="117" on="1"/>
        <pt x="456" y="261" on="0"/>
        <pt x="539" y="385" on="1"/>
        <pt x="577" y="443" on="0"/>
        <pt x="587" y="480" on="1"/>
        <pt x="592" y="498" on="0"/>
        <pt x="587" y="517" on="1"/>
        <pt x="577" y="544" on="0"/>
        <pt x="553" y="557" on="1"/>
        <pt x="536" y="565" on="0"/>
        <pt x="516" y="567" on="1"/>
        <pt x="508" y="567" on="0"/>
        <pt x="504" y="569" on="1"/>
        <pt x="492" y="577" on="0"/>
        <pt x="495" y="603" on="1"/>
        <pt x="498" y="646" on="0"/>
        <pt x="525" y="673" on="1"/>
        <pt x="531" y="678" on="0"/>
        <pt x="536" y="681" on="1"/>
        <pt x="541" y="683" on="0"/>
        <pt x="553" y="683" on="1"/>
        <pt x="583" y="682" on="0"/>
        <pt x="608" y="664" on="1"/>
        <pt x="636" y="645" on="0"/>
        <pt x="648" y="608" on="1"/>
        <pt x="667" y="554" on="0"/>
        <pt x="646" y="482" on="1"/>
        <pt x="602" y="317" on="0"/>
        <pt x="392" y="109" on="1"/>
        <pt x="294" y="13" on="0"/>
        <pt x="207" y="-50" on="1"/>
        <pt x="195" y="-58" on="0"/>
        <pt x="189" y="-58" on="1"/>
        <pt x="184" y="-58" on="0"/>
        <pt x="180" y="-54" on="1"/>
        <pt x="168" y="-42" on="0"/>
        <pt x="174" y="-6" on="1"/>
        <pt x="187" y="68" on="0"/>
        <pt x="192" y="159" on="1"/>
        <pt x="202" y="296" on="0"/>
        <pt x="186" y="409" on="1"/>
        <pt x="168" y="538" on="0"/>
        <pt x="111" y="585" on="1"/>
        <pt x="84" y="607" on="0"/>
        <pt x="42" y="610" on="1"/>
        <pt x="34" y="610" on="0"/>
        <pt x="27" y="614" on="1"/>
        <pt x="14" y="621" on="0"/>
        <pt x="22" y="640" on="1"/>
        <pt x="30" y="654" on="0"/>
        <pt x="43" y="664" on="1"/>
        <pt x="63" y="679" on="0"/>
      </contour>
    </TTGlyph>
    <TTGlyph name="W" xMin="17" yMin="-58" xMax="1040" yMax="684">
      <contour>
        <pt x="83" y="682" on="1"/>
        <pt x="104" y="684" on="0"/>
        <pt x="123" y="681" on="1"/>
        <pt x="147" y="679" on="0"/>
        <pt x="176" y="660" on="1"/>
        <pt x="209" y="639" on="0"/>
        <pt x="233" y="593" on="1"/>
        <pt x="292" y="470" on="0"/>
        <pt x="258" y="186" on="1"/>
        <pt x="256" y="164" on="1"/>
        <pt x="258" y="164" on="0"/>
        <pt x="305" y="228" on="1"/>
        <pt x="431" y="400" on="0"/>
        <pt x="532" y="591" on="1"/>
        <pt x="542" y="611" on="0"/>
        <pt x="542" y="610" on="1"/>
        <pt x="544" y="610" on="0"/>
        <pt x="540" y="619" on="1"/>
        <pt x="538" y="626" on="0"/>
        <pt x="539" y="632" on="1"/>
        <pt x="544" y="657" on="0"/>
        <pt x="580" y="674" on="1"/>
        <pt x="588" y="679" on="0"/>
        <pt x="597" y="681" on="1"/>
        <pt x="602" y="681" on="0"/>
        <pt x="612" y="683" on="1"/>
        <pt x="622" y="683" on="0"/>
        <pt x="627" y="680" on="1"/>
        <pt x="633" y="676" on="0"/>
        <pt x="644" y="643" on="1"/>
        <pt x="645" y="641" on="0"/>
        <pt x="646" y="638" on="1"/>
        <pt x="703" y="468" on="0"/>
        <pt x="729" y="280" on="1"/>
        <pt x="741" y="194" on="0"/>
        <pt x="744" y="141" on="1"/>
        <pt x="745" y="128" on="0"/>
        <pt x="747" y="126" on="0"/>
        <pt x="754" y="135" on="1"/>
        <pt x="756" y="137" on="0"/>
        <pt x="757" y="139" on="1"/>
        <pt x="893" y="311" on="0"/>
        <pt x="944" y="431" on="1"/>
        <pt x="975" y="504" on="0"/>
        <pt x="959" y="539" on="1"/>
        <pt x="945" y="564" on="0"/>
        <pt x="915" y="567" on="1"/>
        <pt x="904" y="567" on="0"/>
        <pt x="899" y="576" on="1"/>
        <pt x="888" y="596" on="0"/>
        <pt x="901" y="632" on="1"/>
        <pt x="915" y="671" on="0"/>
        <pt x="936" y="681" on="1"/>
        <pt x="941" y="683" on="0"/>
        <pt x="952" y="683" on="1"/>
        <pt x="1005" y="680" on="0"/>
        <pt x="1025" y="619" on="1"/>
        <pt x="1040" y="575" on="0"/>
        <pt x="1027" y="508" on="1"/>
        <pt x="993" y="334" on="0"/>
        <pt x="781" y="64" on="1"/>
        <pt x="772" y="53" on="0"/>
        <pt x="763" y="41" on="1"/>
        <pt x="698" y="-40" on="0"/>
        <pt x="684" y="-51" on="1"/>
        <pt x="675" y="-58" on="0"/>
        <pt x="667" y="-58" on="1"/>
        <pt x="662" y="-58" on="0"/>
        <pt x="659" y="-54" on="1"/>
        <pt x="651" y="-42" on="0"/>
        <pt x="651" y="-11" on="1"/>
        <pt x="645" y="222" on="0"/>
        <pt x="596" y="431" on="1"/>
        <pt x="580" y="501" on="0"/>
        <pt x="568" y="533" on="1"/>
        <pt x="568" y="535" on="0"/>
        <pt x="566" y="531" on="1"/>
        <pt x="563" y="526" on="0"/>
        <pt x="552" y="506" on="1"/>
        <pt x="430" y="279" on="0"/>
        <pt x="267" y="72" on="1"/>
        <pt x="201" y="-15" on="0"/>
        <pt x="168" y="-49" on="1"/>
        <pt x="158" y="-58" on="0"/>
        <pt x="149" y="-58" on="1"/>
        <pt x="144" y="-58" on="0"/>
        <pt x="140" y="-54" on="1"/>
        <pt x="132" y="-46" on="0"/>
        <pt x="133" y="-26" on="1"/>
        <pt x="133" y="-12" on="0"/>
        <pt x="135" y="-6" on="1"/>
        <pt x="149" y="51" on="0"/>
        <pt x="163" y="169" on="1"/>
        <pt x="172" y="249" on="0"/>
        <pt x="173" y="314" on="1"/>
        <pt x="175" y="465" on="0"/>
        <pt x="139" y="540" on="1"/>
        <pt x="109" y="600" on="0"/>
        <pt x="53" y="608" on="1"/>
        <pt x="41" y="610" on="0"/>
        <pt x="37" y="610" on="1"/>
        <pt x="25" y="610" on="0"/>
        <pt x="21" y="621" on="1"/>
        <pt x="17" y="628" on="0"/>
        <pt x="22" y="640" on="1"/>
        <pt x="30" y="654" on="0"/>
        <pt x="43" y="664" on="1"/>
        <pt x="63" y="679" on="0"/>
      </contour>
    </TTGlyph>
    <TTGlyph name="X" xMin="43" yMin="-2" xMax="814" yMax="683">
      <contour>
        <pt x="375" y="682" on="1"/>
        <pt x="425" y="682" on="1"/>
        <pt x="439" y="679" on="0"/>
        <pt x="453" y="669" on="1"/>
        <pt x="486" y="645" on="0"/>
        <pt x="493" y="576" on="1"/>
        <pt x="505" y="423" on="1"/>
        <pt x="505" y="422" on="0"/>
        <pt x="571" y="465" on="1"/>
        <pt x="657" y="521" on="0"/>
        <pt x="689" y="553" on="1"/>
        <pt x="696" y="561" on="0"/>
        <pt x="697" y="567" on="1"/>
        <pt x="700" y="586" on="0"/>
        <pt x="690" y="598" on="1"/>
        <pt x="683" y="605" on="0"/>
        <pt x="673" y="605" on="1"/>
        <pt x="665" y="605" on="0"/>
        <pt x="660" y="612" on="1"/>
        <pt x="657" y="615" on="0"/>
        <pt x="657" y="621" on="1"/>
        <pt x="657" y="641" on="0"/>
        <pt x="689" y="663" on="1"/>
        <pt x="718" y="683" on="0"/>
        <pt x="749" y="683" on="1"/>
        <pt x="767" y="683" on="0"/>
        <pt x="783" y="672" on="1"/>
        <pt x="814" y="652" on="0"/>
        <pt x="805" y="603" on="1"/>
        <pt x="795" y="553" on="0"/>
        <pt x="676" y="469" on="1"/>
        <pt x="626" y="432" on="0"/>
        <pt x="547" y="382" on="1"/>
        <pt x="510" y="360" on="0"/>
        <pt x="510" y="356" on="1"/>
        <pt x="525" y="159" on="1"/>
        <pt x="529" y="113" on="0"/>
        <pt x="546" y="92" on="1"/>
        <pt x="555" y="81" on="0"/>
        <pt x="575" y="78" on="1"/>
        <pt x="582" y="78" on="1"/>
        <pt x="588" y="84" on="1"/>
        <pt x="601" y="95" on="0"/>
        <pt x="620" y="105" on="1"/>
        <pt x="639" y="114" on="0"/>
        <pt x="656" y="115" on="1"/>
        <pt x="666" y="115" on="0"/>
        <pt x="670" y="112" on="1"/>
        <pt x="679" y="107" on="0"/>
        <pt x="679" y="98" on="1"/>
        <pt x="677" y="70" on="0"/>
        <pt x="644" y="43" on="1"/>
        <pt x="605" y="10" on="0"/>
        <pt x="552" y="2" on="1"/>
        <pt x="524" y="-2" on="0"/>
        <pt x="488" y="1" on="1"/>
        <pt x="484" y="2" on="0"/>
        <pt x="482" y="2" on="1"/>
        <pt x="466" y="6" on="0"/>
        <pt x="453" y="17" on="1"/>
        <pt x="429" y="36" on="0"/>
        <pt x="420" y="83" on="1"/>
        <pt x="414" y="112" on="0"/>
        <pt x="408" y="205" on="1"/>
        <pt x="402" y="290" on="0"/>
        <pt x="402" y="291" on="1"/>
        <pt x="399" y="291" on="0"/>
        <pt x="319" y="239" on="1"/>
        <pt x="202" y="163" on="0"/>
        <pt x="169" y="130" on="1"/>
        <pt x="162" y="122" on="0"/>
        <pt x="161" y="116" on="1"/>
        <pt x="158" y="97" on="0"/>
        <pt x="168" y="85" on="1"/>
        <pt x="172" y="81" on="0"/>
        <pt x="177" y="80" on="1"/>
        <pt x="185" y="78" on="0"/>
        <pt x="187" y="78" on="1"/>
        <pt x="196" y="78" on="0"/>
        <pt x="200" y="69" on="1"/>
        <pt x="209" y="54" on="0"/>
        <pt x="182" y="29" on="1"/>
        <pt x="156" y="6" on="0"/>
        <pt x="126" y="1" on="1"/>
        <pt x="105" y="-1" on="0"/>
        <pt x="94" y="2" on="1"/>
        <pt x="82" y="5" on="0"/>
        <pt x="67" y="18" on="1"/>
        <pt x="43" y="42" on="0"/>
        <pt x="54" y="83" on="1"/>
        <pt x="56" y="91" on="0"/>
        <pt x="59" y="98" on="1"/>
        <pt x="83" y="147" on="0"/>
        <pt x="197" y="225" on="1"/>
        <pt x="264" y="273" on="0"/>
        <pt x="375" y="341" on="1"/>
        <pt x="397" y="354" on="0"/>
        <pt x="397" y="357" on="1"/>
        <pt x="384" y="525" on="1"/>
        <pt x="376" y="594" on="0"/>
        <pt x="347" y="603" on="1"/>
        <pt x="326" y="606" on="0"/>
        <pt x="326" y="604" on="1"/>
        <pt x="318" y="597" on="1"/>
        <pt x="288" y="570" on="0"/>
        <pt x="254" y="568" on="1"/>
        <pt x="243" y="568" on="0"/>
        <pt x="238" y="571" on="1"/>
        <pt x="234" y="573" on="0"/>
        <pt x="231" y="579" on="1"/>
        <pt x="230" y="583" on="0"/>
        <pt x="231" y="590" on="1"/>
        <pt x="240" y="624" on="0"/>
        <pt x="282" y="652" on="1"/>
        <pt x="319" y="678" on="0"/>
      </contour>
    </TTGlyph>
    <TTGlyph name="Y" xMin="26" yMin="-152" xMax="714" yMax="685">
      <contour>
        <pt x="188" y="682" on="1"/>
        <pt x="217" y="685" on="0"/>
        <pt x="242" y="680" on="1"/>
        <pt x="269" y="675" on="0"/>
        <pt x="300" y="655" on="1"/>
        <pt x="395" y="590" on="0"/>
        <pt x="422" y="379" on="1"/>
        <pt x="430" y="304" on="0"/>
        <pt x="430" y="206" on="1"/>
        <pt x="430" y="170" on="0"/>
        <pt x="431" y="141" on="1"/>
        <pt x="444" y="155" on="1"/>
        <pt x="602" y="330" on="0"/>
        <pt x="645" y="485" on="1"/>
        <pt x="654" y="518" on="0"/>
        <pt x="642" y="544" on="1"/>
        <pt x="633" y="563" on="0"/>
        <pt x="614" y="572" on="1"/>
        <pt x="599" y="580" on="0"/>
        <pt x="579" y="582" on="1"/>
        <pt x="566" y="582" on="0"/>
        <pt x="561" y="593" on="1"/>
        <pt x="549" y="619" on="0"/>
        <pt x="570" y="657" on="1"/>
        <pt x="580" y="675" on="0"/>
        <pt x="593" y="681" on="1"/>
        <pt x="598" y="683" on="0"/>
        <pt x="611" y="683" on="1"/>
        <pt x="634" y="681" on="0"/>
        <pt x="648" y="675" on="1"/>
        <pt x="709" y="646" on="0"/>
        <pt x="714" y="564" on="1"/>
        <pt x="714" y="555" on="0"/>
        <pt x="714" y="546" on="1"/>
        <pt x="713" y="519" on="0"/>
        <pt x="705" y="490" on="1"/>
        <pt x="657" y="300" on="0"/>
        <pt x="481" y="99" on="1"/>
        <pt x="450" y="64" on="0"/>
        <pt x="417" y="31" on="1"/>
        <pt x="288" y="-98" on="0"/>
        <pt x="199" y="-136" on="1"/>
        <pt x="184" y="-143" on="0"/>
        <pt x="172" y="-145" on="1"/>
        <pt x="145" y="-152" on="0"/>
        <pt x="114" y="-141" on="1"/>
        <pt x="67" y="-125" on="0"/>
        <pt x="44" y="-78" on="1"/>
        <pt x="26" y="-39" on="0"/>
        <pt x="33" y="-4" on="1"/>
        <pt x="41" y="34" on="0"/>
        <pt x="65" y="48" on="1"/>
        <pt x="90" y="62" on="0"/>
        <pt x="95" y="24" on="1"/>
        <pt x="97" y="14" on="0"/>
        <pt x="97" y="10" on="1"/>
        <pt x="103" y="-11" on="0"/>
        <pt x="122" y="-26" on="1"/>
        <pt x="143" y="-42" on="0"/>
        <pt x="173" y="-45" on="1"/>
        <pt x="183" y="-46" on="0"/>
        <pt x="190" y="-45" on="1"/>
        <pt x="233" y="-35" on="0"/>
        <pt x="317" y="34" on="1"/>
        <pt x="329" y="44" on="1"/>
        <pt x="329" y="50" on="1"/>
        <pt x="336" y="126" on="0"/>
        <pt x="332" y="238" on="1"/>
        <pt x="331" y="247" on="0"/>
        <pt x="331" y="253" on="1"/>
        <pt x="319" y="450" on="0"/>
        <pt x="264" y="540" on="1"/>
        <pt x="225" y="600" on="0"/>
        <pt x="161" y="609" on="1"/>
        <pt x="153" y="610" on="1"/>
        <pt x="146" y="603" on="1"/>
        <pt x="135" y="592" on="0"/>
        <pt x="119" y="584" on="1"/>
        <pt x="104" y="577" on="0"/>
        <pt x="88" y="576" on="1"/>
        <pt x="78" y="576" on="1"/>
        <pt x="73" y="579" on="1"/>
        <pt x="52" y="593" on="0"/>
        <pt x="85" y="628" on="1"/>
        <pt x="129" y="674" on="0"/>
      </contour>
    </TTGlyph>
    <TTGlyph name="Z" xMin="38" yMin="-4" xMax="765" yMax="684">
      <contour>
        <pt x="437" y="682" on="1"/>
        <pt x="441" y="684" on="0"/>
        <pt x="473" y="682" on="1"/>
        <pt x="510" y="682" on="0"/>
        <pt x="580" y="674" on="1"/>
        <pt x="643" y="667" on="0"/>
        <pt x="675" y="667" on="1"/>
        <pt x="693" y="667" on="1"/>
        <pt x="703" y="672" on="1"/>
        <pt x="724" y="682" on="0"/>
        <pt x="742" y="683" on="1"/>
        <pt x="753" y="683" on="0"/>
        <pt x="757" y="681" on="1"/>
        <pt x="765" y="677" on="0"/>
        <pt x="765" y="669" on="1"/>
        <pt x="765" y="659" on="0"/>
        <pt x="740" y="628" on="1"/>
        <pt x="735" y="622" on="0"/>
        <pt x="724" y="609" on="1"/>
        <pt x="655" y="526" on="0"/>
        <pt x="562" y="429" on="1"/>
        <pt x="539" y="405" on="1"/>
        <pt x="553" y="403" on="1"/>
        <pt x="574" y="401" on="1"/>
        <pt x="575" y="401" on="1"/>
        <pt x="600" y="396" on="0"/>
        <pt x="607" y="379" on="1"/>
        <pt x="617" y="357" on="0"/>
        <pt x="588" y="335" on="1"/>
        <pt x="569" y="321" on="0"/>
        <pt x="547" y="321" on="1"/>
        <pt x="538" y="321" on="0"/>
        <pt x="535" y="324" on="1"/>
        <pt x="529" y="328" on="0"/>
        <pt x="528" y="329" on="1"/>
        <pt x="526" y="332" on="0"/>
        <pt x="525" y="332" on="1"/>
        <pt x="522" y="335" on="0"/>
        <pt x="489" y="337" on="1"/>
        <pt x="472" y="338" on="1"/>
        <pt x="445" y="312" on="1"/>
        <pt x="342" y="212" on="0"/>
        <pt x="220" y="105" on="1"/>
        <pt x="214" y="101" on="1"/>
        <pt x="232" y="100" on="1"/>
        <pt x="284" y="100" on="0"/>
        <pt x="396" y="92" on="1"/>
        <pt x="460" y="86" on="0"/>
        <pt x="516" y="84" on="1"/>
        <pt x="548" y="83" on="1"/>
        <pt x="551" y="86" on="1"/>
        <pt x="574" y="113" on="0"/>
        <pt x="588" y="159" on="1"/>
        <pt x="592" y="173" on="0"/>
        <pt x="599" y="183" on="1"/>
        <pt x="623" y="212" on="0"/>
        <pt x="665" y="225" on="1"/>
        <pt x="668" y="226" on="0"/>
        <pt x="671" y="227" on="1"/>
        <pt x="692" y="232" on="0"/>
        <pt x="703" y="227" on="1"/>
        <pt x="711" y="222" on="0"/>
        <pt x="709" y="213" on="1"/>
        <pt x="706" y="192" on="0"/>
        <pt x="692" y="162" on="1"/>
        <pt x="677" y="129" on="0"/>
        <pt x="655" y="101" on="1"/>
        <pt x="634" y="77" on="0"/>
        <pt x="610" y="56" on="1"/>
        <pt x="553" y="10" on="0"/>
        <pt x="493" y="2" on="1"/>
        <pt x="456" y="-4" on="0"/>
        <pt x="306" y="8" on="1"/>
        <pt x="177" y="19" on="0"/>
        <pt x="142" y="17" on="1"/>
        <pt x="117" y="16" on="0"/>
        <pt x="95" y="8" on="1"/>
        <pt x="71" y="0" on="0"/>
        <pt x="47" y="0" on="0"/>
        <pt x="42" y="5" on="1"/>
        <pt x="38" y="11" on="0"/>
        <pt x="39" y="18" on="1"/>
        <pt x="44" y="34" on="0"/>
        <pt x="77" y="63" on="1"/>
        <pt x="80" y="65" on="0"/>
        <pt x="83" y="68" on="1"/>
        <pt x="241" y="203" on="0"/>
        <pt x="367" y="324" on="1"/>
        <pt x="381" y="338" on="1"/>
        <pt x="337" y="338" on="1"/>
        <pt x="294" y="338" on="1"/>
        <pt x="289" y="342" on="1"/>
        <pt x="279" y="349" on="0"/>
        <pt x="279" y="360" on="1"/>
        <pt x="282" y="384" on="0"/>
        <pt x="315" y="399" on="1"/>
        <pt x="328" y="405" on="0"/>
        <pt x="370" y="405" on="1"/>
        <pt x="376" y="405" on="0"/>
        <pt x="391" y="405" on="1"/>
        <pt x="449" y="405" on="1"/>
        <pt x="474" y="431" on="1"/>
        <pt x="554" y="517" on="0"/>
        <pt x="593" y="563" on="1"/>
        <pt x="610" y="583" on="1"/>
        <pt x="585" y="583" on="1"/>
        <pt x="541" y="585" on="0"/>
        <pt x="484" y="591" on="1"/>
        <pt x="377" y="603" on="0"/>
        <pt x="348" y="595" on="1"/>
        <pt x="334" y="591" on="0"/>
        <pt x="323" y="579" on="1"/>
        <pt x="314" y="566" on="0"/>
        <pt x="309" y="550" on="1"/>
        <pt x="304" y="537" on="0"/>
        <pt x="303" y="536" on="1"/>
        <pt x="286" y="511" on="0"/>
        <pt x="247" y="492" on="1"/>
        <pt x="229" y="484" on="0"/>
        <pt x="211" y="483" on="1"/>
        <pt x="200" y="483" on="0"/>
        <pt x="196" y="485" on="1"/>
        <pt x="188" y="490" on="0"/>
        <pt x="188" y="497" on="1"/>
        <pt x="188" y="508" on="0"/>
        <pt x="200" y="532" on="1"/>
        <pt x="233" y="600" on="0"/>
        <pt x="320" y="646" on="1"/>
        <pt x="371" y="673" on="0"/>
        <pt x="423" y="680" on="1"/>
        <pt x="435" y="682" on="0"/>
      </contour>
    </TTGlyph>
    <TTGlyph name="a" xMin="53" yMin="0" xMax="555" yMax="694">
      <contour>
        <pt x="526" y="691" on="1"/>
        <pt x="531" y="694" on="0"/>
        <pt x="537" y="694" on="1"/>
        <pt x="547" y="692" on="0"/>
        <pt x="553" y="683" on="1"/>
        <pt x="555" y="679" on="1"/>
        <pt x="555" y="347" on="1"/>
        <pt x="555" y="15" on="1"/>
        <pt x="553" y="11" on="1"/>
        <pt x="547" y="2" on="0"/>
        <pt x="537" y="0" on="1"/>
        <pt x="531" y="0" on="0"/>
        <pt x="526" y="3" on="1"/>
        <pt x="520" y="5" on="0"/>
        <pt x="518" y="11" on="1"/>
        <pt x="515" y="16" on="1"/>
        <pt x="515" y="172" on="1"/>
        <pt x="515" y="327" on="1"/>
        <pt x="293" y="327" on="1"/>
        <pt x="71" y="327" on="1"/>
        <pt x="66" y="330" on="1"/>
        <pt x="60" y="332" on="0"/>
        <pt x="58" y="338" on="1"/>
        <pt x="53" y="347" on="0"/>
        <pt x="58" y="356" on="1"/>
        <pt x="60" y="362" on="0"/>
        <pt x="66" y="364" on="1"/>
        <pt x="71" y="367" on="1"/>
        <pt x="293" y="367" on="1"/>
        <pt x="515" y="367" on="1"/>
        <pt x="515" y="522" on="1"/>
        <pt x="515" y="678" on="1"/>
        <pt x="518" y="683" on="1"/>
        <pt x="520" y="689" on="0"/>
      </contour>
    </TTGlyph>
    <TTGlyph name="ampersand" xMin="51" yMin="-222" xMax="971" yMax="697">
      <contour>
        <pt x="66" y="693" on="1"/>
        <pt x="75" y="697" on="0"/>
        <pt x="83" y="693" on="1"/>
        <pt x="87" y="691" on="0"/>
        <pt x="482" y="296" on="1"/>
        <pt x="878" y="-98" on="0"/>
        <pt x="878" y="-97" on="1"/>
        <pt x="877" y="-96" on="0"/>
        <pt x="875" y="-81" on="1"/>
        <pt x="871" y="-45" on="0"/>
        <pt x="875" y="0" on="1"/>
        <pt x="885" y="82" on="0"/>
        <pt x="929" y="151" on="1"/>
        <pt x="940" y="168" on="0"/>
        <pt x="947" y="168" on="1"/>
        <pt x="951" y="168" on="0"/>
        <pt x="960" y="158" on="1"/>
        <pt x="971" y="147" on="0"/>
        <pt x="969" y="142" on="1"/>
        <pt x="968" y="139" on="0"/>
        <pt x="961" y="128" on="1"/>
        <pt x="925" y="69" on="0"/>
        <pt x="915" y="2" on="1"/>
        <pt x="910" y="-31" on="0"/>
        <pt x="914" y="-82" on="1"/>
        <pt x="921" y="-130" on="0"/>
        <pt x="940" y="-171" on="1"/>
        <pt x="944" y="-182" on="0"/>
        <pt x="944" y="-185" on="1"/>
        <pt x="942" y="-194" on="0"/>
        <pt x="934" y="-194" on="1"/>
        <pt x="929" y="-194" on="0"/>
        <pt x="918" y="-188" on="1"/>
        <pt x="871" y="-167" on="0"/>
        <pt x="820" y="-163" on="1"/>
        <pt x="781" y="-159" on="0"/>
        <pt x="747" y="-165" on="1"/>
        <pt x="678" y="-175" on="0"/>
        <pt x="622" y="-211" on="1"/>
        <pt x="606" y="-222" on="0"/>
        <pt x="602" y="-219" on="1"/>
        <pt x="599" y="-217" on="0"/>
        <pt x="592" y="-210" on="1"/>
        <pt x="582" y="-201" on="0"/>
        <pt x="582" y="-197" on="1"/>
        <pt x="582" y="-190" on="0"/>
        <pt x="599" y="-179" on="1"/>
        <pt x="668" y="-136" on="0"/>
        <pt x="751" y="-125" on="1"/>
        <pt x="805" y="-119" on="0"/>
        <pt x="847" y="-128" on="1"/>
        <pt x="849" y="-128" on="0"/>
        <pt x="453" y="268" on="1"/>
        <pt x="58" y="664" on="0"/>
        <pt x="56" y="668" on="1"/>
        <pt x="51" y="685" on="0"/>
      </contour>
    </TTGlyph>
    <TTGlyph name="asciicircum" xMin="55" yMin="-28" xMax="611" yMax="604">
      <contour>
        <pt x="324" y="596" on="1"/>
        <pt x="339" y="604" on="0"/>
        <pt x="348" y="591" on="1"/>
        <pt x="349" y="590" on="0"/>
        <pt x="481" y="295" on="1"/>
        <pt x="611" y="3" on="0"/>
        <pt x="611" y="-4" on="1"/>
        <pt x="610" y="-19" on="0"/>
        <pt x="594" y="-22" on="1"/>
        <pt x="587" y="-23" on="0"/>
        <pt x="580" y="-19" on="1"/>
        <pt x="576" y="-16" on="0"/>
        <pt x="570" y="-4" on="1"/>
        <pt x="449" y="268" on="1"/>
        <pt x="333" y="528" on="1"/>
        <pt x="217" y="268" on="1"/>
        <pt x="96" y="-4" on="1"/>
        <pt x="90" y="-16" on="0"/>
        <pt x="86" y="-19" on="1"/>
        <pt x="71" y="-28" on="0"/>
        <pt x="59" y="-15" on="1"/>
        <pt x="55" y="-10" on="0"/>
        <pt x="55" y="-4" on="1"/>
        <pt x="55" y="3" on="0"/>
        <pt x="185" y="295" on="1"/>
        <pt x="317" y="590" on="0"/>
        <pt x="318" y="591" on="1"/>
        <pt x="322" y="595" on="0"/>
      </contour>
    </TTGlyph>
    <TTGlyph name="asciitilde" xMin="54" yMin="-39" xMax="724" yMax="719">
      <contour>
        <pt x="205" y="715" on="1"/>
        <pt x="241" y="715" on="1"/>
        <pt x="301" y="708" on="0"/>
        <pt x="347" y="663" on="1"/>
        <pt x="370" y="642" on="0"/>
        <pt x="385" y="613" on="1"/>
        <pt x="389" y="606" on="0"/>
        <pt x="389" y="605" on="1"/>
        <pt x="394" y="613" on="1"/>
        <pt x="407" y="641" on="0"/>
        <pt x="431" y="663" on="1"/>
        <pt x="477" y="707" on="0"/>
        <pt x="539" y="715" on="1"/>
        <pt x="562" y="719" on="0"/>
        <pt x="587" y="713" on="1"/>
        <pt x="621" y="708" on="0"/>
        <pt x="648" y="688" on="1"/>
        <pt x="709" y="642" on="0"/>
        <pt x="721" y="532" on="1"/>
        <pt x="724" y="502" on="0"/>
        <pt x="722" y="463" on="1"/>
        <pt x="712" y="350" on="0"/>
        <pt x="602" y="227" on="1"/>
        <pt x="578" y="201" on="0"/>
        <pt x="506" y="131" on="1"/>
        <pt x="463" y="88" on="0"/>
        <pt x="443" y="54" on="1"/>
        <pt x="426" y="25" on="0"/>
        <pt x="412" y="-8" on="1"/>
        <pt x="405" y="-27" on="0"/>
        <pt x="398" y="-31" on="1"/>
        <pt x="383" y="-39" on="0"/>
        <pt x="374" y="-26" on="1"/>
        <pt x="372" y="-24" on="0"/>
        <pt x="366" y="-8" on="1"/>
        <pt x="352" y="25" on="0"/>
        <pt x="335" y="54" on="1"/>
        <pt x="315" y="88" on="0"/>
        <pt x="272" y="131" on="1"/>
        <pt x="200" y="201" on="0"/>
        <pt x="176" y="227" on="1"/>
        <pt x="66" y="350" on="0"/>
        <pt x="56" y="463" on="1"/>
        <pt x="54" y="498" on="0"/>
        <pt x="57" y="532" on="1"/>
        <pt x="71" y="660" on="0"/>
        <pt x="149" y="699" on="1"/>
        <pt x="172" y="712" on="0"/>
      </contour>
      <contour>
        <pt x="248" y="674" on="1"/>
        <pt x="208" y="675" on="1"/>
        <pt x="199" y="674" on="1"/>
        <pt x="198" y="674" on="1"/>
        <pt x="178" y="670" on="0"/>
        <pt x="166" y="663" on="1"/>
        <pt x="104" y="631" on="0"/>
        <pt x="96" y="515" on="1"/>
        <pt x="90" y="423" on="0"/>
        <pt x="137" y="346" on="1"/>
        <pt x="173" y="284" on="0"/>
        <pt x="275" y="184" on="1"/>
        <pt x="281" y="178" on="0"/>
        <pt x="287" y="172" on="1"/>
        <pt x="329" y="133" on="0"/>
        <pt x="346" y="109" on="1"/>
        <pt x="369" y="79" on="0"/>
        <pt x="384" y="48" on="1"/>
        <pt x="389" y="40" on="0"/>
        <pt x="389" y="39" on="1"/>
        <pt x="394" y="48" on="1"/>
        <pt x="409" y="79" on="0"/>
        <pt x="432" y="109" on="1"/>
        <pt x="449" y="133" on="0"/>
        <pt x="491" y="172" on="1"/>
        <pt x="571" y="249" on="0"/>
        <pt x="613" y="303" on="1"/>
        <pt x="683" y="396" on="0"/>
        <pt x="683" y="487" on="1"/>
        <pt x="683" y="581" on="0"/>
        <pt x="649" y="631" on="1"/>
        <pt x="622" y="665" on="0"/>
        <pt x="582" y="674" on="1"/>
        <pt x="560" y="678" on="0"/>
        <pt x="531" y="674" on="1"/>
        <pt x="491" y="665" on="0"/>
        <pt x="459" y="635" on="1"/>
        <pt x="419" y="595" on="0"/>
        <pt x="410" y="538" on="1"/>
        <pt x="407" y="521" on="0"/>
        <pt x="398" y="516" on="1"/>
        <pt x="389" y="512" on="0"/>
        <pt x="380" y="517" on="1"/>
        <pt x="372" y="520" on="0"/>
        <pt x="368" y="539" on="1"/>
        <pt x="358" y="595" on="0"/>
        <pt x="319" y="635" on="1"/>
        <pt x="287" y="665" on="0"/>
      </contour>
    </TTGlyph>
    <TTGlyph name="asterisk" xMin="31" yMin="-201" xMax="579" yMax="694">
      <contour>
        <pt x="298" y="692" on="1"/>
        <pt x="302" y="694" on="0"/>
        <pt x="305" y="694" on="1"/>
        <pt x="312" y="694" on="0"/>
        <pt x="316" y="683" on="1"/>
        <pt x="317" y="681" on="0"/>
        <pt x="318" y="677" on="1"/>
        <pt x="352" y="550" on="0"/>
        <pt x="446" y="459" on="1"/>
        <pt x="500" y="406" on="0"/>
        <pt x="564" y="374" on="1"/>
        <pt x="578" y="367" on="0"/>
        <pt x="579" y="361" on="1"/>
        <pt x="579" y="358" on="0"/>
        <pt x="579" y="350" on="1"/>
        <pt x="579" y="337" on="1"/>
        <pt x="576" y="333" on="1"/>
        <pt x="571" y="328" on="0"/>
        <pt x="555" y="336" on="1"/>
        <pt x="553" y="337" on="0"/>
        <pt x="551" y="338" on="1"/>
        <pt x="487" y="370" on="0"/>
        <pt x="435" y="419" on="1"/>
        <pt x="423" y="430" on="1"/>
        <pt x="422" y="125" on="1"/>
        <pt x="422" y="-181" on="1"/>
        <pt x="419" y="-185" on="1"/>
        <pt x="407" y="-201" on="0"/>
        <pt x="391" y="-191" on="1"/>
        <pt x="387" y="-188" on="0"/>
        <pt x="384" y="-183" on="1"/>
        <pt x="382" y="-177" on="1"/>
        <pt x="382" y="149" on="1"/>
        <pt x="382" y="475" on="1"/>
        <pt x="373" y="487" on="1"/>
        <pt x="335" y="536" on="0"/>
        <pt x="309" y="593" on="1"/>
        <pt x="305" y="601" on="0"/>
        <pt x="305" y="602" on="1"/>
        <pt x="301" y="593" on="1"/>
        <pt x="275" y="536" on="0"/>
        <pt x="238" y="488" on="1"/>
        <pt x="229" y="476" on="1"/>
        <pt x="228" y="148" on="1"/>
        <pt x="228" y="-179" on="1"/>
        <pt x="225" y="-183" on="1"/>
        <pt x="219" y="-197" on="0"/>
        <pt x="203" y="-194" on="1"/>
        <pt x="201" y="-193" on="0"/>
        <pt x="199" y="-192" on="1"/>
        <pt x="193" y="-186" on="0"/>
        <pt x="192" y="-185" on="1"/>
        <pt x="189" y="-181" on="1"/>
        <pt x="188" y="125" on="1"/>
        <pt x="188" y="430" on="1"/>
        <pt x="176" y="419" on="1"/>
        <pt x="122" y="369" on="0"/>
        <pt x="59" y="338" on="1"/>
        <pt x="40" y="328" on="0"/>
        <pt x="34" y="333" on="1"/>
        <pt x="31" y="337" on="1"/>
        <pt x="31" y="350" on="1"/>
        <pt x="31" y="365" on="0"/>
        <pt x="37" y="369" on="1"/>
        <pt x="39" y="370" on="0"/>
        <pt x="46" y="374" on="1"/>
        <pt x="110" y="406" on="0"/>
        <pt x="164" y="459" on="1"/>
        <pt x="258" y="550" on="0"/>
        <pt x="292" y="677" on="1"/>
        <pt x="295" y="688" on="0"/>
      </contour>
    </TTGlyph>
    <TTGlyph name="at" xMin="50" yMin="-4" xMax="557" yMax="698">
      <contour>
        <pt x="82" y="692" on="1"/>
        <pt x="90" y="697" on="0"/>
        <pt x="94" y="691" on="1"/>
        <pt x="97" y="688" on="0"/>
        <pt x="97" y="678" on="1"/>
        <pt x="100" y="627" on="0"/>
        <pt x="137" y="582" on="1"/>
        <pt x="141" y="576" on="0"/>
        <pt x="276" y="436" on="1"/>
        <pt x="406" y="300" on="0"/>
        <pt x="408" y="301" on="1"/>
        <pt x="412" y="322" on="1"/>
        <pt x="412" y="326" on="0"/>
        <pt x="422" y="381" on="1"/>
        <pt x="438" y="470" on="0"/>
        <pt x="441" y="508" on="1"/>
        <pt x="442" y="516" on="1"/>
        <pt x="436" y="520" on="1"/>
        <pt x="420" y="531" on="0"/>
        <pt x="405" y="549" on="1"/>
        <pt x="395" y="565" on="0"/>
        <pt x="391" y="578" on="1"/>
        <pt x="383" y="601" on="0"/>
        <pt x="391" y="645" on="1"/>
        <pt x="392" y="649" on="0"/>
        <pt x="393" y="653" on="1"/>
        <pt x="400" y="682" on="0"/>
        <pt x="416" y="693" on="1"/>
        <pt x="428" y="698" on="0"/>
        <pt x="430" y="684" on="1"/>
        <pt x="433" y="671" on="0"/>
        <pt x="461" y="628" on="1"/>
        <pt x="484" y="594" on="0"/>
        <pt x="502" y="580" on="1"/>
        <pt x="505" y="577" on="0"/>
        <pt x="511" y="572" on="1"/>
        <pt x="541" y="546" on="0"/>
        <pt x="549" y="530" on="1"/>
        <pt x="555" y="519" on="0"/>
        <pt x="555" y="497" on="1"/>
        <pt x="555" y="441" on="0"/>
        <pt x="534" y="417" on="1"/>
        <pt x="523" y="405" on="0"/>
        <pt x="516" y="412" on="1"/>
        <pt x="513" y="415" on="0"/>
        <pt x="513" y="424" on="1"/>
        <pt x="510" y="441" on="1"/>
        <pt x="506" y="456" on="0"/>
        <pt x="497" y="470" on="1"/>
        <pt x="494" y="473" on="1"/>
        <pt x="494" y="470" on="1"/>
        <pt x="493" y="468" on="0"/>
        <pt x="491" y="450" on="1"/>
        <pt x="476" y="366" on="1"/>
        <pt x="462" y="293" on="0"/>
        <pt x="459" y="254" on="1"/>
        <pt x="459" y="245" on="1"/>
        <pt x="476" y="226" on="1"/>
        <pt x="531" y="170" on="0"/>
        <pt x="546" y="135" on="1"/>
        <pt x="554" y="118" on="0"/>
        <pt x="555" y="94" on="1"/>
        <pt x="557" y="34" on="0"/>
        <pt x="534" y="8" on="1"/>
        <pt x="523" y="-4" on="0"/>
        <pt x="516" y="3" on="1"/>
        <pt x="513" y="6" on="0"/>
        <pt x="513" y="16" on="1"/>
        <pt x="510" y="69" on="0"/>
        <pt x="473" y="112" on="1"/>
        <pt x="201" y="396" on="1"/>
        <pt x="188" y="356" on="1"/>
        <pt x="173" y="293" on="0"/>
        <pt x="175" y="230" on="1"/>
        <pt x="175" y="222" on="0"/>
        <pt x="176" y="217" on="1"/>
        <pt x="181" y="195" on="0"/>
        <pt x="215" y="159" on="1"/>
        <pt x="249" y="122" on="0"/>
        <pt x="257" y="100" on="1"/>
        <pt x="263" y="79" on="0"/>
        <pt x="259" y="61" on="1"/>
        <pt x="252" y="30" on="0"/>
        <pt x="218" y="12" on="1"/>
        <pt x="205" y="5" on="0"/>
        <pt x="186" y="2" on="1"/>
        <pt x="166" y="-3" on="0"/>
        <pt x="74" y="0" on="1"/>
        <pt x="61" y="0" on="0"/>
        <pt x="60" y="1" on="1"/>
        <pt x="55" y="5" on="0"/>
        <pt x="55" y="25" on="1"/>
        <pt x="55" y="41" on="1"/>
        <pt x="58" y="44" on="1"/>
        <pt x="60" y="47" on="0"/>
        <pt x="77" y="47" on="1"/>
        <pt x="115" y="48" on="0"/>
        <pt x="130" y="59" on="1"/>
        <pt x="138" y="66" on="0"/>
        <pt x="138" y="81" on="1"/>
        <pt x="137" y="102" on="0"/>
        <pt x="113" y="146" on="1"/>
        <pt x="90" y="186" on="0"/>
        <pt x="84" y="213" on="1"/>
        <pt x="83" y="220" on="0"/>
        <pt x="83" y="238" on="1"/>
        <pt x="86" y="320" on="0"/>
        <pt x="150" y="429" on="1"/>
        <pt x="158" y="443" on="1"/>
        <pt x="137" y="465" on="1"/>
        <pt x="73" y="532" on="0"/>
        <pt x="61" y="567" on="1"/>
        <pt x="59" y="571" on="0"/>
        <pt x="58" y="576" on="1"/>
        <pt x="50" y="608" on="0"/>
        <pt x="59" y="648" on="1"/>
        <pt x="59" y="651" on="0"/>
        <pt x="60" y="653" on="1"/>
        <pt x="67" y="683" on="0"/>
      </contour>
    </TTGlyph>
    <TTGlyph name="b" xMin="174" yMin="-250" xMax="422" yMax="750">
      <contour>
        <pt x="185" y="747" on="1"/>
        <pt x="190" y="750" on="0"/>
        <pt x="196" y="750" on="1"/>
        <pt x="206" y="748" on="0"/>
        <pt x="212" y="739" on="1"/>
        <pt x="214" y="735" on="1"/>
        <pt x="214" y="262" on="1"/>
        <pt x="214" y="-210" on="1"/>
        <pt x="310" y="-210" on="1"/>
        <pt x="406" y="-210" on="0"/>
        <pt x="410" y="-212" on="1"/>
        <pt x="418" y="-217" on="0"/>
        <pt x="421" y="-225" on="1"/>
        <pt x="422" y="-230" on="0"/>
        <pt x="421" y="-235" on="1"/>
        <pt x="418" y="-243" on="0"/>
        <pt x="410" y="-248" on="1"/>
        <pt x="406" y="-250" on="0"/>
        <pt x="298" y="-250" on="1"/>
        <pt x="190" y="-250" on="1"/>
        <pt x="185" y="-247" on="1"/>
        <pt x="179" y="-245" on="0"/>
        <pt x="177" y="-239" on="1"/>
        <pt x="174" y="-234" on="1"/>
        <pt x="174" y="250" on="1"/>
        <pt x="174" y="734" on="1"/>
        <pt x="177" y="739" on="1"/>
        <pt x="179" y="745" on="0"/>
      </contour>
    </TTGlyph>
    <TTGlyph name="backslash" xMin="55" yMin="-27" xMax="611" yMax="599">
      <contour>
        <pt x="303" y="597" on="1"/>
        <pt x="332" y="599" on="0"/>
        <pt x="361" y="597" on="1"/>
        <pt x="482" y="588" on="0"/>
        <pt x="554" y="518" on="1"/>
        <pt x="568" y="503" on="0"/>
        <pt x="579" y="487" on="1"/>
        <pt x="606" y="446" on="0"/>
        <pt x="610" y="405" on="1"/>
        <pt x="611" y="399" on="0"/>
        <pt x="611" y="194" on="1"/>
        <pt x="611" y="-7" on="1"/>
        <pt x="609" y="-11" on="1"/>
        <pt x="601" y="-27" on="0"/>
        <pt x="584" y="-21" on="1"/>
        <pt x="578" y="-19" on="0"/>
        <pt x="575" y="-13" on="1"/>
        <pt x="572" y="-9" on="1"/>
        <pt x="571" y="198" on="1"/>
        <pt x="570" y="405" on="1"/>
        <pt x="568" y="414" on="1"/>
        <pt x="560" y="453" on="0"/>
        <pt x="529" y="485" on="1"/>
        <pt x="473" y="545" on="0"/>
        <pt x="368" y="556" on="1"/>
        <pt x="338" y="559" on="0"/>
        <pt x="308" y="557" on="1"/>
        <pt x="196" y="548" on="0"/>
        <pt x="136" y="484" on="1"/>
        <pt x="102" y="447" on="0"/>
        <pt x="96" y="401" on="1"/>
        <pt x="95" y="396" on="0"/>
        <pt x="95" y="193" on="1"/>
        <pt x="95" y="-7" on="1"/>
        <pt x="93" y="-11" on="1"/>
        <pt x="90" y="-16" on="0"/>
        <pt x="86" y="-18" on="1"/>
        <pt x="82" y="-21" on="0"/>
        <pt x="68" y="-21" on="0"/>
        <pt x="64" y="-18" on="1"/>
        <pt x="57" y="-11" on="1"/>
        <pt x="55" y="-7" on="1"/>
        <pt x="55" y="200" on="1"/>
        <pt x="56" y="412" on="0"/>
        <pt x="59" y="423" on="1"/>
        <pt x="61" y="431" on="1"/>
        <pt x="70" y="470" on="0"/>
        <pt x="101" y="506" on="1"/>
        <pt x="163" y="576" on="0"/>
        <pt x="278" y="594" on="1"/>
        <pt x="290" y="596" on="0"/>
      </contour>
    </TTGlyph>
    <TTGlyph name="bar" xMin="26" yMin="-130" xMax="752" yMax="729">
      <contour>
        <pt x="367" y="725" on="1"/>
        <pt x="388" y="729" on="0"/>
        <pt x="411" y="725" on="1"/>
        <pt x="437" y="722" on="0"/>
        <pt x="462" y="709" on="1"/>
        <pt x="540" y="671" on="0"/>
        <pt x="561" y="575" on="1"/>
        <pt x="562" y="571" on="0"/>
        <pt x="563" y="567" on="1"/>
        <pt x="565" y="556" on="0"/>
        <pt x="565" y="508" on="0"/>
        <pt x="563" y="497" on="1"/>
        <pt x="550" y="423" on="0"/>
        <pt x="495" y="376" on="1"/>
        <pt x="490" y="371" on="1"/>
        <pt x="500" y="349" on="1"/>
        <pt x="511" y="326" on="1"/>
        <pt x="520" y="334" on="1"/>
        <pt x="556" y="370" on="0"/>
        <pt x="610" y="368" on="1"/>
        <pt x="638" y="367" on="0"/>
        <pt x="660" y="354" on="1"/>
        <pt x="727" y="320" on="0"/>
        <pt x="746" y="223" on="1"/>
        <pt x="747" y="216" on="0"/>
        <pt x="748" y="210" on="1"/>
        <pt x="752" y="176" on="0"/>
        <pt x="748" y="141" on="1"/>
        <pt x="741" y="104" on="0"/>
        <pt x="728" y="78" on="1"/>
        <pt x="709" y="39" on="0"/>
        <pt x="682" y="16" on="1"/>
        <pt x="640" y="-19" on="0"/>
        <pt x="586" y="-22" on="1"/>
        <pt x="523" y="-25" on="0"/>
        <pt x="484" y="11" on="1"/>
        <pt x="479" y="16" on="0"/>
        <pt x="475" y="21" on="1"/>
        <pt x="462" y="38" on="0"/>
        <pt x="459" y="63" on="1"/>
        <pt x="459" y="70" on="1"/>
        <pt x="434" y="70" on="1"/>
        <pt x="409" y="70" on="1"/>
        <pt x="409" y="62" on="1"/>
        <pt x="409" y="-13" on="0"/>
        <pt x="432" y="-89" on="1"/>
        <pt x="439" y="-113" on="0"/>
        <pt x="434" y="-121" on="1"/>
        <pt x="429" y="-126" on="0"/>
        <pt x="426" y="-128" on="1"/>
        <pt x="422" y="-130" on="0"/>
        <pt x="356" y="-130" on="0"/>
        <pt x="352" y="-128" on="1"/>
        <pt x="347" y="-124" on="0"/>
        <pt x="345" y="-121" on="1"/>
        <pt x="339" y="-113" on="0"/>
        <pt x="346" y="-89" on="1"/>
        <pt x="369" y="-13" on="0"/>
        <pt x="369" y="62" on="1"/>
        <pt x="369" y="70" on="1"/>
        <pt x="344" y="70" on="1"/>
        <pt x="319" y="70" on="1"/>
        <pt x="319" y="63" on="1"/>
        <pt x="314" y="21" on="0"/>
        <pt x="275" y="-2" on="1"/>
        <pt x="229" y="-30" on="0"/>
        <pt x="171" y="-20" on="1"/>
        <pt x="132" y="-13" on="0"/>
        <pt x="97" y="16" on="1"/>
        <pt x="69" y="39" on="0"/>
        <pt x="50" y="78" on="1"/>
        <pt x="37" y="104" on="0"/>
        <pt x="30" y="141" on="1"/>
        <pt x="26" y="170" on="0"/>
        <pt x="30" y="210" on="1"/>
        <pt x="46" y="311" on="0"/>
        <pt x="111" y="350" on="1"/>
        <pt x="122" y="357" on="0"/>
        <pt x="134" y="361" on="1"/>
        <pt x="197" y="383" on="0"/>
        <pt x="247" y="343" on="1"/>
        <pt x="253" y="339" on="0"/>
        <pt x="258" y="334" on="1"/>
        <pt x="267" y="326" on="1"/>
        <pt x="278" y="349" on="1"/>
        <pt x="288" y="371" on="1"/>
        <pt x="283" y="376" on="1"/>
        <pt x="262" y="394" on="0"/>
        <pt x="247" y="416" on="1"/>
        <pt x="222" y="453" on="0"/>
        <pt x="215" y="497" on="1"/>
        <pt x="209" y="532" on="0"/>
        <pt x="215" y="567" on="1"/>
        <pt x="233" y="665" on="0"/>
        <pt x="310" y="706" on="1"/>
        <pt x="313" y="708" on="0"/>
        <pt x="316" y="709" on="1"/>
        <pt x="338" y="721" on="0"/>
      </contour>
    </TTGlyph>
    <TTGlyph name="braceleft" xMin="40" yMin="-193" xMax="582" yMax="694">
      <contour>
        <pt x="280" y="693" on="1"/>
        <pt x="419" y="694" on="1"/>
        <pt x="428" y="694" on="1"/>
        <pt x="567" y="694" on="1"/>
        <pt x="571" y="692" on="1"/>
        <pt x="574" y="690" on="0"/>
        <pt x="579" y="685" on="1"/>
        <pt x="582" y="679" on="0"/>
        <pt x="582" y="669" on="0"/>
        <pt x="579" y="663" on="1"/>
        <pt x="574" y="658" on="0"/>
        <pt x="571" y="656" on="1"/>
        <pt x="567" y="654" on="0"/>
        <pt x="533" y="654" on="1"/>
        <pt x="499" y="654" on="1"/>
        <pt x="499" y="238" on="1"/>
        <pt x="499" y="-179" on="1"/>
        <pt x="497" y="-183" on="1"/>
        <pt x="494" y="-188" on="0"/>
        <pt x="490" y="-190" on="1"/>
        <pt x="486" y="-193" on="0"/>
        <pt x="472" y="-193" on="0"/>
        <pt x="468" y="-190" on="1"/>
        <pt x="464" y="-188" on="0"/>
        <pt x="461" y="-183" on="1"/>
        <pt x="459" y="-179" on="1"/>
        <pt x="459" y="238" on="1"/>
        <pt x="459" y="654" on="1"/>
        <pt x="424" y="654" on="1"/>
        <pt x="389" y="654" on="1"/>
        <pt x="389" y="238" on="1"/>
        <pt x="389" y="-179" on="1"/>
        <pt x="387" y="-183" on="1"/>
        <pt x="384" y="-188" on="0"/>
        <pt x="380" y="-190" on="1"/>
        <pt x="376" y="-193" on="0"/>
        <pt x="362" y="-193" on="0"/>
        <pt x="358" y="-190" on="1"/>
        <pt x="354" y="-188" on="0"/>
        <pt x="351" y="-183" on="1"/>
        <pt x="349" y="-179" on="1"/>
        <pt x="349" y="26" on="1"/>
        <pt x="349" y="230" on="0"/>
        <pt x="347" y="230" on="1"/>
        <pt x="347" y="231" on="0"/>
        <pt x="340" y="231" on="1"/>
        <pt x="312" y="231" on="0"/>
        <pt x="264" y="243" on="1"/>
        <pt x="175" y="264" on="0"/>
        <pt x="117" y="318" on="1"/>
        <pt x="72" y="361" on="0"/>
        <pt x="59" y="422" on="1"/>
        <pt x="40" y="514" on="0"/>
        <pt x="99" y="594" on="1"/>
        <pt x="103" y="599" on="0"/>
        <pt x="108" y="605" on="1"/>
        <pt x="165" y="673" on="0"/>
        <pt x="258" y="690" on="1"/>
        <pt x="269" y="692" on="0"/>
      </contour>
    </TTGlyph>
    <TTGlyph name="braceright" xMin="55" yMin="-162" xMax="723" yMax="732">
      <contour>
        <pt x="380" y="725" on="1"/>
        <pt x="396" y="732" on="0"/>
        <pt x="406" y="717" on="1"/>
        <pt x="407" y="715" on="0"/>
        <pt x="421" y="689" on="1"/>
        <pt x="536" y="465" on="0"/>
        <pt x="709" y="304" on="1"/>
        <pt x="723" y="291" on="0"/>
        <pt x="723" y="273" on="0"/>
        <pt x="709" y="260" on="1"/>
        <pt x="536" y="99" on="0"/>
        <pt x="421" y="-125" on="1"/>
        <pt x="407" y="-151" on="0"/>
        <pt x="406" y="-153" on="1"/>
        <pt x="404" y="-157" on="0"/>
        <pt x="400" y="-159" on="1"/>
        <pt x="396" y="-162" on="0"/>
        <pt x="382" y="-162" on="0"/>
        <pt x="378" y="-159" on="1"/>
        <pt x="374" y="-157" on="0"/>
        <pt x="372" y="-153" on="1"/>
        <pt x="371" y="-151" on="0"/>
        <pt x="357" y="-125" on="1"/>
        <pt x="247" y="89" on="0"/>
        <pt x="89" y="241" on="1"/>
        <pt x="64" y="265" on="1"/>
        <pt x="55" y="272" on="0"/>
        <pt x="55" y="292" on="0"/>
        <pt x="64" y="299" on="1"/>
        <pt x="93" y="325" on="0"/>
        <pt x="127" y="361" on="1"/>
        <pt x="260" y="502" on="0"/>
        <pt x="357" y="689" on="1"/>
        <pt x="370" y="713" on="0"/>
        <pt x="370" y="714" on="1"/>
        <pt x="370" y="719" on="0"/>
      </contour>
      <contour>
        <pt x="394" y="653" on="1"/>
        <pt x="389" y="661" on="0"/>
        <pt x="389" y="662" on="1"/>
        <pt x="384" y="653" on="1"/>
        <pt x="274" y="447" on="0"/>
        <pt x="123" y="299" on="1"/>
        <pt x="105" y="282" on="1"/>
        <pt x="123" y="265" on="1"/>
        <pt x="274" y="117" on="0"/>
        <pt x="384" y="-89" on="1"/>
        <pt x="389" y="-97" on="0"/>
        <pt x="389" y="-98" on="1"/>
        <pt x="394" y="-89" on="1"/>
        <pt x="504" y="117" on="0"/>
        <pt x="655" y="265" on="1"/>
        <pt x="673" y="282" on="1"/>
        <pt x="655" y="299" on="1"/>
        <pt x="504" y="447" on="0"/>
      </contour>
    </TTGlyph>
    <TTGlyph name="bracketleft" xMin="55" yMin="-22" xMax="611" yMax="598">
      <contour>
        <pt x="66" y="596" on="1"/>
        <pt x="72" y="598" on="0"/>
        <pt x="75" y="598" on="1"/>
        <pt x="86" y="598" on="0"/>
        <pt x="92" y="589" on="1"/>
        <pt x="95" y="585" on="1"/>
        <pt x="95" y="378" on="1"/>
        <pt x="96" y="172" on="1"/>
        <pt x="98" y="162" on="1"/>
        <pt x="106" y="123" on="0"/>
        <pt x="137" y="91" on="1"/>
        <pt x="193" y="31" on="0"/>
        <pt x="298" y="20" on="1"/>
        <pt x="328" y="17" on="0"/>
        <pt x="358" y="19" on="1"/>
        <pt x="470" y="28" on="0"/>
        <pt x="530" y="92" on="1"/>
        <pt x="564" y="129" on="0"/>
        <pt x="570" y="175" on="1"/>
        <pt x="571" y="180" on="0"/>
        <pt x="571" y="383" on="1"/>
        <pt x="571" y="583" on="1"/>
        <pt x="573" y="587" on="1"/>
        <pt x="575" y="590" on="0"/>
        <pt x="580" y="595" on="1"/>
        <pt x="586" y="598" on="0"/>
        <pt x="596" y="598" on="0"/>
        <pt x="602" y="595" on="1"/>
        <pt x="608" y="588" on="1"/>
        <pt x="609" y="587" on="1"/>
        <pt x="611" y="583" on="1"/>
        <pt x="611" y="376" on="1"/>
        <pt x="610" y="164" on="0"/>
        <pt x="607" y="153" on="1"/>
        <pt x="605" y="145" on="1"/>
        <pt x="596" y="106" on="0"/>
        <pt x="565" y="70" on="1"/>
        <pt x="502" y="-2" on="0"/>
        <pt x="385" y="-18" on="1"/>
        <pt x="359" y="-22" on="0"/>
        <pt x="333" y="-22" on="1"/>
        <pt x="212" y="-22" on="0"/>
        <pt x="129" y="44" on="1"/>
        <pt x="104" y="64" on="0"/>
        <pt x="87" y="89" on="1"/>
        <pt x="61" y="127" on="0"/>
        <pt x="56" y="173" on="1"/>
        <pt x="55" y="180" on="0"/>
        <pt x="55" y="384" on="1"/>
        <pt x="56" y="585" on="1"/>
        <pt x="59" y="589" on="1"/>
        <pt x="61" y="592" on="0"/>
      </contour>
    </TTGlyph>
    <TTGlyph name="bracketright" xMin="55" yMin="-22" xMax="611" yMax="598">
      <contour>
        <pt x="66" y="596" on="1"/>
        <pt x="72" y="598" on="0"/>
        <pt x="75" y="598" on="1"/>
        <pt x="86" y="598" on="0"/>
        <pt x="92" y="589" on="1"/>
        <pt x="95" y="585" on="1"/>
        <pt x="95" y="378" on="1"/>
        <pt x="96" y="172" on="1"/>
        <pt x="98" y="162" on="1"/>
        <pt x="106" y="123" on="0"/>
        <pt x="137" y="91" on="1"/>
        <pt x="193" y="31" on="0"/>
        <pt x="298" y="20" on="1"/>
        <pt x="328" y="17" on="0"/>
        <pt x="358" y="19" on="1"/>
        <pt x="470" y="28" on="0"/>
        <pt x="530" y="92" on="1"/>
        <pt x="564" y="129" on="0"/>
        <pt x="570" y="175" on="1"/>
        <pt x="571" y="180" on="0"/>
        <pt x="571" y="383" on="1"/>
        <pt x="571" y="583" on="1"/>
        <pt x="573" y="587" on="1"/>
        <pt x="575" y="590" on="0"/>
        <pt x="580" y="595" on="1"/>
        <pt x="586" y="598" on="0"/>
        <pt x="596" y="598" on="0"/>
        <pt x="602" y="595" on="1"/>
        <pt x="608" y="588" on="1"/>
        <pt x="609" y="587" on="1"/>
        <pt x="611" y="583" on="1"/>
        <pt x="611" y="376" on="1"/>
        <pt x="610" y="164" on="0"/>
        <pt x="607" y="153" on="1"/>
        <pt x="605" y="145" on="1"/>
        <pt x="596" y="106" on="0"/>
        <pt x="565" y="70" on="1"/>
        <pt x="502" y="-2" on="0"/>
        <pt x="385" y="-18" on="1"/>
        <pt x="359" y="-22" on="0"/>
        <pt x="333" y="-22" on="1"/>
        <pt x="212" y="-22" on="0"/>
        <pt x="129" y="44" on="1"/>
        <pt x="104" y="64" on="0"/>
        <pt x="87" y="89" on="1"/>
        <pt x="61" y="127" on="0"/>
        <pt x="56" y="173" on="1"/>
        <pt x="55" y="180" on="0"/>
        <pt x="55" y="384" on="1"/>
        <pt x="56" y="585" on="1"/>
        <pt x="59" y="589" on="1"/>
        <pt x="61" y="592" on="0"/>
      </contour>
      <contour>
        <pt x="325" y="501" on="1"/>
        <pt x="336" y="508" on="0"/>
        <pt x="348" y="497" on="1"/>
        <pt x="353" y="491" on="0"/>
        <pt x="353" y="454" on="1"/>
        <pt x="353" y="442" on="0"/>
        <pt x="353" y="406" on="1"/>
        <pt x="353" y="325" on="1"/>
        <pt x="434" y="325" on="1"/>
        <pt x="515" y="325" on="1"/>
        <pt x="520" y="322" on="1"/>
        <pt x="526" y="320" on="0"/>
        <pt x="528" y="314" on="1"/>
        <pt x="531" y="309" on="0"/>
        <pt x="531" y="300" on="0"/>
        <pt x="528" y="296" on="1"/>
        <pt x="526" y="290" on="0"/>
        <pt x="520" y="288" on="1"/>
        <pt x="515" y="285" on="1"/>
        <pt x="434" y="285" on="1"/>
        <pt x="353" y="285" on="1"/>
        <pt x="353" y="204" on="1"/>
        <pt x="353" y="123" on="0"/>
        <pt x="351" y="119" on="1"/>
        <pt x="348" y="111" on="0"/>
        <pt x="338" y="108" on="1"/>
        <pt x="333" y="107" on="0"/>
        <pt x="328" y="108" on="1"/>
        <pt x="318" y="111" on="0"/>
        <pt x="315" y="119" on="1"/>
        <pt x="313" y="123" on="0"/>
        <pt x="313" y="204" on="1"/>
        <pt x="313" y="285" on="1"/>
        <pt x="232" y="285" on="1"/>
        <pt x="151" y="285" on="1"/>
        <pt x="146" y="288" on="1"/>
        <pt x="140" y="290" on="0"/>
        <pt x="138" y="296" on="1"/>
        <pt x="133" y="305" on="0"/>
        <pt x="138" y="314" on="1"/>
        <pt x="140" y="320" on="0"/>
        <pt x="146" y="322" on="1"/>
        <pt x="151" y="325" on="1"/>
        <pt x="232" y="325" on="1"/>
        <pt x="313" y="325" on="1"/>
        <pt x="313" y="406" on="1"/>
        <pt x="313" y="488" on="0"/>
        <pt x="315" y="492" on="1"/>
        <pt x="318" y="498" on="0"/>
      </contour>
    </TTGlyph>
    <TTGlyph name="c" xMin="21" yMin="-250" xMax="269" yMax="750">
      <contour>
        <pt x="240" y="747" on="1"/>
        <pt x="245" y="750" on="0"/>
        <pt x="251" y="750" on="1"/>
        <pt x="261" y="748" on="0"/>
        <pt x="267" y="739" on="1"/>
        <pt x="269" y="735" on="1"/>
        <pt x="269" y="250" on="1"/>
        <pt x="269" y="-235" on="1"/>
        <pt x="267" y="-239" on="1"/>
        <pt x="264" y="-244" on="0"/>
        <pt x="260" y="-246" on="1"/>
        <pt x="256" y="-249" on="1"/>
        <pt x="147" y="-250" on="1"/>
        <pt x="35" y="-250" on="0"/>
        <pt x="27" y="-244" on="1"/>
        <pt x="23" y="-240" on="0"/>
        <pt x="21" y="-230" on="0"/>
        <pt x="22" y="-225" on="1"/>
        <pt x="25" y="-217" on="0"/>
        <pt x="34" y="-212" on="1"/>
        <pt x="37" y="-210" on="0"/>
        <pt x="133" y="-210" on="1"/>
        <pt x="229" y="-210" on="1"/>
        <pt x="229" y="262" on="1"/>
        <pt x="229" y="734" on="1"/>
        <pt x="232" y="739" on="1"/>
        <pt x="234" y="745" on="0"/>
      </contour>
    </TTGlyph>
    <TTGlyph name="colon" xMin="56" yMin="82" xMax="611" yMax="356">
      <contour>
        <pt x="66" y="354" on="1"/>
        <pt x="70" y="356" on="1"/>
        <pt x="333" y="356" on="1"/>
        <pt x="596" y="356" on="1"/>
        <pt x="600" y="354" on="1"/>
        <pt x="603" y="352" on="0"/>
        <pt x="608" y="347" on="1"/>
        <pt x="611" y="343" on="1"/>
        <pt x="611" y="222" on="1"/>
        <pt x="611" y="102" on="1"/>
        <pt x="607" y="98" on="1"/>
        <pt x="596" y="82" on="0"/>
        <pt x="581" y="92" on="1"/>
        <pt x="578" y="94" on="0"/>
        <pt x="575" y="98" on="1"/>
        <pt x="572" y="102" on="1"/>
        <pt x="571" y="209" on="1"/>
        <pt x="571" y="316" on="1"/>
        <pt x="321" y="316" on="1"/>
        <pt x="70" y="316" on="1"/>
        <pt x="66" y="318" on="1"/>
        <pt x="61" y="322" on="0"/>
        <pt x="59" y="325" on="1"/>
        <pt x="56" y="329" on="0"/>
        <pt x="56" y="343" on="0"/>
        <pt x="59" y="347" on="1"/>
        <pt x="61" y="350" on="0"/>
      </contour>
    </TTGlyph>
    <TTGlyph name="comma" xMin="34" yMin="-25" xMax="966" yMax="525">
      <contour>
        <pt x="308" y="524" on="1"/>
        <pt x="334" y="524" on="1"/>
        <pt x="345" y="518" on="0"/>
        <pt x="336" y="499" on="1"/>
        <pt x="308" y="432" on="0"/>
        <pt x="262" y="376" on="1"/>
        <pt x="256" y="369" on="0"/>
        <pt x="255" y="368" on="1"/>
        <pt x="255" y="367" on="0"/>
        <pt x="500" y="367" on="1"/>
        <pt x="744" y="367" on="0"/>
        <pt x="744" y="368" on="1"/>
        <pt x="737" y="376" on="1"/>
        <pt x="691" y="432" on="0"/>
        <pt x="663" y="499" on="1"/>
        <pt x="655" y="514" on="0"/>
        <pt x="660" y="520" on="1"/>
        <pt x="664" y="525" on="0"/>
        <pt x="680" y="525" on="1"/>
        <pt x="693" y="524" on="0"/>
        <pt x="697" y="516" on="1"/>
        <pt x="698" y="514" on="0"/>
        <pt x="701" y="507" on="1"/>
        <pt x="752" y="394" on="0"/>
        <pt x="847" y="322" on="1"/>
        <pt x="878" y="299" on="0"/>
        <pt x="902" y="287" on="1"/>
        <pt x="935" y="268" on="0"/>
        <pt x="955" y="262" on="1"/>
        <pt x="966" y="258" on="0"/>
        <pt x="966" y="242" on="0"/>
        <pt x="955" y="238" on="1"/>
        <pt x="935" y="232" on="0"/>
        <pt x="902" y="213" on="1"/>
        <pt x="763" y="137" on="0"/>
        <pt x="701" y="-7" on="1"/>
        <pt x="694" y="-23" on="0"/>
        <pt x="687" y="-24" on="1"/>
        <pt x="686" y="-25" on="0"/>
        <pt x="680" y="-25" on="1"/>
        <pt x="664" y="-25" on="0"/>
        <pt x="660" y="-20" on="1"/>
        <pt x="655" y="-14" on="0"/>
        <pt x="663" y="1" on="1"/>
        <pt x="691" y="68" on="0"/>
        <pt x="737" y="124" on="1"/>
        <pt x="743" y="131" on="0"/>
        <pt x="744" y="132" on="1"/>
        <pt x="744" y="133" on="0"/>
        <pt x="500" y="133" on="1"/>
        <pt x="255" y="133" on="0"/>
        <pt x="255" y="132" on="1"/>
        <pt x="262" y="124" on="1"/>
        <pt x="308" y="68" on="0"/>
        <pt x="336" y="1" on="1"/>
        <pt x="343" y="-14" on="0"/>
        <pt x="339" y="-20" on="1"/>
        <pt x="335" y="-25" on="0"/>
        <pt x="319" y="-25" on="1"/>
        <pt x="306" y="-24" on="0"/>
        <pt x="302" y="-16" on="1"/>
        <pt x="301" y="-14" on="0"/>
        <pt x="298" y="-7" on="1"/>
        <pt x="247" y="106" on="0"/>
        <pt x="152" y="178" on="1"/>
        <pt x="121" y="201" on="0"/>
        <pt x="97" y="213" on="1"/>
        <pt x="64" y="232" on="0"/>
        <pt x="44" y="238" on="1"/>
        <pt x="34" y="242" on="0"/>
        <pt x="34" y="258" on="0"/>
        <pt x="44" y="262" on="1"/>
        <pt x="64" y="268" on="0"/>
        <pt x="97" y="287" on="1"/>
        <pt x="235" y="363" on="0"/>
        <pt x="299" y="509" on="1"/>
        <pt x="305" y="522" on="0"/>
      </contour>
      <contour>
        <pt x="792" y="319" on="1"/>
        <pt x="783" y="327" on="1"/>
        <pt x="499" y="327" on="1"/>
        <pt x="216" y="327" on="1"/>
        <pt x="209" y="320" on="1"/>
        <pt x="175" y="289" on="0"/>
        <pt x="120" y="256" on="1"/>
        <pt x="110" y="250" on="1"/>
        <pt x="120" y="244" on="1"/>
        <pt x="173" y="212" on="0"/>
        <pt x="207" y="181" on="1"/>
        <pt x="216" y="173" on="1"/>
        <pt x="500" y="173" on="1"/>
        <pt x="783" y="173" on="1"/>
        <pt x="792" y="181" on="1"/>
        <pt x="826" y="212" on="0"/>
        <pt x="879" y="244" on="1"/>
        <pt x="889" y="250" on="1"/>
        <pt x="879" y="256" on="1"/>
        <pt x="826" y="288" on="0"/>
      </contour>
    </TTGlyph>
    <TTGlyph name="d" xMin="174" yMin="-250" xMax="422" yMax="750">
      <contour>
        <pt x="185" y="747" on="1"/>
        <pt x="190" y="750" on="1"/>
        <pt x="298" y="750" on="1"/>
        <pt x="406" y="750" on="0"/>
        <pt x="410" y="748" on="1"/>
        <pt x="418" y="743" on="0"/>
        <pt x="421" y="735" on="1"/>
        <pt x="422" y="730" on="0"/>
        <pt x="421" y="725" on="1"/>
        <pt x="418" y="717" on="0"/>
        <pt x="410" y="712" on="1"/>
        <pt x="406" y="710" on="0"/>
        <pt x="310" y="710" on="1"/>
        <pt x="214" y="710" on="1"/>
        <pt x="214" y="238" on="1"/>
        <pt x="214" y="-235" on="1"/>
        <pt x="212" y="-239" on="1"/>
        <pt x="206" y="-248" on="0"/>
        <pt x="196" y="-250" on="1"/>
        <pt x="190" y="-250" on="0"/>
        <pt x="185" y="-247" on="1"/>
        <pt x="179" y="-245" on="0"/>
        <pt x="177" y="-239" on="1"/>
        <pt x="174" y="-234" on="1"/>
        <pt x="174" y="250" on="1"/>
        <pt x="174" y="734" on="1"/>
        <pt x="177" y="739" on="1"/>
        <pt x="179" y="745" on="0"/>
      </contour>
    </TTGlyph>
    <TTGlyph name="dollar" xMin="55" yMin="-11" xMax="944" yMax="511">
      <contour>
        <pt x="274" y="509" on="1"/>
        <pt x="278" y="511" on="0"/>
        <pt x="288" y="511" on="1"/>
        <pt x="305" y="511" on="0"/>
        <pt x="307" y="504" on="1"/>
        <pt x="310" y="499" on="0"/>
        <pt x="303" y="475" on="1"/>
        <pt x="285" y="406" on="0"/>
        <pt x="246" y="352" on="1"/>
        <pt x="218" y="313" on="0"/>
        <pt x="168" y="273" on="1"/>
        <pt x="165" y="270" on="1"/>
        <pt x="500" y="270" on="1"/>
        <pt x="835" y="270" on="1"/>
        <pt x="831" y="273" on="1"/>
        <pt x="761" y="327" on="0"/>
        <pt x="725" y="398" on="1"/>
        <pt x="706" y="436" on="0"/>
        <pt x="696" y="475" on="1"/>
        <pt x="689" y="499" on="0"/>
        <pt x="692" y="504" on="1"/>
        <pt x="694" y="511" on="0"/>
        <pt x="711" y="511" on="1"/>
        <pt x="727" y="511" on="0"/>
        <pt x="730" y="503" on="1"/>
        <pt x="731" y="501" on="0"/>
        <pt x="732" y="497" on="1"/>
        <pt x="735" y="477" on="0"/>
        <pt x="743" y="456" on="1"/>
        <pt x="779" y="349" on="0"/>
        <pt x="877" y="288" on="1"/>
        <pt x="907" y="270" on="0"/>
        <pt x="935" y="261" on="1"/>
        <pt x="944" y="258" on="0"/>
        <pt x="944" y="250" on="1"/>
        <pt x="944" y="243" on="0"/>
        <pt x="933" y="238" on="1"/>
        <pt x="930" y="237" on="0"/>
        <pt x="926" y="236" on="1"/>
        <pt x="821" y="196" on="0"/>
        <pt x="765" y="95" on="1"/>
        <pt x="752" y="70" on="0"/>
        <pt x="743" y="44" on="1"/>
        <pt x="736" y="23" on="0"/>
        <pt x="732" y="4" on="1"/>
        <pt x="720" y="-10" on="0"/>
        <pt x="711" y="-11" on="1"/>
        <pt x="694" y="-11" on="0"/>
        <pt x="692" y="-4" on="1"/>
        <pt x="689" y="1" on="0"/>
        <pt x="696" y="25" on="1"/>
        <pt x="714" y="94" on="0"/>
        <pt x="753" y="148" on="1"/>
        <pt x="781" y="187" on="0"/>
        <pt x="831" y="227" on="1"/>
        <pt x="835" y="230" on="1"/>
        <pt x="500" y="230" on="1"/>
        <pt x="165" y="230" on="1"/>
        <pt x="168" y="227" on="1"/>
        <pt x="238" y="173" on="0"/>
        <pt x="274" y="102" on="1"/>
        <pt x="293" y="64" on="0"/>
        <pt x="303" y="25" on="1"/>
        <pt x="310" y="1" on="0"/>
        <pt x="307" y="-4" on="1"/>
        <pt x="305" y="-11" on="0"/>
        <pt x="288" y="-11" on="1"/>
        <pt x="272" y="-11" on="0"/>
        <pt x="269" y="-2" on="1"/>
        <pt x="268" y="0" on="0"/>
        <pt x="267" y="4" on="1"/>
        <pt x="265" y="11" on="0"/>
        <pt x="263" y="21" on="1"/>
        <pt x="235" y="135" on="0"/>
        <pt x="136" y="203" on="1"/>
        <pt x="106" y="223" on="0"/>
        <pt x="73" y="236" on="1"/>
        <pt x="58" y="242" on="0"/>
        <pt x="55" y="247" on="1"/>
        <pt x="55" y="254" on="0"/>
        <pt x="58" y="257" on="1"/>
        <pt x="62" y="261" on="0"/>
        <pt x="73" y="264" on="1"/>
        <pt x="182" y="307" on="0"/>
        <pt x="236" y="409" on="1"/>
        <pt x="254" y="443" on="0"/>
        <pt x="263" y="479" on="1"/>
        <pt x="264" y="485" on="0"/>
        <pt x="267" y="497" on="1"/>
        <pt x="270" y="508" on="0"/>
      </contour>
    </TTGlyph>
    <TTGlyph name="e" xMin="21" yMin="-250" xMax="269" yMax="750">
      <contour>
        <pt x="34" y="748" on="1"/>
        <pt x="37" y="750" on="0"/>
        <pt x="147" y="750" on="1"/>
        <pt x="256" y="750" on="1"/>
        <pt x="260" y="747" on="1"/>
        <pt x="265" y="742" on="0"/>
        <pt x="267" y="739" on="1"/>
        <pt x="269" y="735" on="1"/>
        <pt x="269" y="250" on="1"/>
        <pt x="269" y="-235" on="1"/>
        <pt x="267" y="-239" on="1"/>
        <pt x="261" y="-248" on="0"/>
        <pt x="251" y="-250" on="1"/>
        <pt x="245" y="-250" on="0"/>
        <pt x="240" y="-247" on="1"/>
        <pt x="234" y="-245" on="0"/>
        <pt x="232" y="-239" on="1"/>
        <pt x="229" y="-234" on="1"/>
        <pt x="229" y="238" on="1"/>
        <pt x="229" y="710" on="1"/>
        <pt x="133" y="710" on="1"/>
        <pt x="37" y="710" on="0"/>
        <pt x="34" y="712" on="1"/>
        <pt x="25" y="717" on="0"/>
        <pt x="22" y="725" on="1"/>
        <pt x="21" y="730" on="0"/>
        <pt x="22" y="735" on="1"/>
        <pt x="25" y="743" on="0"/>
      </contour>
    </TTGlyph>
    <TTGlyph name="eight" xMin="0" yMin="-22" xMax="556" yMax="694">
      <contour>
        <pt x="11" y="691" on="1"/>
        <pt x="15" y="694" on="0"/>
        <pt x="20" y="694" on="1"/>
        <pt x="30" y="694" on="0"/>
        <pt x="35" y="687" on="1"/>
        <pt x="38" y="684" on="0"/>
        <pt x="82" y="567" on="1"/>
        <pt x="126" y="451" on="1"/>
        <pt x="278" y="451" on="1"/>
        <pt x="430" y="451" on="1"/>
        <pt x="473" y="566" on="1"/>
        <pt x="519" y="685" on="1"/>
        <pt x="524" y="694" on="0"/>
        <pt x="538" y="694" on="1"/>
        <pt x="553" y="692" on="0"/>
        <pt x="556" y="674" on="1"/>
        <pt x="556" y="671" on="0"/>
        <pt x="426" y="329" on="1"/>
        <pt x="294" y="-14" on="0"/>
        <pt x="293" y="-15" on="1"/>
        <pt x="288" y="-22" on="0"/>
        <pt x="268" y="-22" on="0"/>
        <pt x="263" y="-15" on="1"/>
        <pt x="255" y="-5" on="0"/>
        <pt x="20" y="620" on="1"/>
        <pt x="0" y="672" on="0"/>
        <pt x="0" y="673" on="1"/>
        <pt x="0" y="679" on="0"/>
        <pt x="3" y="683" on="1"/>
        <pt x="5" y="689" on="0"/>
      </contour>
      <contour>
        <pt x="414" y="410" on="1"/>
        <pt x="414" y="411" on="0"/>
        <pt x="142" y="411" on="0"/>
        <pt x="142" y="410" on="1"/>
        <pt x="278" y="55" on="1"/>
      </contour>
    </TTGlyph>
    <TTGlyph name="equal" xMin="54" yMin="-10" xMax="698" yMax="706">
      <contour>
        <pt x="231" y="704" on="1"/>
        <pt x="259" y="706" on="0"/>
        <pt x="287" y="702" on="1"/>
        <pt x="342" y="692" on="0"/>
        <pt x="400" y="649" on="1"/>
        <pt x="430" y="626" on="0"/>
        <pt x="494" y="566" on="1"/>
        <pt x="530" y="530" on="0"/>
        <pt x="540" y="525" on="1"/>
        <pt x="545" y="523" on="0"/>
        <pt x="566" y="523" on="1"/>
        <pt x="633" y="523" on="0"/>
        <pt x="637" y="550" on="1"/>
        <pt x="638" y="561" on="0"/>
        <pt x="644" y="562" on="1"/>
        <pt x="648" y="563" on="0"/>
        <pt x="665" y="563" on="1"/>
        <pt x="689" y="563" on="0"/>
        <pt x="692" y="558" on="1"/>
        <pt x="698" y="545" on="0"/>
        <pt x="684" y="520" on="1"/>
        <pt x="682" y="517" on="0"/>
        <pt x="680" y="514" on="1"/>
        <pt x="661" y="490" on="0"/>
        <pt x="617" y="481" on="1"/>
        <pt x="574" y="472" on="0"/>
        <pt x="534" y="476" on="1"/>
        <pt x="476" y="482" on="0"/>
        <pt x="428" y="518" on="1"/>
        <pt x="404" y="537" on="0"/>
        <pt x="366" y="582" on="1"/>
        <pt x="316" y="640" on="0"/>
        <pt x="286" y="652" on="1"/>
        <pt x="280" y="654" on="0"/>
        <pt x="273" y="656" on="1"/>
        <pt x="259" y="660" on="0"/>
        <pt x="230" y="656" on="1"/>
        <pt x="205" y="652" on="0"/>
        <pt x="182" y="637" on="1"/>
        <pt x="126" y="602" on="0"/>
        <pt x="114" y="533" on="1"/>
        <pt x="109" y="506" on="0"/>
        <pt x="113" y="476" on="1"/>
        <pt x="123" y="430" on="0"/>
        <pt x="153" y="400" on="1"/>
        <pt x="200" y="351" on="0"/>
        <pt x="268" y="347" on="1"/>
        <pt x="285" y="346" on="0"/>
        <pt x="286" y="340" on="1"/>
        <pt x="287" y="337" on="0"/>
        <pt x="287" y="324" on="1"/>
        <pt x="287" y="305" on="0"/>
        <pt x="282" y="301" on="1"/>
        <pt x="269" y="295" on="0"/>
        <pt x="218" y="308" on="1"/>
        <pt x="215" y="308" on="0"/>
        <pt x="212" y="309" on="1"/>
        <pt x="161" y="323" on="0"/>
        <pt x="125" y="355" on="1"/>
        <pt x="64" y="407" on="0"/>
        <pt x="56" y="484" on="1"/>
        <pt x="54" y="514" on="0"/>
        <pt x="57" y="535" on="1"/>
        <pt x="66" y="586" on="0"/>
        <pt x="98" y="629" on="1"/>
        <pt x="116" y="650" on="0"/>
        <pt x="130" y="661" on="1"/>
        <pt x="175" y="698" on="0"/>
      </contour>
      <contour>
        <pt x="531" y="430" on="1"/>
        <pt x="552" y="432" on="0"/>
        <pt x="574" y="430" on="1"/>
        <pt x="616" y="426" on="0"/>
        <pt x="649" y="404" on="1"/>
        <pt x="671" y="388" on="0"/>
        <pt x="681" y="371" on="1"/>
        <pt x="697" y="344" on="0"/>
        <pt x="692" y="321" on="1"/>
        <pt x="688" y="316" on="0"/>
        <pt x="665" y="316" on="1"/>
        <pt x="640" y="316" on="0"/>
        <pt x="638" y="323" on="1"/>
        <pt x="637" y="325" on="0"/>
        <pt x="637" y="331" on="1"/>
        <pt x="633" y="367" on="0"/>
        <pt x="586" y="380" on="1"/>
        <pt x="579" y="382" on="0"/>
        <pt x="571" y="383" on="1"/>
        <pt x="542" y="387" on="0"/>
        <pt x="528" y="373" on="1"/>
        <pt x="510" y="355" on="0"/>
        <pt x="507" y="313" on="1"/>
        <pt x="507" y="293" on="0"/>
        <pt x="512" y="282" on="1"/>
        <pt x="522" y="261" on="0"/>
        <pt x="562" y="232" on="1"/>
        <pt x="612" y="197" on="0"/>
        <pt x="624" y="177" on="1"/>
        <pt x="626" y="173" on="0"/>
        <pt x="628" y="169" on="1"/>
        <pt x="636" y="154" on="0"/>
        <pt x="636" y="134" on="1"/>
        <pt x="636" y="96" on="0"/>
        <pt x="613" y="61" on="1"/>
        <pt x="596" y="38" on="0"/>
        <pt x="573" y="22" on="1"/>
        <pt x="539" y="0" on="0"/>
        <pt x="492" y="-9" on="1"/>
        <pt x="484" y="-10" on="0"/>
        <pt x="352" y="-10" on="0"/>
        <pt x="342" y="-8" on="1"/>
        <pt x="294" y="2" on="0"/>
        <pt x="231" y="50" on="1"/>
        <pt x="225" y="54" on="0"/>
        <pt x="219" y="59" on="1"/>
        <pt x="160" y="105" on="0"/>
        <pt x="133" y="118" on="1"/>
        <pt x="103" y="134" on="0"/>
        <pt x="71" y="136" on="1"/>
        <pt x="61" y="136" on="0"/>
        <pt x="58" y="139" on="1"/>
        <pt x="55" y="142" on="1"/>
        <pt x="55" y="158" on="1"/>
        <pt x="55" y="180" on="0"/>
        <pt x="61" y="182" on="1"/>
        <pt x="63" y="183" on="0"/>
        <pt x="118" y="183" on="1"/>
        <pt x="180" y="182" on="0"/>
        <pt x="201" y="175" on="1"/>
        <pt x="243" y="160" on="0"/>
        <pt x="311" y="95" on="1"/>
        <pt x="365" y="44" on="0"/>
        <pt x="395" y="26" on="1"/>
        <pt x="415" y="15" on="0"/>
        <pt x="421" y="15" on="1"/>
        <pt x="430" y="15" on="0"/>
        <pt x="454" y="27" on="1"/>
        <pt x="475" y="37" on="0"/>
        <pt x="493" y="55" on="1"/>
        <pt x="515" y="76" on="0"/>
        <pt x="525" y="108" on="1"/>
        <pt x="527" y="116" on="0"/>
        <pt x="527" y="134" on="1"/>
        <pt x="527" y="156" on="0"/>
        <pt x="518" y="168" on="1"/>
        <pt x="507" y="186" on="0"/>
        <pt x="461" y="217" on="1"/>
        <pt x="421" y="246" on="0"/>
        <pt x="407" y="272" on="1"/>
        <pt x="399" y="288" on="0"/>
        <pt x="399" y="311" on="1"/>
        <pt x="402" y="353" on="0"/>
        <pt x="431" y="383" on="1"/>
        <pt x="466" y="421" on="0"/>
      </contour>
    </TTGlyph>
    <TTGlyph name="exclam" xMin="56" yMin="-11" xMax="944" yMax="511">
      <contour>
        <pt x="696" y="509" on="1"/>
        <pt x="699" y="511" on="0"/>
        <pt x="711" y="511" on="1"/>
        <pt x="727" y="511" on="0"/>
        <pt x="730" y="503" on="1"/>
        <pt x="731" y="501" on="0"/>
        <pt x="732" y="497" on="1"/>
        <pt x="735" y="477" on="0"/>
        <pt x="743" y="456" on="1"/>
        <pt x="779" y="349" on="0"/>
        <pt x="877" y="288" on="1"/>
        <pt x="907" y="270" on="0"/>
        <pt x="935" y="261" on="1"/>
        <pt x="944" y="258" on="0"/>
        <pt x="944" y="250" on="1"/>
        <pt x="944" y="243" on="0"/>
        <pt x="933" y="238" on="1"/>
        <pt x="930" y="237" on="0"/>
        <pt x="926" y="236" on="1"/>
        <pt x="821" y="196" on="0"/>
        <pt x="765" y="95" on="1"/>
        <pt x="752" y="70" on="0"/>
        <pt x="743" y="44" on="1"/>
        <pt x="736" y="23" on="0"/>
        <pt x="732" y="4" on="1"/>
        <pt x="720" y="-10" on="0"/>
        <pt x="711" y="-11" on="1"/>
        <pt x="694" y="-11" on="0"/>
        <pt x="692" y="-4" on="1"/>
        <pt x="689" y="1" on="0"/>
        <pt x="696" y="25" on="1"/>
        <pt x="714" y="94" on="0"/>
        <pt x="753" y="148" on="1"/>
        <pt x="781" y="187" on="0"/>
        <pt x="831" y="227" on="1"/>
        <pt x="835" y="230" on="1"/>
        <pt x="452" y="230" on="1"/>
        <pt x="70" y="230" on="1"/>
        <pt x="66" y="232" on="1"/>
        <pt x="60" y="236" on="0"/>
        <pt x="59" y="239" on="1"/>
        <pt x="56" y="243" on="0"/>
        <pt x="56" y="257" on="0"/>
        <pt x="59" y="261" on="1"/>
        <pt x="60" y="264" on="0"/>
        <pt x="66" y="268" on="1"/>
        <pt x="70" y="270" on="1"/>
        <pt x="452" y="270" on="1"/>
        <pt x="835" y="270" on="1"/>
        <pt x="831" y="273" on="1"/>
        <pt x="761" y="327" on="0"/>
        <pt x="725" y="398" on="1"/>
        <pt x="700" y="446" on="0"/>
        <pt x="692" y="493" on="1"/>
        <pt x="690" y="504" on="0"/>
      </contour>
    </TTGlyph>
    <TTGlyph name="f" xMin="60" yMin="-250" xMax="439" yMax="750">
      <contour>
        <pt x="378" y="749" on="1"/>
        <pt x="380" y="750" on="0"/>
        <pt x="408" y="750" on="1"/>
        <pt x="433" y="750" on="1"/>
        <pt x="436" y="747" on="1"/>
        <pt x="439" y="744" on="1"/>
        <pt x="439" y="727" on="1"/>
        <pt x="439" y="709" on="1"/>
        <pt x="436" y="706" on="1"/>
        <pt x="434" y="703" on="0"/>
        <pt x="420" y="703" on="1"/>
        <pt x="328" y="699" on="0"/>
        <pt x="302" y="649" on="1"/>
        <pt x="300" y="645" on="0"/>
        <pt x="299" y="641" on="1"/>
        <pt x="297" y="635" on="1"/>
        <pt x="296" y="500" on="1"/>
        <pt x="295" y="364" on="0"/>
        <pt x="294" y="358" on="1"/>
        <pt x="282" y="311" on="0"/>
        <pt x="241" y="282" on="1"/>
        <pt x="218" y="264" on="0"/>
        <pt x="187" y="255" on="1"/>
        <pt x="173" y="250" on="1"/>
        <pt x="187" y="245" on="1"/>
        <pt x="218" y="236" on="0"/>
        <pt x="241" y="218" on="1"/>
        <pt x="282" y="189" on="0"/>
        <pt x="294" y="142" on="1"/>
        <pt x="295" y="136" on="0"/>
        <pt x="296" y="0" on="1"/>
        <pt x="297" y="-134" on="1"/>
        <pt x="299" y="-141" on="1"/>
        <pt x="317" y="-192" on="0"/>
        <pt x="402" y="-202" on="1"/>
        <pt x="411" y="-203" on="0"/>
        <pt x="420" y="-203" on="1"/>
        <pt x="434" y="-203" on="0"/>
        <pt x="436" y="-206" on="1"/>
        <pt x="439" y="-209" on="1"/>
        <pt x="439" y="-227" on="1"/>
        <pt x="439" y="-244" on="1"/>
        <pt x="436" y="-247" on="1"/>
        <pt x="433" y="-250" on="1"/>
        <pt x="402" y="-250" on="1"/>
        <pt x="355" y="-249" on="0"/>
        <pt x="320" y="-240" on="1"/>
        <pt x="266" y="-226" on="0"/>
        <pt x="237" y="-198" on="1"/>
        <pt x="214" y="-175" on="0"/>
        <pt x="206" y="-143" on="1"/>
        <pt x="204" y="-137" on="0"/>
        <pt x="204" y="-3" on="1"/>
        <pt x="203" y="137" on="0"/>
        <pt x="200" y="145" on="1"/>
        <pt x="200" y="146" on="0"/>
        <pt x="197" y="152" on="1"/>
        <pt x="179" y="199" on="0"/>
        <pt x="120" y="219" on="1"/>
        <pt x="101" y="225" on="0"/>
        <pt x="81" y="226" on="1"/>
        <pt x="63" y="227" on="0"/>
        <pt x="61" y="233" on="1"/>
        <pt x="60" y="236" on="0"/>
        <pt x="60" y="250" on="1"/>
        <pt x="60" y="270" on="0"/>
        <pt x="66" y="272" on="1"/>
        <pt x="69" y="273" on="0"/>
        <pt x="81" y="274" on="1"/>
        <pt x="146" y="278" on="0"/>
        <pt x="182" y="323" on="1"/>
        <pt x="192" y="335" on="0"/>
        <pt x="197" y="348" on="1"/>
        <pt x="203" y="361" on="0"/>
        <pt x="203" y="400" on="1"/>
        <pt x="203" y="402" on="0"/>
        <pt x="204" y="503" on="1"/>
        <pt x="204" y="637" on="0"/>
        <pt x="206" y="643" on="1"/>
        <pt x="214" y="675" on="0"/>
        <pt x="237" y="698" on="1"/>
        <pt x="239" y="700" on="0"/>
        <pt x="255" y="712" on="1"/>
        <pt x="280" y="728" on="0"/>
        <pt x="300" y="734" on="1"/>
        <pt x="330" y="745" on="0"/>
      </contour>
    </TTGlyph>
    <TTGlyph name="five" xMin="57" yMin="-215" xMax="828" yMax="500">
      <contour>
        <pt x="70" y="497" on="1"/>
        <pt x="75" y="500" on="1"/>
        <pt x="445" y="500" on="1"/>
        <pt x="814" y="500" on="1"/>
        <pt x="818" y="498" on="1"/>
        <pt x="821" y="496" on="0"/>
        <pt x="826" y="491" on="1"/>
        <pt x="828" y="487" on="0"/>
        <pt x="828" y="480" on="1"/>
        <pt x="828" y="474" on="1"/>
        <pt x="644" y="132" on="1"/>
        <pt x="458" y="-210" on="0"/>
        <pt x="455" y="-212" on="1"/>
        <pt x="451" y="-215" on="0"/>
        <pt x="437" y="-215" on="0"/>
        <pt x="433" y="-212" on="1"/>
        <pt x="429" y="-210" on="0"/>
        <pt x="249" y="124" on="1"/>
        <pt x="64" y="465" on="0"/>
        <pt x="64" y="466" on="1"/>
        <pt x="57" y="480" on="0"/>
        <pt x="62" y="489" on="1"/>
        <pt x="64" y="495" on="0"/>
      </contour>
      <contour>
        <pt x="775" y="460" on="1"/>
        <pt x="444" y="460" on="1"/>
        <pt x="113" y="460" on="1"/>
        <pt x="444" y="-153" on="1"/>
      </contour>
    </TTGlyph>
    <TTGlyph name="four" xMin="57" yMin="0" xMax="828" yMax="720">
      <contour>
        <pt x="435" y="714" on="1"/>
        <pt x="446" y="720" on="0"/>
        <pt x="455" y="712" on="1"/>
        <pt x="459" y="710" on="0"/>
        <pt x="644" y="368" on="1"/>
        <pt x="828" y="27" on="1"/>
        <pt x="828" y="20" on="1"/>
        <pt x="828" y="13" on="0"/>
        <pt x="826" y="9" on="1"/>
        <pt x="821" y="4" on="0"/>
        <pt x="818" y="2" on="1"/>
        <pt x="814" y="0" on="1"/>
        <pt x="445" y="0" on="1"/>
        <pt x="75" y="0" on="1"/>
        <pt x="70" y="3" on="1"/>
        <pt x="64" y="5" on="0"/>
        <pt x="62" y="11" on="1"/>
        <pt x="57" y="20" on="0"/>
        <pt x="62" y="30" on="1"/>
        <pt x="428" y="707" on="1"/>
      </contour>
      <contour>
        <pt x="610" y="347" on="1"/>
        <pt x="444" y="653" on="1"/>
        <pt x="113" y="40" on="1"/>
        <pt x="444" y="40" on="1"/>
        <pt x="775" y="40" on="1"/>
        <pt x="775" y="42" on="0"/>
      </contour>
    </TTGlyph>
    <TTGlyph name="g" xMin="60" yMin="-253" xMax="439" yMax="753">
      <contour>
        <pt x="65" y="749" on="1"/>
        <pt x="71" y="753" on="0"/>
        <pt x="133" y="749" on="1"/>
        <pt x="137" y="748" on="0"/>
        <pt x="140" y="748" on="1"/>
        <pt x="221" y="738" on="0"/>
        <pt x="263" y="697" on="1"/>
        <pt x="286" y="676" on="0"/>
        <pt x="294" y="643" on="1"/>
        <pt x="296" y="637" on="0"/>
        <pt x="296" y="503" on="1"/>
        <pt x="297" y="367" on="0"/>
        <pt x="299" y="360" on="1"/>
        <pt x="307" y="332" on="0"/>
        <pt x="326" y="313" on="1"/>
        <pt x="363" y="277" on="0"/>
        <pt x="418" y="274" on="1"/>
        <pt x="436" y="273" on="0"/>
        <pt x="438" y="267" on="1"/>
        <pt x="439" y="264" on="0"/>
        <pt x="439" y="250" on="1"/>
        <pt x="439" y="230" on="0"/>
        <pt x="433" y="228" on="1"/>
        <pt x="430" y="227" on="0"/>
        <pt x="418" y="226" on="1"/>
        <pt x="363" y="223" on="0"/>
        <pt x="326" y="187" on="1"/>
        <pt x="307" y="168" on="0"/>
        <pt x="299" y="140" on="1"/>
        <pt x="297" y="133" on="0"/>
        <pt x="296" y="-3" on="1"/>
        <pt x="296" y="-137" on="0"/>
        <pt x="294" y="-143" on="1"/>
        <pt x="286" y="-176" on="0"/>
        <pt x="263" y="-197" on="1"/>
        <pt x="221" y="-238" on="0"/>
        <pt x="140" y="-248" on="1"/>
        <pt x="98" y="-253" on="0"/>
        <pt x="66" y="-249" on="1"/>
        <pt x="60" y="-247" on="0"/>
        <pt x="60" y="-225" on="1"/>
        <pt x="60" y="-209" on="1"/>
        <pt x="63" y="-206" on="1"/>
        <pt x="65" y="-203" on="0"/>
        <pt x="80" y="-203" on="1"/>
        <pt x="172" y="-199" on="0"/>
        <pt x="198" y="-149" on="1"/>
        <pt x="200" y="-145" on="0"/>
        <pt x="201" y="-141" on="1"/>
        <pt x="203" y="-134" on="1"/>
        <pt x="204" y="0" on="1"/>
        <pt x="205" y="139" on="0"/>
        <pt x="208" y="149" on="1"/>
        <pt x="211" y="156" on="1"/>
        <pt x="226" y="201" on="0"/>
        <pt x="276" y="229" on="1"/>
        <pt x="296" y="240" on="0"/>
        <pt x="317" y="247" on="1"/>
        <pt x="325" y="250" on="0"/>
        <pt x="326" y="250" on="1"/>
        <pt x="317" y="253" on="1"/>
        <pt x="296" y="260" on="0"/>
        <pt x="276" y="271" on="1"/>
        <pt x="226" y="299" on="0"/>
        <pt x="211" y="344" on="1"/>
        <pt x="205" y="359" on="0"/>
        <pt x="205" y="400" on="1"/>
        <pt x="204" y="500" on="1"/>
        <pt x="203" y="635" on="1"/>
        <pt x="201" y="641" on="1"/>
        <pt x="183" y="692" on="0"/>
        <pt x="98" y="702" on="1"/>
        <pt x="89" y="703" on="0"/>
        <pt x="80" y="703" on="1"/>
        <pt x="65" y="703" on="0"/>
        <pt x="63" y="706" on="1"/>
        <pt x="60" y="709" on="1"/>
        <pt x="60" y="726" on="1"/>
        <pt x="60" y="745" on="0"/>
      </contour>
    </TTGlyph>
    <TTGlyph name="grave" xMin="55" yMin="0" xMax="555" yMax="694">
      <contour>
        <pt x="66" y="691" on="1"/>
        <pt x="71" y="694" on="0"/>
        <pt x="77" y="694" on="1"/>
        <pt x="87" y="692" on="0"/>
        <pt x="93" y="683" on="1"/>
        <pt x="95" y="679" on="1"/>
        <pt x="95" y="523" on="1"/>
        <pt x="95" y="367" on="1"/>
        <pt x="317" y="367" on="1"/>
        <pt x="540" y="367" on="1"/>
        <pt x="544" y="365" on="1"/>
        <pt x="547" y="363" on="0"/>
        <pt x="552" y="358" on="1"/>
        <pt x="555" y="352" on="0"/>
        <pt x="555" y="342" on="0"/>
        <pt x="552" y="336" on="1"/>
        <pt x="547" y="331" on="0"/>
        <pt x="544" y="329" on="1"/>
        <pt x="540" y="327" on="1"/>
        <pt x="317" y="327" on="1"/>
        <pt x="95" y="327" on="1"/>
        <pt x="95" y="171" on="1"/>
        <pt x="95" y="15" on="1"/>
        <pt x="93" y="11" on="1"/>
        <pt x="87" y="2" on="0"/>
        <pt x="77" y="0" on="1"/>
        <pt x="71" y="0" on="0"/>
        <pt x="66" y="3" on="1"/>
        <pt x="60" y="5" on="0"/>
        <pt x="58" y="11" on="1"/>
        <pt x="55" y="16" on="1"/>
        <pt x="55" y="347" on="1"/>
        <pt x="55" y="678" on="1"/>
        <pt x="58" y="683" on="1"/>
        <pt x="60" y="689" on="0"/>
      </contour>
    </TTGlyph>
    <TTGlyph name="greater" xMin="53" yMin="0" xMax="723" yMax="668">
      <contour>
        <pt x="66" y="665" on="1"/>
        <pt x="71" y="668" on="1"/>
        <pt x="390" y="668" on="1"/>
        <pt x="708" y="668" on="1"/>
        <pt x="712" y="666" on="1"/>
        <pt x="715" y="664" on="0"/>
        <pt x="720" y="659" on="1"/>
        <pt x="723" y="653" on="0"/>
        <pt x="723" y="643" on="0"/>
        <pt x="720" y="637" on="1"/>
        <pt x="715" y="632" on="0"/>
        <pt x="712" y="630" on="1"/>
        <pt x="708" y="628" on="1"/>
        <pt x="558" y="628" on="1"/>
        <pt x="409" y="628" on="1"/>
        <pt x="409" y="322" on="1"/>
        <pt x="409" y="15" on="1"/>
        <pt x="407" y="11" on="1"/>
        <pt x="401" y="2" on="0"/>
        <pt x="391" y="0" on="1"/>
        <pt x="385" y="0" on="0"/>
        <pt x="380" y="3" on="1"/>
        <pt x="374" y="5" on="0"/>
        <pt x="372" y="11" on="1"/>
        <pt x="369" y="16" on="1"/>
        <pt x="369" y="322" on="1"/>
        <pt x="369" y="628" on="1"/>
        <pt x="220" y="628" on="1"/>
        <pt x="71" y="628" on="1"/>
        <pt x="66" y="631" on="1"/>
        <pt x="60" y="633" on="0"/>
        <pt x="58" y="639" on="1"/>
        <pt x="53" y="648" on="0"/>
        <pt x="58" y="657" on="1"/>
        <pt x="60" y="663" on="0"/>
      </contour>
    </TTGlyph>
    <TTGlyph name="h" xMin="110" yMin="-256" xMax="333" yMax="750">
      <contour>
        <pt x="306" y="749" on="1"/>
        <pt x="312" y="750" on="1"/>
        <pt x="313" y="750" on="1"/>
        <pt x="328" y="750" on="0"/>
        <pt x="333" y="732" on="1"/>
        <pt x="333" y="727" on="0"/>
        <pt x="243" y="489" on="1"/>
        <pt x="152" y="252" on="0"/>
        <pt x="152" y="248" on="0"/>
        <pt x="243" y="11" on="1"/>
        <pt x="333" y="-227" on="0"/>
        <pt x="333" y="-232" on="1"/>
        <pt x="331" y="-242" on="0"/>
        <pt x="322" y="-248" on="1"/>
        <pt x="308" y="-256" on="0"/>
        <pt x="296" y="-240" on="1"/>
        <pt x="291" y="-230" on="0"/>
        <pt x="202" y="5" on="1"/>
        <pt x="110" y="246" on="0"/>
        <pt x="110" y="254" on="0"/>
        <pt x="202" y="495" on="1"/>
        <pt x="291" y="730" on="0"/>
        <pt x="296" y="740" on="1"/>
        <pt x="299" y="745" on="0"/>
      </contour>
    </TTGlyph>
    <TTGlyph name="hyphen" xMin="28" yMin="-197" xMax="948" yMax="722">
      <contour>
        <pt x="377" y="711" on="1"/>
        <pt x="393" y="722" on="0"/>
        <pt x="397" y="719" on="1"/>
        <pt x="400" y="717" on="0"/>
        <pt x="407" y="710" on="1"/>
        <pt x="417" y="701" on="0"/>
        <pt x="417" y="697" on="1"/>
        <pt x="417" y="690" on="0"/>
        <pt x="400" y="679" on="1"/>
        <pt x="331" y="636" on="0"/>
        <pt x="248" y="625" on="1"/>
        <pt x="194" y="619" on="0"/>
        <pt x="153" y="628" on="1"/>
        <pt x="150" y="628" on="0"/>
        <pt x="942" y="-164" on="0"/>
        <pt x="943" y="-168" on="1"/>
        <pt x="948" y="-185" on="0"/>
        <pt x="933" y="-193" on="1"/>
        <pt x="925" y="-197" on="0"/>
        <pt x="916" y="-193" on="1"/>
        <pt x="912" y="-191" on="0"/>
        <pt x="517" y="204" on="1"/>
        <pt x="122" y="597" on="0"/>
        <pt x="121" y="598" on="1"/>
        <pt x="122" y="596" on="0"/>
        <pt x="124" y="582" on="1"/>
        <pt x="128" y="543" on="0"/>
        <pt x="124" y="500" on="1"/>
        <pt x="114" y="418" on="0"/>
        <pt x="70" y="349" on="1"/>
        <pt x="59" y="332" on="0"/>
        <pt x="52" y="332" on="1"/>
        <pt x="48" y="332" on="0"/>
        <pt x="39" y="342" on="1"/>
        <pt x="28" y="353" on="0"/>
        <pt x="30" y="358" on="1"/>
        <pt x="31" y="361" on="0"/>
        <pt x="38" y="372" on="1"/>
        <pt x="74" y="431" on="0"/>
        <pt x="84" y="498" on="1"/>
        <pt x="89" y="531" on="0"/>
        <pt x="85" y="583" on="1"/>
        <pt x="78" y="630" on="0"/>
        <pt x="59" y="671" on="1"/>
        <pt x="55" y="681" on="0"/>
        <pt x="55" y="683" on="1"/>
        <pt x="55" y="692" on="0"/>
        <pt x="67" y="694" on="1"/>
        <pt x="81" y="689" on="1"/>
        <pt x="82" y="688" on="1"/>
        <pt x="126" y="668" on="0"/>
        <pt x="179" y="663" on="1"/>
        <pt x="217" y="659" on="0"/>
        <pt x="253" y="665" on="1"/>
        <pt x="321" y="676" on="0"/>
      </contour>
    </TTGlyph>
    <TTGlyph name="i" xMin="55" yMin="-255" xMax="278" yMax="756">
      <contour>
        <pt x="66" y="748" on="1"/>
        <pt x="80" y="756" on="0"/>
        <pt x="92" y="740" on="1"/>
        <pt x="97" y="730" on="0"/>
        <pt x="186" y="495" on="1"/>
        <pt x="278" y="254" on="0"/>
        <pt x="278" y="246" on="0"/>
        <pt x="186" y="5" on="1"/>
        <pt x="97" y="-230" on="0"/>
        <pt x="92" y="-240" on="1"/>
        <pt x="84" y="-255" on="0"/>
        <pt x="66" y="-248" on="1"/>
        <pt x="57" y="-242" on="0"/>
        <pt x="55" y="-232" on="1"/>
        <pt x="55" y="-227" on="0"/>
        <pt x="145" y="11" on="1"/>
        <pt x="236" y="248" on="0"/>
        <pt x="236" y="252" on="0"/>
        <pt x="145" y="489" on="1"/>
        <pt x="55" y="727" on="0"/>
        <pt x="55" y="732" on="1"/>
        <pt x="57" y="742" on="0"/>
      </contour>
    </TTGlyph>
    <TTGlyph name="idieresis" xMin="55" yMin="-11" xMax="944" yMax="511">
      <contour>
        <pt x="274" y="509" on="1"/>
        <pt x="278" y="511" on="0"/>
        <pt x="288" y="511" on="1"/>
        <pt x="305" y="511" on="0"/>
        <pt x="307" y="504" on="1"/>
        <pt x="310" y="499" on="0"/>
        <pt x="303" y="475" on="1"/>
        <pt x="285" y="406" on="0"/>
        <pt x="246" y="352" on="1"/>
        <pt x="218" y="313" on="0"/>
        <pt x="168" y="273" on="1"/>
        <pt x="165" y="270" on="1"/>
        <pt x="547" y="270" on="1"/>
        <pt x="929" y="270" on="1"/>
        <pt x="933" y="268" on="1"/>
        <pt x="939" y="264" on="0"/>
        <pt x="940" y="261" on="1"/>
        <pt x="944" y="256" on="0"/>
        <pt x="944" y="244" on="0"/>
        <pt x="940" y="239" on="1"/>
        <pt x="939" y="236" on="0"/>
        <pt x="933" y="232" on="1"/>
        <pt x="929" y="230" on="1"/>
        <pt x="547" y="230" on="1"/>
        <pt x="165" y="230" on="1"/>
        <pt x="168" y="227" on="1"/>
        <pt x="238" y="173" on="0"/>
        <pt x="274" y="102" on="1"/>
        <pt x="293" y="64" on="0"/>
        <pt x="303" y="25" on="1"/>
        <pt x="310" y="1" on="0"/>
        <pt x="307" y="-4" on="1"/>
        <pt x="305" y="-11" on="0"/>
        <pt x="288" y="-11" on="1"/>
        <pt x="272" y="-11" on="0"/>
        <pt x="269" y="-2" on="1"/>
        <pt x="268" y="0" on="0"/>
        <pt x="267" y="4" on="1"/>
        <pt x="265" y="11" on="0"/>
        <pt x="263" y="21" on="1"/>
        <pt x="235" y="135" on="0"/>
        <pt x="136" y="203" on="1"/>
        <pt x="106" y="223" on="0"/>
        <pt x="73" y="236" on="1"/>
        <pt x="58" y="242" on="0"/>
        <pt x="55" y="247" on="1"/>
        <pt x="55" y="254" on="0"/>
        <pt x="58" y="257" on="1"/>
        <pt x="62" y="261" on="0"/>
        <pt x="73" y="264" on="1"/>
        <pt x="182" y="307" on="0"/>
        <pt x="236" y="409" on="1"/>
        <pt x="254" y="443" on="0"/>
        <pt x="263" y="479" on="1"/>
        <pt x="264" y="485" on="0"/>
        <pt x="267" y="497" on="1"/>
        <pt x="270" y="508" on="0"/>
      </contour>
    </TTGlyph>
    <TTGlyph name="j" xMin="119" yMin="-249" xMax="159" yMax="756">
      <contour>
        <pt x="130" y="748" on="1"/>
        <pt x="144" y="756" on="0"/>
        <pt x="157" y="739" on="1"/>
        <pt x="159" y="735" on="1"/>
        <pt x="159" y="250" on="1"/>
        <pt x="159" y="-235" on="1"/>
        <pt x="157" y="-239" on="1"/>
        <pt x="154" y="-244" on="0"/>
        <pt x="150" y="-246" on="1"/>
        <pt x="146" y="-249" on="0"/>
        <pt x="132" y="-249" on="0"/>
        <pt x="128" y="-246" on="1"/>
        <pt x="124" y="-244" on="0"/>
        <pt x="121" y="-239" on="1"/>
        <pt x="119" y="-235" on="1"/>
        <pt x="119" y="251" on="1"/>
        <pt x="120" y="737" on="1"/>
        <pt x="123" y="741" on="1"/>
      </contour>
    </TTGlyph>
    <TTGlyph name="k" xMin="132" yMin="-257" xMax="367" yMax="756">
      <contour>
        <pt x="145" y="748" on="1"/>
        <pt x="160" y="756" on="0"/>
        <pt x="170" y="739" on="1"/>
        <pt x="172" y="735" on="0"/>
        <pt x="172" y="-235" on="0"/>
        <pt x="170" y="-239" on="1"/>
        <pt x="162" y="-255" on="0"/>
        <pt x="145" y="-249" on="1"/>
        <pt x="141" y="-247" on="0"/>
        <pt x="138" y="-244" on="1"/>
        <pt x="134" y="-240" on="0"/>
        <pt x="134" y="-226" on="1"/>
        <pt x="132" y="-192" on="0"/>
        <pt x="132" y="250" on="1"/>
        <pt x="132" y="731" on="0"/>
        <pt x="133" y="736" on="1"/>
        <pt x="136" y="744" on="0"/>
      </contour>
      <contour>
        <pt x="339" y="748" on="1"/>
        <pt x="349" y="754" on="0"/>
        <pt x="361" y="744" on="1"/>
        <pt x="365" y="740" on="0"/>
        <pt x="365" y="726" on="1"/>
        <pt x="367" y="692" on="0"/>
        <pt x="367" y="250" on="1"/>
        <pt x="367" y="-236" on="0"/>
        <pt x="361" y="-244" on="1"/>
        <pt x="348" y="-257" on="0"/>
        <pt x="334" y="-246" on="1"/>
        <pt x="331" y="-243" on="0"/>
        <pt x="327" y="-235" on="0"/>
        <pt x="327" y="735" on="0"/>
        <pt x="329" y="739" on="1"/>
        <pt x="332" y="745" on="0"/>
      </contour>
    </TTGlyph>
    <TTGlyph name="l" xMin="17" yMin="-272" xMax="483" yMax="772">
      <contour>
        <pt x="243" y="769" on="1"/>
        <pt x="246" y="772" on="0"/>
        <pt x="250" y="772" on="1"/>
        <pt x="259" y="772" on="0"/>
        <pt x="261" y="762" on="1"/>
        <pt x="264" y="746" on="1"/>
        <pt x="278" y="680" on="0"/>
        <pt x="320" y="627" on="1"/>
        <pt x="337" y="603" on="0"/>
        <pt x="361" y="586" on="1"/>
        <pt x="409" y="548" on="0"/>
        <pt x="464" y="534" on="1"/>
        <pt x="478" y="530" on="0"/>
        <pt x="479" y="529" on="1"/>
        <pt x="483" y="525" on="0"/>
        <pt x="483" y="511" on="1"/>
        <pt x="483" y="495" on="0"/>
        <pt x="475" y="492" on="1"/>
        <pt x="471" y="491" on="0"/>
        <pt x="458" y="494" on="1"/>
        <pt x="345" y="525" on="0"/>
        <pt x="280" y="619" on="1"/>
        <pt x="278" y="621" on="0"/>
        <pt x="277" y="623" on="1"/>
        <pt x="270" y="633" on="1"/>
        <pt x="270" y="250" on="1"/>
        <pt x="270" y="-133" on="1"/>
        <pt x="277" y="-123" on="1"/>
        <pt x="323" y="-53" on="0"/>
        <pt x="402" y="-15" on="1"/>
        <pt x="454" y="10" on="0"/>
        <pt x="475" y="8" on="1"/>
        <pt x="483" y="6" on="0"/>
        <pt x="483" y="-11" on="1"/>
        <pt x="483" y="-25" on="0"/>
        <pt x="479" y="-29" on="1"/>
        <pt x="478" y="-30" on="0"/>
        <pt x="464" y="-34" on="1"/>
        <pt x="409" y="-48" on="0"/>
        <pt x="361" y="-86" on="1"/>
        <pt x="337" y="-103" on="0"/>
        <pt x="320" y="-127" on="1"/>
        <pt x="278" y="-180" on="0"/>
        <pt x="264" y="-246" on="1"/>
        <pt x="261" y="-262" on="1"/>
        <pt x="259" y="-272" on="0"/>
        <pt x="250" y="-272" on="1"/>
        <pt x="246" y="-272" on="0"/>
        <pt x="243" y="-269" on="1"/>
        <pt x="239" y="-265" on="0"/>
        <pt x="236" y="-246" on="1"/>
        <pt x="224" y="-182" on="0"/>
        <pt x="180" y="-127" on="1"/>
        <pt x="163" y="-103" on="0"/>
        <pt x="139" y="-86" on="1"/>
        <pt x="91" y="-48" on="0"/>
        <pt x="36" y="-34" on="1"/>
        <pt x="22" y="-30" on="0"/>
        <pt x="21" y="-29" on="1"/>
        <pt x="17" y="-25" on="0"/>
        <pt x="17" y="-11" on="1"/>
        <pt x="17" y="5" on="0"/>
        <pt x="25" y="8" on="1"/>
        <pt x="29" y="9" on="0"/>
        <pt x="42" y="6" on="1"/>
        <pt x="155" y="-25" on="0"/>
        <pt x="220" y="-119" on="1"/>
        <pt x="222" y="-121" on="0"/>
        <pt x="223" y="-123" on="1"/>
        <pt x="230" y="-133" on="1"/>
        <pt x="230" y="250" on="1"/>
        <pt x="230" y="633" on="1"/>
        <pt x="223" y="623" on="1"/>
        <pt x="177" y="553" on="0"/>
        <pt x="99" y="515" on="1"/>
        <pt x="44" y="489" on="0"/>
        <pt x="25" y="492" on="1"/>
        <pt x="17" y="494" on="0"/>
        <pt x="17" y="511" on="1"/>
        <pt x="17" y="525" on="0"/>
        <pt x="21" y="529" on="1"/>
        <pt x="22" y="530" on="0"/>
        <pt x="36" y="534" on="1"/>
        <pt x="91" y="548" on="0"/>
        <pt x="139" y="586" on="1"/>
        <pt x="163" y="603" on="0"/>
        <pt x="180" y="627" on="1"/>
        <pt x="224" y="682" on="0"/>
        <pt x="236" y="747" on="1"/>
        <pt x="239" y="765" on="0"/>
      </contour>
    </TTGlyph>
    <TTGlyph name="less" xMin="36" yMin="-28" xMax="715" yMax="718">
      <contour>
        <pt x="541" y="715" on="1"/>
        <pt x="560" y="716" on="1"/>
        <pt x="561" y="716" on="1"/>
        <pt x="575" y="716" on="0"/>
        <pt x="577" y="714" on="1"/>
        <pt x="583" y="710" on="0"/>
        <pt x="703" y="469" on="1"/>
        <pt x="715" y="445" on="0"/>
        <pt x="715" y="444" on="1"/>
        <pt x="714" y="440" on="1"/>
        <pt x="714" y="439" on="1"/>
        <pt x="709" y="434" on="0"/>
        <pt x="573" y="367" on="1"/>
        <pt x="554" y="357" on="1"/>
        <pt x="555" y="353" on="1"/>
        <pt x="561" y="238" on="1"/>
        <pt x="567" y="126" on="0"/>
        <pt x="566" y="120" on="1"/>
        <pt x="562" y="91" on="0"/>
        <pt x="570" y="70" on="1"/>
        <pt x="578" y="46" on="0"/>
        <pt x="596" y="28" on="1"/>
        <pt x="601" y="24" on="1"/>
        <pt x="628" y="56" on="1"/>
        <pt x="654" y="88" on="0"/>
        <pt x="658" y="90" on="1"/>
        <pt x="662" y="91" on="0"/>
        <pt x="665" y="89" on="1"/>
        <pt x="678" y="85" on="0"/>
        <pt x="702" y="68" on="1"/>
        <pt x="703" y="63" on="1"/>
        <pt x="703" y="62" on="1"/>
        <pt x="703" y="58" on="0"/>
        <pt x="665" y="20" on="1"/>
        <pt x="624" y="-21" on="1"/>
        <pt x="617" y="-24" on="0"/>
        <pt x="573" y="-22" on="1"/>
        <pt x="567" y="-22" on="0"/>
        <pt x="564" y="-21" on="1"/>
        <pt x="500" y="-10" on="0"/>
        <pt x="471" y="47" on="1"/>
        <pt x="463" y="60" on="0"/>
        <pt x="458" y="83" on="1"/>
        <pt x="458" y="121" on="1"/>
        <pt x="460" y="129" on="0"/>
        <pt x="453" y="226" on="1"/>
        <pt x="448" y="318" on="0"/>
        <pt x="448" y="329" on="1"/>
        <pt x="448" y="333" on="1"/>
        <pt x="396" y="333" on="1"/>
        <pt x="343" y="333" on="1"/>
        <pt x="343" y="278" on="1"/>
        <pt x="342" y="195" on="0"/>
        <pt x="333" y="157" on="1"/>
        <pt x="316" y="64" on="0"/>
        <pt x="267" y="12" on="1"/>
        <pt x="227" y="-28" on="0"/>
        <pt x="176" y="-21" on="1"/>
        <pt x="100" y="-8" on="0"/>
        <pt x="72" y="61" on="1"/>
        <pt x="69" y="69" on="0"/>
        <pt x="67" y="69" on="1"/>
        <pt x="62" y="68" on="0"/>
        <pt x="36" y="94" on="0"/>
        <pt x="36" y="100" on="1"/>
        <pt x="37" y="105" on="0"/>
        <pt x="47" y="109" on="1"/>
        <pt x="54" y="113" on="0"/>
        <pt x="66" y="125" on="1"/>
        <pt x="82" y="140" on="1"/>
        <pt x="90" y="143" on="0"/>
        <pt x="94" y="134" on="1"/>
        <pt x="96" y="130" on="0"/>
        <pt x="101" y="130" on="1"/>
        <pt x="105" y="130" on="1"/>
        <pt x="118" y="118" on="1"/>
        <pt x="130" y="105" on="0"/>
        <pt x="130" y="101" on="1"/>
        <pt x="130" y="95" on="0"/>
        <pt x="120" y="91" on="1"/>
        <pt x="114" y="87" on="0"/>
        <pt x="113" y="87" on="1"/>
        <pt x="113" y="84" on="0"/>
        <pt x="124" y="66" on="1"/>
        <pt x="136" y="49" on="0"/>
        <pt x="154" y="37" on="1"/>
        <pt x="178" y="22" on="0"/>
        <pt x="201" y="26" on="1"/>
        <pt x="218" y="32" on="0"/>
        <pt x="228" y="72" on="1"/>
        <pt x="234" y="94" on="0"/>
        <pt x="234" y="200" on="1"/>
        <pt x="234" y="231" on="0"/>
        <pt x="234" y="322" on="1"/>
        <pt x="234" y="534" on="0"/>
        <pt x="229" y="574" on="1"/>
        <pt x="225" y="607" on="0"/>
        <pt x="210" y="629" on="1"/>
        <pt x="184" y="670" on="0"/>
        <pt x="146" y="653" on="1"/>
        <pt x="133" y="647" on="0"/>
        <pt x="122" y="629" on="1"/>
        <pt x="110" y="610" on="0"/>
        <pt x="110" y="583" on="1"/>
        <pt x="110" y="562" on="0"/>
        <pt x="131" y="537" on="1"/>
        <pt x="164" y="497" on="0"/>
        <pt x="175" y="476" on="1"/>
        <pt x="187" y="452" on="0"/>
        <pt x="190" y="438" on="1"/>
        <pt x="193" y="427" on="1"/>
        <pt x="193" y="396" on="1"/>
        <pt x="193" y="318" on="0"/>
        <pt x="174" y="281" on="1"/>
        <pt x="163" y="259" on="0"/>
        <pt x="144" y="250" on="1"/>
        <pt x="106" y="231" on="0"/>
        <pt x="78" y="259" on="1"/>
        <pt x="58" y="279" on="0"/>
        <pt x="55" y="317" on="1"/>
        <pt x="54" y="333" on="0"/>
        <pt x="62" y="335" on="1"/>
        <pt x="66" y="336" on="0"/>
        <pt x="80" y="336" on="1"/>
        <pt x="102" y="336" on="0"/>
        <pt x="104" y="330" on="1"/>
        <pt x="105" y="326" on="0"/>
        <pt x="105" y="316" on="1"/>
        <pt x="106" y="290" on="0"/>
        <pt x="115" y="290" on="1"/>
        <pt x="123" y="290" on="0"/>
        <pt x="135" y="320" on="0"/>
        <pt x="136" y="343" on="1"/>
        <pt x="137" y="407" on="1"/>
        <pt x="137" y="409" on="1"/>
        <pt x="134" y="435" on="0"/>
        <pt x="108" y="469" on="1"/>
        <pt x="71" y="518" on="0"/>
        <pt x="64" y="535" on="1"/>
        <pt x="56" y="553" on="0"/>
        <pt x="56" y="577" on="1"/>
        <pt x="56" y="596" on="0"/>
        <pt x="58" y="604" on="1"/>
        <pt x="73" y="677" on="0"/>
        <pt x="132" y="698" on="1"/>
        <pt x="135" y="699" on="0"/>
        <pt x="137" y="700" on="1"/>
        <pt x="190" y="718" on="0"/>
        <pt x="244" y="678" on="1"/>
        <pt x="270" y="662" on="0"/>
        <pt x="292" y="627" on="1"/>
        <pt x="296" y="621" on="1"/>
        <pt x="305" y="630" on="1"/>
        <pt x="324" y="648" on="0"/>
        <pt x="341" y="659" on="1"/>
        <pt x="417" y="709" on="0"/>
      </contour>
      <contour>
        <pt x="542" y="548" on="1"/>
        <pt x="488" y="654" on="0"/>
        <pt x="486" y="654" on="1"/>
        <pt x="474" y="652" on="1"/>
        <pt x="370" y="634" on="0"/>
        <pt x="334" y="579" on="1"/>
        <pt x="326" y="567" on="1"/>
        <pt x="324" y="561" on="1"/>
        <pt x="326" y="555" on="1"/>
        <pt x="334" y="532" on="0"/>
        <pt x="337" y="510" on="1"/>
        <pt x="342" y="484" on="0"/>
        <pt x="343" y="430" on="1"/>
        <pt x="343" y="389" on="1"/>
        <pt x="424" y="389" on="1"/>
        <pt x="512" y="389" on="0"/>
        <pt x="525" y="394" on="1"/>
        <pt x="539" y="400" on="0"/>
        <pt x="559" y="415" on="1"/>
        <pt x="578" y="429" on="0"/>
        <pt x="584" y="432" on="1"/>
        <pt x="595" y="440" on="0"/>
        <pt x="596" y="441" on="1"/>
        <pt x="596" y="444" on="0"/>
      </contour>
    </TTGlyph>
    <TTGlyph name="m" xMin="31" yMin="-272" xMax="579" yMax="772">
      <contour>
        <pt x="298" y="769" on="1"/>
        <pt x="301" y="772" on="0"/>
        <pt x="305" y="772" on="1"/>
        <pt x="313" y="772" on="0"/>
        <pt x="320" y="755" on="1"/>
        <pt x="343" y="692" on="0"/>
        <pt x="393" y="633" on="1"/>
        <pt x="419" y="603" on="0"/>
        <pt x="449" y="577" on="1"/>
        <pt x="504" y="531" on="0"/>
        <pt x="565" y="506" on="1"/>
        <pt x="575" y="501" on="0"/>
        <pt x="576" y="500" on="1"/>
        <pt x="579" y="497" on="1"/>
        <pt x="579" y="484" on="1"/>
        <pt x="579" y="466" on="0"/>
        <pt x="572" y="464" on="1"/>
        <pt x="567" y="463" on="0"/>
        <pt x="550" y="470" on="1"/>
        <pt x="481" y="500" on="0"/>
        <pt x="429" y="545" on="1"/>
        <pt x="423" y="550" on="1"/>
        <pt x="422" y="400" on="1"/>
        <pt x="422" y="100" on="1"/>
        <pt x="423" y="-50" on="1"/>
        <pt x="429" y="-45" on="1"/>
        <pt x="481" y="0" on="0"/>
        <pt x="550" y="30" on="1"/>
        <pt x="567" y="37" on="0"/>
        <pt x="572" y="36" on="1"/>
        <pt x="579" y="34" on="0"/>
        <pt x="579" y="16" on="1"/>
        <pt x="579" y="3" on="1"/>
        <pt x="576" y="0" on="1"/>
        <pt x="575" y="-1" on="0"/>
        <pt x="565" y="-6" on="1"/>
        <pt x="504" y="-31" on="0"/>
        <pt x="449" y="-77" on="1"/>
        <pt x="424" y="-98" on="0"/>
        <pt x="393" y="-132" on="1"/>
        <pt x="343" y="-193" on="0"/>
        <pt x="320" y="-254" on="1"/>
        <pt x="313" y="-272" on="0"/>
        <pt x="297" y="-272" on="0"/>
        <pt x="290" y="-254" on="1"/>
        <pt x="267" y="-193" on="0"/>
        <pt x="217" y="-132" on="1"/>
        <pt x="191" y="-103" on="0"/>
        <pt x="162" y="-77" on="1"/>
        <pt x="105" y="-30" on="0"/>
        <pt x="45" y="-6" on="1"/>
        <pt x="35" y="-1" on="0"/>
        <pt x="34" y="0" on="1"/>
        <pt x="31" y="3" on="1"/>
        <pt x="31" y="16" on="1"/>
        <pt x="31" y="34" on="0"/>
        <pt x="38" y="36" on="1"/>
        <pt x="43" y="37" on="0"/>
        <pt x="61" y="30" on="1"/>
        <pt x="130" y="0" on="0"/>
        <pt x="181" y="-45" on="1"/>
        <pt x="188" y="-50" on="1"/>
        <pt x="188" y="100" on="1"/>
        <pt x="188" y="400" on="1"/>
        <pt x="188" y="550" on="1"/>
        <pt x="181" y="545" on="1"/>
        <pt x="130" y="500" on="0"/>
        <pt x="61" y="470" on="1"/>
        <pt x="43" y="463" on="0"/>
        <pt x="38" y="464" on="1"/>
        <pt x="31" y="466" on="0"/>
        <pt x="31" y="484" on="1"/>
        <pt x="31" y="497" on="1"/>
        <pt x="34" y="500" on="1"/>
        <pt x="35" y="501" on="0"/>
        <pt x="45" y="506" on="1"/>
        <pt x="105" y="530" on="0"/>
        <pt x="162" y="577" on="1"/>
        <pt x="196" y="608" on="0"/>
        <pt x="217" y="633" on="1"/>
        <pt x="267" y="692" on="0"/>
        <pt x="290" y="755" on="1"/>
        <pt x="298" y="768" on="0"/>
      </contour>
      <contour>
        <pt x="310" y="687" on="1"/>
        <pt x="306" y="694" on="0"/>
        <pt x="305" y="695" on="1"/>
        <pt x="300" y="687" on="1"/>
        <pt x="269" y="633" on="0"/>
        <pt x="236" y="598" on="1"/>
        <pt x="228" y="589" on="1"/>
        <pt x="228" y="250" on="1"/>
        <pt x="228" y="-89" on="1"/>
        <pt x="236" y="-98" on="1"/>
        <pt x="269" y="-133" on="0"/>
        <pt x="300" y="-187" on="1"/>
        <pt x="304" y="-194" on="0"/>
        <pt x="305" y="-195" on="1"/>
        <pt x="310" y="-187" on="1"/>
        <pt x="341" y="-133" on="0"/>
        <pt x="374" y="-98" on="1"/>
        <pt x="382" y="-89" on="1"/>
        <pt x="382" y="250" on="1"/>
        <pt x="382" y="589" on="1"/>
        <pt x="374" y="598" on="1"/>
        <pt x="341" y="633" on="0"/>
      </contour>
    </TTGlyph>
    <TTGlyph name="n" xMin="56" yMin="-256" xMax="444" yMax="756">
      <contour>
        <pt x="66" y="748" on="1"/>
        <pt x="80" y="756" on="0"/>
        <pt x="92" y="740" on="1"/>
        <pt x="96" y="733" on="0"/>
        <pt x="269" y="256" on="1"/>
        <pt x="444" y="-227" on="0"/>
        <pt x="444" y="-235" on="0"/>
        <pt x="441" y="-241" on="1"/>
        <pt x="434" y="-247" on="1"/>
        <pt x="433" y="-248" on="1"/>
        <pt x="419" y="-256" on="0"/>
        <pt x="407" y="-240" on="1"/>
        <pt x="403" y="-233" on="0"/>
        <pt x="230" y="244" on="1"/>
        <pt x="56" y="724" on="0"/>
        <pt x="56" y="731" on="1"/>
        <pt x="56" y="737" on="0"/>
        <pt x="59" y="741" on="1"/>
      </contour>
    </TTGlyph>
    <TTGlyph name="nine" xMin="56" yMin="0" xMax="500" yMax="694">
      <contour>
        <pt x="66" y="692" on="1"/>
        <pt x="70" y="694" on="1"/>
        <pt x="279" y="694" on="1"/>
        <pt x="487" y="694" on="1"/>
        <pt x="491" y="691" on="1"/>
        <pt x="496" y="686" on="0"/>
        <pt x="498" y="683" on="1"/>
        <pt x="500" y="679" on="1"/>
        <pt x="500" y="347" on="1"/>
        <pt x="500" y="15" on="1"/>
        <pt x="498" y="11" on="1"/>
        <pt x="494" y="6" on="0"/>
        <pt x="491" y="4" on="1"/>
        <pt x="487" y="1" on="1"/>
        <pt x="279" y="0" on="1"/>
        <pt x="70" y="0" on="1"/>
        <pt x="66" y="2" on="1"/>
        <pt x="61" y="6" on="0"/>
        <pt x="59" y="9" on="1"/>
        <pt x="56" y="13" on="0"/>
        <pt x="56" y="27" on="0"/>
        <pt x="59" y="31" on="1"/>
        <pt x="61" y="34" on="0"/>
        <pt x="66" y="38" on="1"/>
        <pt x="70" y="40" on="1"/>
        <pt x="265" y="40" on="1"/>
        <pt x="460" y="40" on="1"/>
        <pt x="460" y="184" on="1"/>
        <pt x="460" y="327" on="1"/>
        <pt x="272" y="327" on="1"/>
        <pt x="84" y="327" on="1"/>
        <pt x="80" y="329" on="1"/>
        <pt x="75" y="332" on="0"/>
        <pt x="73" y="336" on="1"/>
        <pt x="70" y="340" on="0"/>
        <pt x="70" y="354" on="0"/>
        <pt x="73" y="358" on="1"/>
        <pt x="75" y="362" on="0"/>
        <pt x="80" y="365" on="1"/>
        <pt x="84" y="367" on="1"/>
        <pt x="272" y="367" on="1"/>
        <pt x="460" y="367" on="1"/>
        <pt x="460" y="511" on="1"/>
        <pt x="460" y="654" on="1"/>
        <pt x="265" y="654" on="1"/>
        <pt x="70" y="654" on="1"/>
        <pt x="66" y="656" on="1"/>
        <pt x="61" y="660" on="0"/>
        <pt x="59" y="663" on="1"/>
        <pt x="56" y="667" on="0"/>
        <pt x="56" y="681" on="0"/>
        <pt x="59" y="685" on="1"/>
        <pt x="61" y="688" on="0"/>
      </contour>
    </TTGlyph>
    <TTGlyph name="numbersign" xMin="17" yMin="-199" xMax="483" yMax="694">
      <contour>
        <pt x="243" y="693" on="1"/>
        <pt x="244" y="694" on="0"/>
        <pt x="251" y="694" on="1"/>
        <pt x="263" y="692" on="0"/>
        <pt x="268" y="683" on="1"/>
        <pt x="270" y="679" on="1"/>
        <pt x="270" y="312" on="1"/>
        <pt x="270" y="-55" on="1"/>
        <pt x="277" y="-45" on="1"/>
        <pt x="323" y="25" on="0"/>
        <pt x="402" y="63" on="1"/>
        <pt x="454" y="88" on="0"/>
        <pt x="475" y="86" on="1"/>
        <pt x="483" y="84" on="0"/>
        <pt x="483" y="67" on="1"/>
        <pt x="483" y="53" on="0"/>
        <pt x="479" y="49" on="1"/>
        <pt x="478" y="48" on="0"/>
        <pt x="464" y="44" on="1"/>
        <pt x="409" y="30" on="0"/>
        <pt x="361" y="-8" on="1"/>
        <pt x="343" y="-21" on="0"/>
        <pt x="320" y="-49" on="1"/>
        <pt x="278" y="-102" on="0"/>
        <pt x="264" y="-168" on="1"/>
        <pt x="261" y="-184" on="1"/>
        <pt x="258" y="-199" on="0"/>
        <pt x="245" y="-192" on="1"/>
        <pt x="239" y="-191" on="0"/>
        <pt x="238" y="-178" on="1"/>
        <pt x="227" y="-107" on="0"/>
        <pt x="180" y="-49" on="1"/>
        <pt x="163" y="-25" on="0"/>
        <pt x="139" y="-8" on="1"/>
        <pt x="91" y="30" on="0"/>
        <pt x="36" y="44" on="1"/>
        <pt x="22" y="48" on="0"/>
        <pt x="21" y="49" on="1"/>
        <pt x="17" y="53" on="0"/>
        <pt x="17" y="67" on="1"/>
        <pt x="17" y="83" on="0"/>
        <pt x="25" y="86" on="1"/>
        <pt x="29" y="87" on="0"/>
        <pt x="42" y="84" on="1"/>
        <pt x="155" y="53" on="0"/>
        <pt x="220" y="-41" on="1"/>
        <pt x="222" y="-43" on="0"/>
        <pt x="223" y="-45" on="1"/>
        <pt x="230" y="-55" on="1"/>
        <pt x="230" y="312" on="1"/>
        <pt x="230" y="679" on="0"/>
        <pt x="232" y="683" on="1"/>
        <pt x="235" y="690" on="0"/>
      </contour>
    </TTGlyph>
    <TTGlyph name="o" xMin="48" yMin="-85" xMax="229" yMax="584">
      <contour>
        <pt x="72" y="582" on="1"/>
        <pt x="85" y="584" on="0"/>
        <pt x="104" y="581" on="1"/>
        <pt x="159" y="573" on="0"/>
        <pt x="189" y="528" on="1"/>
        <pt x="229" y="468" on="0"/>
        <pt x="221" y="390" on="1"/>
        <pt x="220" y="379" on="0"/>
        <pt x="218" y="370" on="1"/>
        <pt x="208" y="323" on="0"/>
        <pt x="165" y="246" on="1"/>
        <pt x="124" y="169" on="0"/>
        <pt x="115" y="128" on="1"/>
        <pt x="108" y="88" on="0"/>
        <pt x="116" y="45" on="1"/>
        <pt x="125" y="-6" on="0"/>
        <pt x="153" y="-34" on="1"/>
        <pt x="173" y="-54" on="0"/>
        <pt x="195" y="-55" on="1"/>
        <pt x="212" y="-56" on="0"/>
        <pt x="219" y="-62" on="1"/>
        <pt x="229" y="-74" on="0"/>
        <pt x="210" y="-80" on="1"/>
        <pt x="198" y="-85" on="0"/>
        <pt x="174" y="-82" on="1"/>
        <pt x="118" y="-73" on="0"/>
        <pt x="88" y="-28" on="1"/>
        <pt x="48" y="32" on="0"/>
        <pt x="56" y="112" on="1"/>
        <pt x="57" y="122" on="0"/>
        <pt x="59" y="131" on="1"/>
        <pt x="69" y="177" on="0"/>
        <pt x="112" y="255" on="1"/>
        <pt x="153" y="330" on="0"/>
        <pt x="162" y="372" on="1"/>
        <pt x="170" y="412" on="0"/>
        <pt x="161" y="455" on="1"/>
        <pt x="152" y="506" on="0"/>
        <pt x="124" y="534" on="1"/>
        <pt x="104" y="554" on="0"/>
        <pt x="83" y="555" on="1"/>
        <pt x="61" y="556" on="0"/>
        <pt x="56" y="566" on="1"/>
        <pt x="55" y="569" on="0"/>
        <pt x="56" y="572" on="1"/>
        <pt x="59" y="579" on="0"/>
      </contour>
    </TTGlyph>
    <TTGlyph name="one" xMin="53" yMin="-13" xMax="946" yMax="444">
      <contour>
        <pt x="238" y="441" on="1"/>
        <pt x="260" y="443" on="0"/>
        <pt x="295" y="440" on="1"/>
        <pt x="329" y="433" on="0"/>
        <pt x="345" y="427" on="1"/>
        <pt x="375" y="416" on="0"/>
        <pt x="403" y="397" on="1"/>
        <pt x="430" y="379" on="0"/>
        <pt x="451" y="358" on="1"/>
        <pt x="469" y="341" on="0"/>
        <pt x="495" y="309" on="1"/>
        <pt x="506" y="294" on="0"/>
        <pt x="507" y="293" on="1"/>
        <pt x="516" y="305" on="1"/>
        <pt x="566" y="374" on="0"/>
        <pt x="621" y="407" on="1"/>
        <pt x="660" y="430" on="0"/>
        <pt x="709" y="440" on="1"/>
        <pt x="735" y="444" on="0"/>
        <pt x="773" y="440" on="1"/>
        <pt x="855" y="425" on="0"/>
        <pt x="904" y="351" on="1"/>
        <pt x="933" y="308" on="0"/>
        <pt x="942" y="248" on="1"/>
        <pt x="946" y="223" on="0"/>
        <pt x="943" y="186" on="1"/>
        <pt x="942" y="183" on="0"/>
        <pt x="942" y="181" on="1"/>
        <pt x="925" y="70" on="0"/>
        <pt x="838" y="16" on="1"/>
        <pt x="831" y="12" on="0"/>
        <pt x="823" y="8" on="1"/>
        <pt x="779" y="-12" on="0"/>
        <pt x="731" y="-11" on="1"/>
        <pt x="707" y="-10" on="0"/>
        <pt x="680" y="-3" on="1"/>
        <pt x="659" y="1" on="0"/>
        <pt x="626" y="17" on="1"/>
        <pt x="583" y="38" on="0"/>
        <pt x="548" y="73" on="1"/>
        <pt x="528" y="92" on="0"/>
        <pt x="505" y="122" on="1"/>
        <pt x="492" y="138" on="1"/>
        <pt x="483" y="126" on="1"/>
        <pt x="433" y="57" on="0"/>
        <pt x="378" y="24" on="1"/>
        <pt x="340" y="1" on="0"/>
        <pt x="291" y="-9" on="1"/>
        <pt x="263" y="-13" on="0"/>
        <pt x="227" y="-9" on="1"/>
        <pt x="144" y="6" on="0"/>
        <pt x="95" y="80" on="1"/>
        <pt x="66" y="123" on="0"/>
        <pt x="57" y="184" on="1"/>
        <pt x="53" y="208" on="0"/>
        <pt x="56" y="245" on="1"/>
        <pt x="57" y="248" on="0"/>
        <pt x="57" y="250" on="1"/>
        <pt x="73" y="345" on="0"/>
        <pt x="137" y="397" on="1"/>
        <pt x="179" y="433" on="0"/>
      </contour>
      <contour>
        <pt x="780" y="388" on="1"/>
        <pt x="752" y="391" on="0"/>
        <pt x="722" y="384" on="1"/>
        <pt x="703" y="380" on="0"/>
        <pt x="680" y="369" on="1"/>
        <pt x="645" y="352" on="0"/>
        <pt x="611" y="318" on="1"/>
        <pt x="580" y="287" on="0"/>
        <pt x="555" y="247" on="1"/>
        <pt x="549" y="238" on="1"/>
        <pt x="577" y="202" on="1"/>
        <pt x="613" y="156" on="0"/>
        <pt x="627" y="139" on="1"/>
        <pt x="686" y="71" on="0"/>
        <pt x="743" y="62" on="1"/>
        <pt x="764" y="58" on="0"/>
        <pt x="786" y="62" on="1"/>
        <pt x="847" y="72" on="0"/>
        <pt x="879" y="137" on="1"/>
        <pt x="899" y="178" on="0"/>
        <pt x="897" y="225" on="1"/>
        <pt x="892" y="307" on="0"/>
        <pt x="845" y="353" on="1"/>
        <pt x="816" y="382" on="0"/>
      </contour>
      <contour>
        <pt x="256" y="369" on="1"/>
        <pt x="235" y="373" on="0"/>
        <pt x="213" y="369" on="1"/>
        <pt x="153" y="358" on="0"/>
        <pt x="122" y="297" on="1"/>
        <pt x="112" y="278" on="0"/>
        <pt x="107" y="256" on="1"/>
        <pt x="91" y="190" on="0"/>
        <pt x="122" y="123" on="1"/>
        <pt x="144" y="75" on="0"/>
        <pt x="188" y="53" on="1"/>
        <pt x="225" y="35" on="0"/>
        <pt x="277" y="47" on="1"/>
        <pt x="296" y="51" on="0"/>
        <pt x="320" y="62" on="1"/>
        <pt x="354" y="79" on="0"/>
        <pt x="388" y="113" on="1"/>
        <pt x="419" y="144" on="0"/>
        <pt x="444" y="184" on="1"/>
        <pt x="450" y="193" on="1"/>
        <pt x="422" y="229" on="1"/>
        <pt x="386" y="275" on="0"/>
        <pt x="372" y="292" on="1"/>
        <pt x="313" y="360" on="0"/>
      </contour>
    </TTGlyph>
    <TTGlyph name="p" xMin="70" yMin="-960" xMax="853" yMax="42">
      <contour>
        <pt x="824" y="37" on="1"/>
        <pt x="833" y="42" on="0"/>
        <pt x="842" y="38" on="1"/>
        <pt x="851" y="32" on="0"/>
        <pt x="853" y="22" on="1"/>
        <pt x="853" y="16" on="1"/>
        <pt x="620" y="-467" on="1"/>
        <pt x="385" y="-952" on="0"/>
        <pt x="385" y="-953" on="1"/>
        <pt x="381" y="-960" on="0"/>
        <pt x="366" y="-960" on="1"/>
        <pt x="357" y="-960" on="0"/>
        <pt x="354" y="-957" on="1"/>
        <pt x="350" y="-953" on="0"/>
        <pt x="259" y="-752" on="1"/>
        <pt x="167" y="-550" on="1"/>
        <pt x="166" y="-550" on="0"/>
        <pt x="135" y="-574" on="1"/>
        <pt x="104" y="-599" on="0"/>
        <pt x="99" y="-598" on="1"/>
        <pt x="96" y="-598" on="0"/>
        <pt x="85" y="-588" on="1"/>
        <pt x="80" y="-582" on="0"/>
        <pt x="73" y="-575" on="1"/>
        <pt x="70" y="-570" on="0"/>
        <pt x="74" y="-564" on="1"/>
        <pt x="217" y="-451" on="1"/>
        <pt x="219" y="-449" on="0"/>
        <pt x="222" y="-449" on="1"/>
        <pt x="229" y="-449" on="0"/>
        <pt x="234" y="-459" on="1"/>
        <pt x="320" y="-647" on="1"/>
        <pt x="402" y="-827" on="1"/>
        <pt x="608" y="-401" on="1"/>
        <pt x="816" y="31" on="0"/>
        <pt x="816" y="30" on="1"/>
        <pt x="819" y="35" on="0"/>
      </contour>
    </TTGlyph>
    <TTGlyph name="parenleft" xMin="56" yMin="-24" xMax="944" yMax="525">
      <contour>
        <pt x="388" y="524" on="1"/>
        <pt x="389" y="525" on="0"/>
        <pt x="401" y="525" on="1"/>
        <pt x="416" y="524" on="0"/>
        <pt x="418" y="518" on="1"/>
        <pt x="420" y="514" on="0"/>
        <pt x="414" y="500" on="1"/>
        <pt x="379" y="431" on="0"/>
        <pt x="328" y="377" on="1"/>
        <pt x="318" y="367" on="1"/>
        <pt x="623" y="367" on="1"/>
        <pt x="929" y="367" on="1"/>
        <pt x="933" y="365" on="1"/>
        <pt x="936" y="363" on="0"/>
        <pt x="941" y="358" on="1"/>
        <pt x="944" y="352" on="0"/>
        <pt x="944" y="342" on="0"/>
        <pt x="941" y="336" on="1"/>
        <pt x="936" y="331" on="0"/>
        <pt x="934" y="330" on="1"/>
        <pt x="930" y="328" on="1"/>
        <pt x="602" y="327" on="1"/>
        <pt x="274" y="327" on="1"/>
        <pt x="264" y="319" on="1"/>
        <pt x="212" y="279" on="0"/>
        <pt x="157" y="255" on="1"/>
        <pt x="148" y="250" on="0"/>
        <pt x="147" y="250" on="1"/>
        <pt x="157" y="245" on="1"/>
        <pt x="212" y="221" on="0"/>
        <pt x="264" y="181" on="1"/>
        <pt x="274" y="173" on="1"/>
        <pt x="602" y="173" on="1"/>
        <pt x="930" y="173" on="1"/>
        <pt x="934" y="170" on="1"/>
        <pt x="936" y="169" on="0"/>
        <pt x="941" y="164" on="1"/>
        <pt x="944" y="158" on="0"/>
        <pt x="944" y="148" on="0"/>
        <pt x="941" y="142" on="1"/>
        <pt x="936" y="137" on="0"/>
        <pt x="933" y="135" on="1"/>
        <pt x="929" y="133" on="1"/>
        <pt x="623" y="133" on="1"/>
        <pt x="318" y="133" on="1"/>
        <pt x="328" y="123" on="1"/>
        <pt x="379" y="69" on="0"/>
        <pt x="414" y="0" on="1"/>
        <pt x="420" y="-14" on="0"/>
        <pt x="418" y="-19" on="1"/>
        <pt x="415" y="-24" on="0"/>
        <pt x="399" y="-24" on="1"/>
        <pt x="384" y="-24" on="0"/>
        <pt x="380" y="-17" on="1"/>
        <pt x="379" y="-16" on="0"/>
        <pt x="377" y="-12" on="1"/>
        <pt x="310" y="120" on="0"/>
        <pt x="184" y="191" on="1"/>
        <pt x="172" y="198" on="0"/>
        <pt x="160" y="204" on="1"/>
        <pt x="118" y="225" on="0"/>
        <pt x="72" y="237" on="1"/>
        <pt x="57" y="241" on="0"/>
        <pt x="56" y="250" on="1"/>
        <pt x="56" y="258" on="0"/>
        <pt x="67" y="262" on="1"/>
        <pt x="69" y="262" on="0"/>
        <pt x="72" y="263" on="1"/>
        <pt x="118" y="275" on="0"/>
        <pt x="160" y="296" on="1"/>
        <pt x="289" y="359" on="0"/>
        <pt x="364" y="488" on="1"/>
        <pt x="371" y="500" on="0"/>
        <pt x="377" y="512" on="1"/>
        <pt x="383" y="523" on="0"/>
      </contour>
    </TTGlyph>
</ttFont>
